<svg id="e619c22d-efa5-496a-84d2-dfd5cbe64486" data-name="图层 1" xmlns="http://www.w3.org/2000/svg" viewBox="0 0 300 300"><defs><style>.adab9d68-30d6-4a13-8ac9-3e86332536cf,.aed3428c-f684-44a6-9b2f-0e01eb11dbf8{fill:#9ed662;}.adab9d68-30d6-4a13-8ac9-3e86332536cf{stroke:#fff;stroke-miterlimit:10;stroke-width:7px;}.afabde7c-27a1-4bb3-8a55-6f26182b6654{fill:#05656c;}</style></defs><title>TechIcons</title><path class="adab9d68-30d6-4a13-8ac9-3e86332536cf" d="M150.16,293.76c-80.12,0-144-64.22-144-144.63C6.17,70,71.08,5.76,151,5.81,230,5.87,294.12,70.5,294.08,150,294.05,230,230.22,293.77,150.16,293.76Zm8.41-141.41,1.12,1.44c-12.7,7.08-25.46,14.07-38.06,21.34a24,24,0,0,0-7.27,6.39c-16.93,23.12-34.82,45.41-55.43,65.42-1.56,1.51-2.52,3.64-3.76,5.48l1,1.45c1.72-.59,3.84-.73,5.08-1.86,3-2.69,5.35-6,8.28-8.76s6.61-4.48,9.05-7.42a265.8,265.8,0,0,0,17.56-23.05c13.62-20.7,31.63-35.49,54.88-44.43,15.86-6.09,29.48-15.78,39.44-30,.81-1.16,2.34-1.83,3.54-2.73l2,.81c-1,4.3-1.6,8.77-3.16,12.86-2.59,6.78-1.73,12.26,2.68,18.32,6.07,8.35,10.84,17.64,16.2,26.5.86,1.41,1.92,2.7,2.89,4,.68-.52,1.94-1,1.94-1.57a8.79,8.79,0,0,0-.85-4.4c-5.57-9.22-11.31-18.33-16.93-27.52-.71-1.16-1.56-2.67-1.38-3.87q2.72-18.14,5.8-36.21c.7-4.11,3.68-5.57,7.35-4.38,5.56,1.8,11,4.1,16.38,6.3,4.31,1.74,8.54,4.69,12.54-.74.54-.74,2.54-.42,3.87-.55a22.63,22.63,0,0,0,4.15-.47c.36-.11.53-2.28.37-2.34-1.6-.57-3.36-1.41-5-1.21a41.47,41.47,0,0,1-26.44-5.49,6.88,6.88,0,0,1-3-4.7c-.09-.91,2.38-2.8,3.85-3,4.86-.58,5.53-3,4.83-7.36-1.55-9.76-.42-11.8,8.68-15.83,4.93-2.18,10.14-3.75,15.26-5.49,4.65-1.57,9.36-3,14-4.48l-.92-2.69L219.78,85.89c1.38-15.59,2.86-32.47,4.35-49.35l-1.34-.08C220.65,53,218.5,69.6,216.39,86h-11c-.25-1.86-.5-3.76-.82-6.18l-9.77,2.71a64.54,64.54,0,0,1-.11,8.74c-.22,1.57-1.18,3.61-2.45,4.35-9.4,5.54-18.89,10.81-30.21,4.59-6.76-3.71-12.56-2.32-17.19,4-2.88,4-6.2,4.35-10.18,1.09-1.32-1.07-3.62-.94-5.47-1.36l-.28,1.81,5.66,4.18c-6.63.7-12.89.89-18.75-.56-12.64-3.14-23.66-2.14-35.47,4.93-12.36,7.41-25.61,16-41.75,10.83-.24-.08-.69.52-1.12.86.12.65.11,1.87.37,1.93,8.09,1.89,16,7.18,24.52.86,3.56-2.63,8-4,11.79-6.41,11.81-7.61,24.34-10.83,38.26-7.33,2.73.68,5.58.89,8.36,1.38,10.24,1.84,20.48,3.7,30.18,5.46L118.2,155.57c5.36,6.12,10.6,7.36,16.49,5.36C142.7,158.21,150.61,155.22,158.57,152.35Z"/><path class="afabde7c-27a1-4bb3-8a55-6f26182b6654" d="M158.57,152.34c-8,2.88-15.87,5.87-23.88,8.59-5.89,2-11.13.76-16.49-5.36l32.71-33.69c-9.7-1.76-19.94-3.62-30.18-5.46-2.78-.49-5.63-.7-8.36-1.38-13.92-3.5-26.45-.28-38.26,7.33-3.75,2.42-8.23,3.78-11.79,6.41-8.56,6.32-16.43,1-24.52-.86-.26-.06-.25-1.28-.37-1.93.43-.34.88-.94,1.12-.86,16.14,5.12,29.39-3.42,41.75-10.83,11.81-7.07,22.83-8.07,35.47-4.93,5.86,1.45,12.12,1.26,18.75.56l-5.66-4.18.28-1.81c1.85.42,4.15.29,5.47,1.36,4,3.26,7.3,2.86,10.18-1.09,4.63-6.36,10.43-7.75,17.19-4,11.32,6.22,20.81,1,30.21-4.59,1.27-.74,2.23-2.78,2.45-4.35a64.54,64.54,0,0,0,.11-8.74l9.77-2.71c.32,2.42.57,4.32.82,6.18h11c2.11-16.36,4.26-32.93,6.4-49.5l1.34.08c-1.49,16.88-3,33.76-4.35,49.35l39.43-13.71.92,2.69c-4.68,1.48-9.39,2.91-14,4.48-5.12,1.74-10.33,3.31-15.26,5.49-9.1,4-10.23,6.07-8.68,15.83.7,4.34,0,6.78-4.83,7.36-1.47.17-3.94,2.06-3.85,3a6.88,6.88,0,0,0,3,4.7,41.47,41.47,0,0,0,26.44,5.49c1.59-.2,3.35.64,5,1.21.16.06,0,2.23-.37,2.34a22.63,22.63,0,0,1-4.15.47c-1.33.13-3.33-.19-3.87.55-4,5.43-8.23,2.48-12.54.74-5.42-2.2-10.82-4.5-16.38-6.3-3.67-1.19-6.65.27-7.35,4.38q-3.06,18.09-5.8,36.21c-.18,1.2.67,2.71,1.38,3.87,5.62,9.19,11.36,18.3,16.93,27.52a8.79,8.79,0,0,1,.85,4.4c0,.53-1.26,1-1.94,1.57-1-1.34-2-2.63-2.89-4-5.36-8.86-10.13-18.15-16.2-26.5-4.41-6.06-5.27-11.54-2.68-18.32,1.56-4.09,2.14-8.56,3.16-12.86l-2-.81c-1.2.9-2.73,1.57-3.54,2.73-10,14.22-23.58,23.91-39.44,30-23.25,8.94-41.26,23.73-54.88,44.43a265.8,265.8,0,0,1-17.56,23.05c-2.44,2.94-6.2,4.75-9.05,7.42s-5.31,6.07-8.28,8.76c-1.24,1.13-3.36,1.27-5.08,1.86l-1-1.45c1.24-1.84,2.2-4,3.76-5.48,20.61-20,38.5-42.3,55.43-65.42a24,24,0,0,1,7.27-6.39c12.6-7.27,25.36-14.26,38.06-21.35l2.68-1.62,2.06-1-.22-.76-2.89.52Z"/><path class="aed3428c-f684-44a6-9b2f-0e01eb11dbf8" d="M161.32,150.94l2.89-.52.22.76-2.06,1Z"/><path class="aed3428c-f684-44a6-9b2f-0e01eb11dbf8" d="M162.37,152.16l-2.68,1.62c-.37-.47-.75-.95-1.12-1.44l2.75-1.4Z"/></svg>