<svg id="a7e0393b-101e-4a18-bfe3-238a3a796d53" data-name="图层 1" xmlns="http://www.w3.org/2000/svg" viewBox="0 0 300 300"><defs><style>.bf502a97-0b9c-49f9-9044-75625b7c4ab0{fill:#f7a418;}.ae99f36e-7249-4837-a8df-66595813134d{fill:#fde204;}.b72a69a5-255a-42b8-9449-ac654db17046{fill:#f69c1a;}.b7e284d1-a523-428a-a96e-3e298d4d6167{fill:#fcdc06;}.bc0a24b7-c88e-43fc-a086-a105b72d53ee{fill:#f9bf0f;}.a9f70375-daa4-4ee1-ba5a-e9e364753777{fill:#fac80d;}.fcca91fd-3883-4363-a653-7eb27caa4f8f{fill:#fbd708;}.b7f15c0f-fad7-4d80-99c3-a7365b413989{fill:#facb0c;}.fec7f23e-64f2-44f6-aeaa-adb6f5d23361{fill:#fdeb02;}.bc1a3261-2fe6-4810-a1d0-470aba0573bb{fill:#f9bd10;}.adceb9de-ed0d-4d1b-870d-efb4e50ddb8d{fill:#fcd20a;}.b43375ca-26e2-4a21-acf3-fd38c2bd210e{fill:#f5931e;}.ac016177-4aae-43bc-b3c0-0f280c7be5f7{fill:#fac50e;}.e731dd20-4502-40df-9082-48391919c4ac{fill:#fac20e;}.a8755178-347e-493b-a6ea-87ef21858775{fill:#f6b612;}.ede21669-a690-4cd5-a5b2-6e7ef176e516{fill:#f8ac15;}.e21684de-12a1-4a47-bbda-f1b30ac0a452{fill:#f8a916;}.e2d0d413-8585-4599-9518-f4dd5dabaebe{fill:#f8b014;}.aac4a31b-71eb-4e0a-9fb7-bda5ff901693{fill:#f9ba14;}.b32cf2fa-efa8-4009-bc70-4975d8dcdb26{fill:#f8b213;}.e0e37b8b-60d1-4482-9aec-637596f567c6{fill:#d26e1d;}.aefb3583-6815-4eb3-b97b-70b04f7b0bd9{fill:#f7ae1a;}.aea1f42c-5f4f-4768-b248-79e16136e2d5{fill:#fcfbf7;}.b9249cba-c8f3-43c9-998f-a829682270d0{fill:#f8b812;}.bafa3e65-172c-4056-b13b-5bd73441861d{fill:#face11;}.b770b069-3299-4f71-81d9-1f0f6232c746{fill:#cc7829;}.f1095c3f-c07a-417c-a676-d4286ab0c920{fill:#f9f7ea;}.a88a3fb5-aa96-438d-8170-c18ff26aa9f1{fill:#fcfaf5;}.bf2000ba-28d9-4e33-9d38-2720afb28086{fill:#fefdfc;}</style></defs><title>TechIcons</title><path class="bf502a97-0b9c-49f9-9044-75625b7c4ab0" d="M183.94,291.15H155.08a9,9,0,0,0-2.47-.77c-7.64-.05-15.27,0-22.9,0-.75,0-1.49-.08-2.24-.13l-.09-.78a16.47,16.47,0,0,1,3.53-.79c9.74-.07,19.48,0,29.22-.05.8,0,1.6-.08,2.4-.12l0-.75H138.91v-.87H162.5l0-.75c-.67,0-1.33-.1-2-.12-5.23-.15-10.46-.26-15.69-.49a3.47,3.47,0,0,1-2.11-1.11c-.19-.2.36-1.26.76-1.78.62-.79,1.28-1.83,2.14-2.12a7.72,7.72,0,0,0,4.89-4.87,4,4,0,0,1,1.95-1.75,13.26,13.26,0,0,0,5.44-5.39,5.89,5.89,0,0,1,1.42-1.23c.72-.59,1.37-1.53,2.18-1.69a2.25,2.25,0,0,0,2-2.11c.16-.76,1-1.38,1.57-2,.41-.47.84-.93,1.3-1.37s1.08-1.34,1.67-1.4c1.74-.15,2.34-1,2.55-2.62a2.47,2.47,0,0,1,1.29-1.51c1.58-.78,2-1.61.53-2.91a4.43,4.43,0,0,1-.65-1c2.67-1.17,5.18-2.24,7.66-3.38.36-.16.59-.61.86-1l2.63-3.31.36.72c.9.23,2.5.8,2.58.62,1.18-2.37,3.56-3.31,5.27-5,.85-.82,1.33-1.73,2.65-2a9,9,0,0,0,3.37-1.25c.52-.35.53-1.44.77-2.2a9.44,9.44,0,0,0-2.43.48c-1.62.82-2.93,2.47-5.07,1.71a3.22,3.22,0,0,1,.6-.62L223.61,216c9.41-5.64,14.95-13.65,15-24.89,0-17.34,0-34.67,0-52a13,13,0,0,1,.44,2.27c.05,3.91,0,7.81,0,11.72.28,7.95-.53,15.92.77,23.87.59,3.63.11,3.62,3.85,3.71,2,.05,2.91-.51,2.85-2.7-.1-3.67.62-4.36,4.3-4.29,2,0,2.73-.62,2.69-2.64-.07-3.72.64-4.45,4.25-4.36,2.13.06,2.8-.73,2.75-2.8-.1-3.5.69-4.29,4.19-4.19,2.06.05,2.86-.61,2.8-2.74-.09-3.58.67-4.37,4.13-4.25,2.23.07,3.06-.72,2.85-2.91-.15-1.64,0-3.33,1.93-3.92a9,9,0,0,1,2.6-.2c2.74,0,2.86.11,2.88,2.79,0,1.25,0,2.5,0,3.75l.88,0V125.08h.87v27.08h.88V132.07a8.69,8.69,0,0,1,.83,2.2c.13,1.44,0,2.9,0,4.35h1V126l.78,0c0,3.46-.05,6.92,0,10.38a7.58,7.58,0,0,0,.76,2.25c0,4.8.07,9.59.07,14.39q0,30.3,0,60.6c0,.8,0,1.6-.07,2.4a9.49,9.49,0,0,1-.76-2.49c-.05-12.1,0-24.19,0-36.29,0-.78-.11-1.56-.17-2.35l-.58,0c-.09,1.9-.17,3.79-.26,5.69l-.8,0V154.83h-.81V216h0a9.43,9.43,0,0,1-.83-2.65c-.05-14.93,0-29.86-.05-44.79,0-.8-.07-1.61-.11-2.41l-.79,0v27.07l-.85,0c0-.9.05-1.8,0-2.69-.13-1.85-1.49-2.93-2.92-1.93a10.25,10.25,0,0,0-3.5,4.25c-.6,1.44-1,2.41-2.69,2.57s-4.24,2.74-4.4,4.38a2.54,2.54,0,0,1-2.6,2.62c-1.66.16-4.23,2.73-4.39,4.38a2.56,2.56,0,0,1-2.62,2.62c-1.65.16-4.22,2.73-4.38,4.39a2.53,2.53,0,0,1-2.62,2.6c-1.64.16-4.22,2.75-4.38,4.4a2.53,2.53,0,0,1-2.62,2.6c-1.64.15-4.21,2.75-4.37,4.4a2.53,2.53,0,0,1-2.63,2.59c-1.63.16-4.2,2.76-4.37,4.41a2.49,2.49,0,0,1-2.42,2.57c-2,.26-4.09,2.7-4.69,4.62-.28.91-1.3,1.65-2.11,2.32a15.52,15.52,0,0,1-2.72,1.7c-1.58.83-2.07,2.18-2.35,3.85-.1.58-1.18,1.23-1.93,1.42a7.35,7.35,0,0,0-4.9,4.94c-.25.83-1.31,1.48-2.1,2.08a17.09,17.09,0,0,1-2.72,1.72c-1.6.82-2,2.19-2.36,3.83-.12.62-1.35,1.34-2.13,1.42-2.39.25-3.71,2.27-4.28,3.75-.75,2-1.16,3.46-3.59,3.43a1.89,1.89,0,0,0-1.2.82c-1,1.46-3,2.35-2.76,4.61,0,.39-.84,1.22-1.31,1.24-1.79.05-2.72,1.15-3.89,2.29-2.14,2.09-2.21,4.25.82,6.23-2.84.34-5.14.56-7.43.91a10.33,10.33,0,0,0-2.21.89l.27.83c1.51,0,3-.08,4.53,0A7.51,7.51,0,0,1,183.94,291.15Zm6.63-47.36,0-.53-1.43.09,0,.53Zm-14.19,7.75c.19-.43.36-.64.36-.86s-.31-.39-.38-.36c-.22.09-.51.27-.53.46S176.08,251.16,176.38,251.54Z"/><path class="ae99f36e-7249-4837-a8df-66595813134d" d="M68.08,11.47l45.51-.07c2.9,0,5.8,0,8.7.07a9,9,0,0,1-2.27.77c-1.9.11-3.82,0-6,0,.32,1,.51,1.42.64,1.9.88,3.41-.67,6.11-4,6.42-2.44.24-3.23,1.6-3.21,3.69,0,2.27-.9,3.25-3.24,3.35-3.14.14-3.56.6-3.75,3.76-.13,2.16-1,3.09-3.21,3.23-3.17.19-3.59.6-3.78,3.73-.14,2.15-1,3.13-3.19,3.26-3.21.2-3.6.62-3.82,3.93-.15,2.07-1.1,2.93-3.14,3.06-3.27.22-3.63.59-3.86,3.9-.14,2.07-1,3-3.11,3.1-3.35.22-3.65.53-3.88,3.87-.14,2.05-1,3-3.08,3.12-3.28.22-3.71.63-3.91,3.84-.14,2.2-1.14,3-3.27,3.17-3.1.19-3.53.64-3.73,3.8-.13,2.17-1.09,3.06-3.24,3.19-3.14.2-3.56.61-3.75,3.77-.13,2.16-1,3.09-3.21,3.23-3.17.19-3.59.61-3.78,3.74-.14,2.14-1,3.12-3.19,3.25-3.15.19-3.63.64-3.8,3.71-.13,2.3-1.14,3.17-3.38,3.3-3,.17-3.45.67-3.62,3.66-.12,2.28-1.08,3.21-3.35,3.34-3,.16-3.47.67-3.64,3.63-.13,2.26-1,3.34-3.32,3.34-2.09,0-3.47.74-3.71,3.18-.34,3.32-.49,3.3-3.91,3.87-2.68.44-3.53-.28-3.54-3.08,0-3,0-6-.05-9a6.68,6.68,0,0,0-.76-2V86.16A6.07,6.07,0,0,0,9,84.34c.21-3.18.25-6.38.53-9.55a3.12,3.12,0,0,1,1.28-2.1c1.85-1.12,3.11-3.14,5.46-3.5.21,0,.49-.59.49-.91,0-1.48,1.15-2,1.94-3A7.77,7.77,0,0,1,23,62.48a1.58,1.58,0,0,0,.81-1.19c.06-1.47,1.14-2,1.95-3a8.49,8.49,0,0,1,4.22-2.84c.46-.15.62-1.2,1-1.8a16.53,16.53,0,0,1,1.34-2,9.61,9.61,0,0,1,1.33-1.3c.62-.5,1.22-1.21,1.93-1.35a2.7,2.7,0,0,0,2.43-2.37,5.57,5.57,0,0,1,1.3-2,9.09,9.09,0,0,1,1.34-1.29,5.52,5.52,0,0,1,1.92-1.36,2.71,2.71,0,0,0,2.44-2.36,5.54,5.54,0,0,1,1.29-2,10.53,10.53,0,0,1,1.42-1.49c.5-.45,1-1.09,1.62-1.16A2.65,2.65,0,0,0,52,32.48c.1-.64.8-1.21,1.27-1.77a14.19,14.19,0,0,1,1.42-1.48c.5-.45,1-1.09,1.62-1.16A2.67,2.67,0,0,0,59,25.49c.09-.64.78-1.22,1.26-1.77s1.07-.65,1.22-1.1c.41-1.27,1.26-1.54,2.45-1.72.66-.11,1.71-.86,1.72-1.35.07-1.9,1.73-2.44,2.51-3.63C68.79,14.89,68.14,13,68.08,11.47Z"/><path class="b72a69a5-255a-42b8-9449-ac654db17046" d="M183.94,291.15a7.51,7.51,0,0,0-2.05-.76c-1.5-.12-3,0-4.53,0l-.27-.83a10.33,10.33,0,0,1,2.21-.89c2.29-.35,4.59-.57,7.43-.91-3-2-3-4.14-.82-6.23,1.17-1.14,2.1-2.24,3.89-2.29.47,0,1.34-.85,1.31-1.24-.2-2.26,1.73-3.15,2.76-4.61a1.89,1.89,0,0,1,1.2-.82c2.43,0,2.84-1.43,3.59-3.43.57-1.48,1.89-3.5,4.28-3.75.78-.08,2-.8,2.13-1.42.33-1.64.76-3,2.36-3.83a17.09,17.09,0,0,0,2.72-1.72c.79-.6,1.85-1.25,2.1-2.08a7.35,7.35,0,0,1,4.9-4.94c.75-.19,1.83-.84,1.93-1.42.28-1.67.77-3,2.35-3.85a15.52,15.52,0,0,0,2.72-1.7c.81-.67,1.83-1.41,2.11-2.32.6-1.92,2.72-4.36,4.69-4.62a2.49,2.49,0,0,0,2.42-2.57c.17-1.65,2.74-4.25,4.37-4.41a2.53,2.53,0,0,0,2.63-2.59c.16-1.65,2.73-4.25,4.37-4.4a2.53,2.53,0,0,0,2.62-2.6c.16-1.65,2.74-4.24,4.38-4.4a2.53,2.53,0,0,0,2.62-2.6c.16-1.66,2.73-4.23,4.38-4.39a2.56,2.56,0,0,0,2.62-2.62c.16-1.65,2.73-4.22,4.39-4.38a2.54,2.54,0,0,0,2.6-2.62c.16-1.64,2.75-4.22,4.4-4.38s2.09-1.13,2.69-2.57a10.25,10.25,0,0,1,3.5-4.25c1.43-1,2.79.08,2.92,1.93.06.89,0,1.79,0,2.69l.85,0V166.2l.79,0c0,.8.11,1.61.11,2.41,0,14.93,0,29.86.05,44.79a9.43,9.43,0,0,0,.83,2.65v41.51l-.87,0c0-1.16.05-2.33,0-3.5-.28-5-.56-10.07-.92-15.1,0-.57-.55-1.54-.89-1.57-1.85-.13-3.83-.39-5.52.16-.76.25-1.22,2.23-1.35,3.47-.25,2.52-.48,2.92-3,3-3.54.09-4,.55-4.09,4.06-.06,2.51-.43,2.88-3,2.94-3.49.08-3.94.54-4,4.11-.06,2.45-.45,2.83-3,2.88-3.39.08-3.92.6-4,3.95-.06,2.65-.4,3-3.06,3.05-3.34.07-3.86.6-3.94,4-.06,2.6-.4,2.94-3.11,3-3.23.07-3.81.64-3.88,3.83-.07,2.81-.35,3.1-3.17,3.16-3.18.07-3.79.69-3.83,3.89,0,.65.05,1.31,0,2-.14,1.51.49,2.16,2,2a8.81,8.81,0,0,1,1.8.26l-1.55,1.26,3.47.41a38.87,38.87,0,0,1-9,1.5c-9.46.14-18.93,0-28.39.09a8.66,8.66,0,0,0-2.48.77Z"/><path class="b7e284d1-a523-428a-a96e-3e298d4d6167" d="M8.25,104.53a6.68,6.68,0,0,1,.76,2c.09,3,0,6,.05,9,0,2.8.86,3.52,3.54,3.08,3.42-.57,3.57-.55,3.91-3.87.24-2.44,1.62-3.19,3.71-3.18,2.29,0,3.19-1.08,3.32-3.34.17-3,.68-3.47,3.64-3.63,2.27-.13,3.23-1.06,3.35-3.34.17-3,.66-3.49,3.62-3.66,2.24-.13,3.25-1,3.38-3.3.17-3.07.65-3.52,3.8-3.71,2.19-.13,3.05-1.11,3.19-3.25.19-3.13.61-3.55,3.78-3.74,2.17-.14,3.08-1.07,3.21-3.23.19-3.16.61-3.57,3.75-3.77,2.15-.13,3.11-1,3.24-3.19.2-3.16.63-3.61,3.73-3.8,2.13-.13,3.13-1,3.27-3.17.2-3.21.63-3.62,3.91-3.84,2.07-.14,2.94-1.07,3.08-3.12.23-3.34.53-3.65,3.88-3.87,2.06-.14,3-1,3.11-3.1.23-3.31.59-3.68,3.86-3.9,2-.13,3-1,3.14-3.06.22-3.31.61-3.73,3.82-3.93,2.19-.13,3-1.11,3.19-3.26.19-3.13.61-3.54,3.78-3.73,2.17-.14,3.08-1.07,3.21-3.23.19-3.16.61-3.62,3.75-3.76,2.34-.1,3.26-1.08,3.24-3.35,0-2.09.77-3.45,3.21-3.69,3.32-.31,4.87-3,4-6.42-.13-.48-.32-.94-.64-1.9,2.17,0,4.09.08,6,0a9,9,0,0,0,2.27-.77H149a6.71,6.71,0,0,1-2,.77c-3.35.08-6.7,0-10,0-.66,0-1.33.1-2,.16l-.05.94c1.7.22,3.41.37,5.09.69.54.1,1.35.58,1.4,1a1.89,1.89,0,0,1-.91,1.48c-2,.95-2.65,3.77-5.3,3.81-.16,0-.43.46-.43.71a2.88,2.88,0,0,1-2.32,3c-.37.11-.48.92-.86,1.17a25.2,25.2,0,0,0-5.5,5.41c-1.32,1.6-2.63,3.45-5,3.87-.23,0-.26.93-.49,1.36a9,9,0,0,1-1.13,1.72,8,8,0,0,1-2,2c-2.1,1.2-3.39,3.09-5,4.77-1.37,1.44-2.5,3.91-5.12,4-.14,0-.35.31-.38.5-.27,1.62-1.56,2.3-2.58,3.36-1.2,1.25-2.13,2.53-3.88,3a1.21,1.21,0,0,0-.63.84c-.27,1.46-1.39,2.07-2.33,3-1.3,1.33-2.4,2.66-4.21,3.28-.26.09-.49.57-.54.9-.21,1.34-1.24,1.84-2.1,2.69-1.35,1.34-2.43,2.84-4.37,3.43-.29.09-.36.76-.63,1.09-.61.78-1.34,1.48-1.91,2.28a10,10,0,0,1-4.61,3.79c-.24.1-.26.67-.48,1-.62.77-1.32,1.48-1.93,2.27a3.65,3.65,0,0,0-1,1.71c0,.35.84.81,1.38,1.11a13.71,13.71,0,0,0,1.73.65c-6.16,1.2-6.89,6.17-5.41,8.77l-2.57.74a9.36,9.36,0,0,1-1.88-1.44c-1-1.26-1.59-2-2.34.26-.36,1.07-1,2.52-2.95,2.11-1.55-.32-2.07.89-2.14,2.34-.15,3.1-.22,3.13-2.72,1.93-1.16,1-2.5,1.79-3.26,3a8.34,8.34,0,0,1-4.3,3.52c-.26.09-.46.58-.51.92a2.59,2.59,0,0,1-2.06,2.48c-.43.1-.69.85-1.08,1.25-1.74,1.78-4.13,2.89-5.17,5.41a4.41,4.41,0,0,1-2,2,11.49,11.49,0,0,0-5,5c-.07.13-.45.07-.6.2-.42.37-.77.82-1.2,1.19-.69.62-1.4,1.22-2.13,1.79-.45.35-1.26.52-1.39.93-.51,1.65-1.73,2.54-2.87,3.71s-1.95,2.27-3.55,2.74c-.42.13-.65.89-1,1.34-1.31,1.65-2.4,4.34-4,4.71-3.23.73-3.62,3.82-5.51,5.52a6.67,6.67,0,0,1-4.91,2ZM71,91.13l.87-.26-1.08-4.06c-.62.21-1.55.23-1.81.66C67.41,89.93,70.74,89.6,71,91.13Z"/><path class="bc0a24b7-c88e-43fc-a086-a105b72d53ee" d="M232,11.47c9.17,0,18.36-.29,27.53,0,12.53.43,24.59,10.62,27.47,22.71a9.24,9.24,0,0,1,.12,1.3c-.3,3.53-.68,7.05-.88,10.59-.14,2.39,0,4.8,0,7.2a8.67,8.67,0,0,1-.27,1.42l-.76-.06V39.4l-.7,0c0,3.62,0,7.24,0,10.86a7.42,7.42,0,0,1-.84,2.21V41.58h-.87V52.5a7.17,7.17,0,0,1-.84-2c-.13-1.51.07-3.06-.1-4.57a2.55,2.55,0,0,0-1.09-1.88,2.41,2.41,0,0,0-2.06.58c-2.54,2.4-4.95,4.93-7.45,7.37-1.33,1.3-2.83,2.42-4.12,3.76-2.86,3-5.59,6.05-8.47,9s-5.68,5.63-8.56,8.4c-1.28,1.24-2.73,2.32-4,3.6-2.86,3-5.63,6-8.47,9-1,1-2.15,1.92-3.08,3a29,29,0,0,0-4.14,5.38c-.64,1.28-1.14,2.08-2.56,2.14-4-2.68-7.91-5.37-11.9-8-2.21-1.47-4.49-2.84-6.74-4.26l.81-.24c-1.11-1.31-2-3.11-3.38-3.8-1.85-.9-2.19-1.44-1-2.35a43.34,43.34,0,0,1-.7-5c-.09-3.26.24-3.53,3.4-3.55,3.55,0,3.55,0,3.57-3.65,0-3,.31-3.33,3.41-3.34,3.56,0,3.56,0,3.58-3.64,0-3,.32-3.34,3.41-3.36,3.57,0,3.57,0,3.59-3.62,0-3.06.32-3.36,3.39-3.38,3.58,0,3.58,0,3.6-3.61,0-.36,0-.72,0-1.09a2,2,0,0,1,2.28-2.28,16.19,16.19,0,0,1,2,0c2.08.24,2.82-.63,2.78-2.74-.09-4.22,0-4.23,4.2-4.27.29,0,.58,0,.87,0,1.26,0,1.91-.55,1.88-1.83,0-.66,0-1.31,0-2,0-2.8.39-3.17,3.14-3.19.51,0,1,0,1.53,0,1.66.14,2.48-.54,2.34-2.27a16.82,16.82,0,0,1,0-1.74c0-2.52.45-3,2.91-3,4.38,0,4.09.14,4.09-4.22,0-.15,0-.29,0-.44,0-3-.19-3.21-3.23-3.21-7.71,0-15.43,0-23.14,0A9,9,0,0,1,232,11.47Zm-5.36,80.3.49,1,2.57-.79-.91-1.79Z"/><path class="a9f70375-daa4-4ee1-ba5a-e9e364753777" d="M232,11.47a9,9,0,0,0,2.48.77c7.71.06,15.43,0,23.14,0,3,0,3.23.21,3.23,3.21,0,.15,0,.29,0,.44,0,4.36.29,4.24-4.09,4.22-2.46,0-2.87.46-2.91,3a16.82,16.82,0,0,0,0,1.74c.14,1.73-.68,2.41-2.34,2.27-.51,0-1,0-1.53,0-2.75,0-3.11.39-3.14,3.19,0,.66,0,1.31,0,2,0,1.28-.62,1.86-1.88,1.83-.29,0-.58,0-.87,0-4.2,0-4.29,0-4.2,4.27,0,2.11-.7,3-2.78,2.74a16.19,16.19,0,0,0-2,0,2,2,0,0,0-2.28,2.28c0,.37,0,.73,0,1.09,0,3.6,0,3.6-3.6,3.61-3.07,0-3.38.32-3.39,3.38,0,3.6,0,3.6-3.59,3.62-3.09,0-3.39.31-3.41,3.36,0,3.62,0,3.62-3.58,3.64-3.1,0-3.4.31-3.41,3.34,0,3.64,0,3.64-3.57,3.65-3.16,0-3.49.29-3.4,3.55a43.34,43.34,0,0,0,.7,5c-1.21.91-.87,1.45,1,2.35,1.41.69,2.27,2.49,3.38,3.8l-.81.24q-4.38-2.46-8.77-4.94c-7.71-4.39-15.43-8.76-23.12-13.2-3-1.73-5.92-3.6-8.87-5.41.77-2.11-1.3-1.48-2.11-2.16l.57-2.32c1.38,0,2.69.06,4,0,.61,0,1.73-.37,1.72-.54-.07-2.75,2-3.81,3.55-5.55s4.27-2.43,4.31-5.28c0-.14.66-.21,1-.41a25.1,25.1,0,0,0,2.09-1.6c.69-.6,1.32-1.27,2-1.91.46-.43,1.26-.81,1.32-1.3.2-1.45.76-2.26,2.31-2.32.35,0,.73-.44,1-.73a16.1,16.1,0,0,0,2.91-3c1-1.69,1.9-3.32,3.87-4,.09,0,.08-.3.17-.39.88-.89,1.77-1.78,2.67-2.65.35-.34,1-.62,1.06-1A2.21,2.21,0,0,1,203.17,23c.34,0,.6-.73.94-1.08.87-.9,1.77-1.78,2.67-2.65.35-.34,1-.62,1.05-1A2.22,2.22,0,0,1,210.17,16c.34,0,.56-.78.94-1.07a16.54,16.54,0,0,1,2.67-1.78c1.38-.67,2.84-1.15,4.26-1.71h1.32a3,3,0,0,0,4.37,0Z"/><path class="fcca91fd-3883-4363-a653-7eb27caa4f8f" d="M73.39,92c-1.48-2.6-.75-7.57,5.41-8.77a13.71,13.71,0,0,1-1.73-.65c-.54-.3-1.39-.76-1.38-1.11a3.65,3.65,0,0,1,1-1.71c.61-.79,1.31-1.5,1.93-2.27.22-.28.24-.85.48-1a10,10,0,0,0,4.61-3.79c.57-.8,1.3-1.5,1.91-2.28.27-.33.34-1,.63-1.09,1.94-.59,3-2.09,4.37-3.43.86-.85,1.89-1.35,2.1-2.69,0-.33.28-.81.54-.9,1.81-.62,2.91-2,4.21-3.28.94-1,2.06-1.57,2.33-3a1.21,1.21,0,0,1,.63-.84c1.75-.48,2.68-1.76,3.88-3,1-1.06,2.31-1.74,2.58-3.36,0-.19.24-.5.38-.5,2.62-.13,3.75-2.6,5.12-4,1.59-1.68,2.88-3.57,5-4.77a8,8,0,0,0,2-2,9,9,0,0,0,1.13-1.72c.23-.43.26-1.32.49-1.36,2.36-.42,3.67-2.27,5-3.87a25.2,25.2,0,0,1,5.5-5.41c.38-.25.49-1.06.86-1.17a2.88,2.88,0,0,0,2.32-3c0-.25.27-.71.43-.71,2.65,0,3.29-2.86,5.3-3.81a1.89,1.89,0,0,0,.91-1.48c-.05-.4-.86-.88-1.4-1-1.68-.32-3.39-.47-5.09-.69l.05-.94c.67-.06,1.34-.16,2-.16,3.35,0,6.7,0,10,0a6.71,6.71,0,0,0,2-.77h14c.57,2.22,2.37,1.11,3.6,1.19,3.07.19,3.41.5,3.39,4.15,0,3-.32,3.32-3.43,3.33-3.54,0-3.54,0-3.56,3.64,0,3-.32,3.34-3.41,3.36-3.57,0-3.57,0-3.59,3.61,0,.36,0,.73,0,1.09a2,2,0,0,1-2.28,2.29,18.31,18.31,0,0,1-2,0c-2.07-.23-2.83.61-2.79,2.73.09,4.24,0,4.24-4.18,4.28h-.65c-1.45-.09-2.09.52-2.15,2-.09,2.47-.36,4.93-.59,7.81-1.82-.29-3.28-.55-4.74-.72a5.42,5.42,0,0,0-1.47.23c.39.38.73,1,1.17,1.1,2.74.52,5.51.92,8.27,1.35a17.16,17.16,0,0,0-2.59.88c-5.66,3-11.32,6-16.92,9.14-8.28,4.61-16.49,9.34-24.78,14-1.2.67-2.71.78-4,1.4a20.23,20.23,0,0,0-2.93,2.18l-3.43,2L87.76,84a6.12,6.12,0,0,1-1.05-.1c-2.12-.59-2.71-.17-2.82,2-2.63,1.58-5.27,3.17-7.92,4.73C75.13,91.14,74.25,91.56,73.39,92ZM139.77,48.8l0-.38h-3.89l0,.38Z"/><path class="b7f15c0f-fad7-4d80-99c3-a7365b413989" d="M8.25,244V204.65c.53.57,1.34,1.06,1.53,1.72.67,2.43,2.54,1.84,4.1,1.69s1.24-1.69,1.28-2.78c.11-2.92,1.22-4.18,4.15-4.08,2.18.07,3-.64,2.9-2.87-.11-3,1.14-4.09,4.05-4.17s2.81-.08,2.9-3c.09-2.77,1.25-3.92,4.06-4s2.86-.08,2.94-3,1.22-3.95,4-4,2.87-.09,3-3.14c.09-2.46,1.23-3.69,3.53-3.85,3.2-.22,3-.25,3.56-3.53.18-1.16,1.19-2.79,2.16-3.08,1.54-.47,3.37,0,5.06.15.23,0,.39.85.54,1.31s.22.84.33,1.26l.55-.06c0-2.44-.09-4.89,0-7.32.21-4.39.53-8.78.91-13.17.05-.48.82-.91,1.25-1.37v11.94h.36v-5.81l0-21.37v-7.05q0-7,0-14v-1.32l.73-1.29c0,1.16-.13,2.32-.14,3.48q-.12,24.38-.25,48.73-.08,15.41-.17,30.8c-.29.2-.79.36-.84.61-.39,2.17-.76,4.36-1,6.56-.06.51.37,1.07.51,1.62a16.61,16.61,0,0,1,.23,1.72l-1.4-.81c-1.26.52-2.31.9-3.3,1.39a6.07,6.07,0,0,0-1.28,1.06,9.38,9.38,0,0,0-2,2c-1.17,2.13-3.09,3.39-4.76,5-1.45,1.38-3.89,2.51-4,5.12,0,.14-.31.35-.5.38-1.62.27-2.31,1.55-3.37,2.58-1.23,1.2-2.53,2.12-3,3.87a1.22,1.22,0,0,1-.83.64c-1.46.27-2.09,1.35-3,2.32-1.29,1.31-2.68,2.38-3.27,4.21a1,1,0,0,1-.7.48c-1.46.24-2.07,1.36-3,2.31-1.32,1.3-2.66,2.39-3.28,4.21a1.25,1.25,0,0,1-.89.55c-1.33.21-1.84,1.32-2.7,2.06a14,14,0,0,0-3.57,4.53c-.15.3-.81.3-1.15.55-.69.51-1.33,1.1-2,1.66s-1.07,1.24-1.54,1.2-1-.84-1.45-1.37S8.66,244.64,8.25,244Z"/><path class="fec7f23e-64f2-44f6-aeaa-adb6f5d23361" d="M68.08,11.47c.06,1.52.71,3.42,0,4.45-.78,1.19-2.44,1.73-2.51,3.63,0,.49-1.06,1.24-1.72,1.35-1.19.18-2,.45-2.45,1.72-.15.45-.85.69-1.22,1.1S59,24.85,59,25.49a2.67,2.67,0,0,1-2.69,2.58c-.58.07-1.12.71-1.62,1.16a14.19,14.19,0,0,0-1.42,1.48c-.47.56-1.17,1.13-1.27,1.77a2.65,2.65,0,0,1-2.68,2.58c-.58.07-1.12.71-1.62,1.16a10.53,10.53,0,0,0-1.42,1.49,5.54,5.54,0,0,0-1.29,2,2.71,2.71,0,0,1-2.44,2.36,5.52,5.52,0,0,0-1.92,1.36,9.09,9.09,0,0,0-1.34,1.29,5.57,5.57,0,0,0-1.3,2,2.7,2.7,0,0,1-2.43,2.37c-.71.14-1.31.85-1.93,1.35a9.61,9.61,0,0,0-1.33,1.3,16.53,16.53,0,0,0-1.34,2c-.36.6-.52,1.65-1,1.8a8.49,8.49,0,0,0-4.22,2.84c-.81,1-1.89,1.52-1.95,3A1.58,1.58,0,0,1,23,62.48a7.77,7.77,0,0,0-4.23,2.82c-.79,1-1.93,1.5-1.94,3,0,.32-.28.88-.49.91-2.35.36-3.61,2.38-5.46,3.5a3.12,3.12,0,0,0-1.28,2.1C9.27,78,9.23,81.16,9,84.34a6.07,6.07,0,0,1-.77,1.82c0-15.51-.3-31,.08-46.54.32-13.43,12-25.73,25.48-27.73a44.3,44.3,0,0,1,6.3-.47C49.43,11.39,58.75,11.45,68.08,11.47Z"/><path class="bc1a3261-2fe6-4810-a1d0-470aba0573bb" d="M18.7,283.41l-2.85-2.89c1.87-1.47,3.57-2.16,4.91.71.24.52,1.29.66,2,1l.48-.64a25,25,0,0,1-2.62-2.41,3.43,3.43,0,0,1-.93-2.15c0-.54.9-1,1.41-1.53s1.33-.89,1.38-1.4c.18-1.81,1.22-2.24,2.78-2.76,1.1-.37,1.83-1.84,2.73-2.82.53-.58,1.42-1.09,1.54-1.75a2.54,2.54,0,0,1,2.44-2.31c.6-.1,1.08-.93,1.59-1.45,1.54-1.57,3.3-3,4.1-5.15.09-.25,1-.12,1.41-.38a5.6,5.6,0,0,0,1.46-1.37c1.3-1.76,3.44-2.86,4-5.19,0-.18.71-.14,1-.35.72-.55,1.35-1.22,2.07-1.77a12.36,12.36,0,0,0,4-4.94c.07-.17.53-.22.81-.25,1.21-.1,1.56-1.09,2.28-1.8a15.36,15.36,0,0,0,3.83-4.88c.09-.22.72-.15,1-.35.72-.55,1.34-1.23,2.06-1.78a12.53,12.53,0,0,0,4-4.93c.09-.21.73-.1,1-.3a20.32,20.32,0,0,0,1.92-1.67c1.53-1.49,3.26-2.81,4-5,.09-.26,1-.16,1.39-.41a10,10,0,0,0,1.55-1.3c.61-.56,1.19-1.15,1.81-1.71,1-.88,2-1.75,2.94-2.62l-3-1.72.5-.93c3.27,1.87,6.56,3.68,9.79,5.6s6.26,3.88,9.38,5.83c1.15,2.24,1.14,2.19-1.4,2.65-1.33.23-2.41.75-2.55,2.44-.42,5-.53,5-5.42,6.32a2.49,2.49,0,0,0-1.51,1.66c-.34,3.34-2.15,4.92-5.38,5.35A2.56,2.56,0,0,0,79,245.83c-.44,3.16-2,4.86-5.26,5.22a2.5,2.5,0,0,0-1.71,1.66c-.37,3.33-2.15,4.92-5.39,5.35a2.56,2.56,0,0,0-1.63,1.76c-.43,3.16-2,4.85-5.26,5.22a2.5,2.5,0,0,0-1.71,1.66c-.37,3.32-2.14,4.93-5.39,5.35a2.54,2.54,0,0,0-1.63,1.75c-.43,3.17-2,4.89-5.26,5.2a2.29,2.29,0,0,0-1.64,1.05c-1.48,3.49-1.25,4.26,1.55,6.6,0,0,0,.13.07.2-2.25,0-4.51-.06-6.75,0a6.54,6.54,0,0,0-2,.83c-1.39.26-3.25,1.21-4.09.65-3.15-2.11-6.8-.54-10-1.81l0-.05-1-.57-.12,0,0-.12c.32-.74.64-1.48,1-2.31l-3.41.47.11,0h-.11Zm75-56.58-.23-.33-.31.38c.1.08.2.22.3.22S93.59,226.93,93.67,226.83Z"/><path class="adceb9de-ed0d-4d1b-870d-efb4e50ddb8d" d="M61.08,147.37c-.43.46-1.2.89-1.25,1.37-.38,4.39-.7,8.78-.91,13.17-.12,2.43,0,4.88,0,7.32l-.55.06c-.11-.42-.19-.85-.33-1.26s-.31-1.28-.54-1.31c-1.69-.19-3.52-.62-5.06-.15-1,.29-2,1.92-2.16,3.08-.52,3.28-.36,3.31-3.56,3.53-2.3.16-3.44,1.39-3.53,3.85-.12,3.05-.12,3.05-3,3.14s-3.93,1.23-4,4-.08,2.88-2.94,3-4,1.23-4.06,4c-.09,2.92-.09,2.92-2.9,3s-4.16,1.21-4.05,4.17c.09,2.23-.72,2.94-2.9,2.87-2.93-.1-4,1.16-4.15,4.08,0,1.09.43,2.61-1.28,2.78s-3.43.74-4.1-1.69c-.19-.66-1-1.15-1.53-1.72v-37.6c2.33.4,1.6,2.24,1.66,3.65.11,2.44.57,2.94,3,2.91s2.69-.53,2.71-3.4c0-3.32.27-3.58,3.39-3.6,3.38,0,3.58-.22,3.61-3.59,0-3.09.3-3.38,3.36-3.4,3.41,0,3.61-.23,3.63-3.57,0-3.12.3-3.41,3.34-3.43,3.48,0,3.63-.17,3.66-3.76,0-2.89.35-3.21,3.31-3.23,3.5,0,3.65-.18,3.68-3.75,0-.36,0-.72,0-1.09a2,2,0,0,1,2.19-2.15c.73,0,1.46,0,2.19,0,1.84.08,2.59-.79,2.63-2.62.09-4.39.14-4.39,4.56-4.37a8.42,8.42,0,0,0,.87,0c1.55-.17,2.08.58,2,2.05s0,3,0,4.51h.7c.35-3.83.82-7.66,1-11.5.18-3.48,0-7,.05-10.48a11.69,11.69,0,0,1,.23-1.65l.63.06c0,2.74,0,5.48,0,8.22a7.94,7.94,0,0,0,.8,2.24q0,3.53,0,7.05a15,15,0,0,0-.37,2.28C61.06,138.73,61.08,143.05,61.08,147.37Z"/><path class="b43375ca-26e2-4a21-acf3-fd38c2bd210e" d="M198.81,291.16a8.66,8.66,0,0,1,2.48-.77c9.46-.06,18.93.05,28.39-.09a38.87,38.87,0,0,0,9-1.5l-3.47-.41,1.55-1.26a8.81,8.81,0,0,0-1.8-.26c-1.53.12-2.16-.53-2-2,.06-.65,0-1.31,0-2,0-3.2.65-3.82,3.83-3.89,2.82-.06,3.1-.35,3.17-3.16.07-3.19.65-3.76,3.88-3.83,2.71-.06,3.05-.4,3.11-3,.08-3.4.6-3.93,3.94-4,2.66-.06,3-.4,3.06-3.05.07-3.35.6-3.87,4-3.95,2.55-.05,2.94-.43,3-2.88.1-3.57.55-4,4-4.11,2.53-.06,2.9-.43,3-2.94.09-3.51.55-4,4.09-4.06,2.48-.06,2.71-.46,3-3,.13-1.24.59-3.22,1.35-3.47,1.69-.55,3.67-.29,5.52-.16.34,0,.85,1,.89,1.57.36,5,.64,10.07.92,15.1.06,1.17,0,2.34,0,3.5l.87,0V216h0a7.68,7.68,0,0,1,.84,2.42c.06,10,0,19.93.05,29.9,0,.74.07,1.48.11,2.21l.62,0c0-.73.13-1.46.13-2.19q0-8,0-15.93c0-1.31.08-2.52,1.68-2.88,0,11.28.35,22.57-.07,33.84-.48,13-12,25.29-24.91,27.3a36.31,36.31,0,0,1-5.2.49q-28.81,0-57.64,0C199.68,291.23,199.24,291.18,198.81,291.16Z"/><path class="adceb9de-ed0d-4d1b-870d-efb4e50ddb8d" d="M144.58,52.93c-2.76-.43-5.53-.83-8.27-1.35-.44-.08-.78-.72-1.17-1.1a5.42,5.42,0,0,1,1.47-.23c1.46.17,2.92.43,4.74.72.23-2.88.5-5.34.59-7.81.06-1.51.7-2.12,2.15-2h.65c4.18,0,4.27,0,4.18-4.28,0-2.12.72-3,2.79-2.73a18.31,18.31,0,0,0,2,0A2,2,0,0,0,156,31.84c0-.36,0-.73,0-1.09,0-3.6,0-3.6,3.59-3.61,3.09,0,3.39-.32,3.41-3.36,0-3.62,0-3.62,3.56-3.64,3.11,0,3.42-.31,3.43-3.33,0-3.65-.32-4-3.39-4.15-1.23-.08-3,1-3.6-1.19q19.92,0,39.84-.07c5.08,0,10.16,0,15.24.07-1.42.56-2.88,1-4.26,1.71A16.54,16.54,0,0,0,211.11,15c-.38.29-.6,1-.94,1.07a2.22,2.22,0,0,0-2.34,2.31c0,.34-.7.62-1.05,1-.9.87-1.8,1.75-2.67,2.65-.34.35-.6,1.05-.94,1.08a2.21,2.21,0,0,0-2.33,2.31c0,.34-.71.62-1.06,1-.9.87-1.79,1.76-2.67,2.65-.09.09-.08.35-.17.39-2,.68-2.87,2.31-3.87,4a16.1,16.1,0,0,1-2.91,3c-.3.29-.68.72-1,.73-1.55.06-2.11.87-2.31,2.32-.06.49-.86.87-1.32,1.3-.66.64-1.29,1.31-2,1.91a25.1,25.1,0,0,1-2.09,1.6c-.29.2-.94.27-1,.41,0,2.85-2.85,3.68-4.31,5.28s-3.62,2.8-3.55,5.55c0,.17-1.11.5-1.72.54-1.3.08-2.61,0-4,0l-.57,2.32c.81.68,2.88,0,2.11,2.16-2.63-1.32-5.3-2.54-7.86-4C155.59,53.72,150.51,51.46,144.58,52.93Z"/><path class="fcca91fd-3883-4363-a653-7eb27caa4f8f" d="M61.48,125.07a7.94,7.94,0,0,1-.8-2.24c-.09-2.74,0-5.48,0-8.22l-.63-.06a11.69,11.69,0,0,0-.23,1.65c0,3.5.13,7-.05,10.48-.19,3.84-.66,7.67-1,11.5H58c0-1.5-.06-3,0-4.51s-.45-2.22-2-2.05a8.42,8.42,0,0,1-.87,0c-4.42,0-4.47,0-4.56,4.37,0,1.83-.79,2.7-2.63,2.62-.73,0-1.46,0-2.19,0a2,2,0,0,0-2.19,2.15c0,.37,0,.73,0,1.09,0,3.57-.18,3.72-3.68,3.75-3,0-3.29.34-3.31,3.23,0,3.59-.18,3.74-3.66,3.76-3,0-3.32.31-3.34,3.43,0,3.34-.22,3.54-3.63,3.57-3.06,0-3.34.31-3.36,3.4,0,3.37-.23,3.57-3.61,3.59-3.12,0-3.37.28-3.39,3.6,0,2.87-.41,3.36-2.71,3.4s-2.88-.47-3-2.91c-.06-1.41.67-3.25-1.66-3.65V145.63a6.67,6.67,0,0,0,4.91-2c1.89-1.7,2.28-4.79,5.51-5.52,1.62-.37,2.71-3.06,4-4.71.35-.45.58-1.21,1-1.34,1.6-.47,2.44-1.61,3.55-2.74s2.36-2.06,2.87-3.71c.13-.41.94-.58,1.39-.93.73-.57,1.44-1.17,2.13-1.79.43-.37.78-.82,1.2-1.19.15-.13.53-.07.6-.2a11.49,11.49,0,0,1,5-5,4.41,4.41,0,0,0,2-2c1-2.52,3.43-3.63,5.17-5.41.39-.4.65-1.15,1.08-1.25a2.59,2.59,0,0,0,2.06-2.48c.05-.34.25-.83.51-.92a8.34,8.34,0,0,0,4.3-3.52c.76-1.16,2.1-1.93,3.26-3,2.5,1.2,2.57,1.17,2.72-1.93.07-1.45.59-2.66,2.14-2.34,2,.41,2.59-1,2.95-2.11.75-2.23,1.33-1.52,2.34-.26a9.36,9.36,0,0,0,1.88,1.44A18.7,18.7,0,0,1,68.62,96c-3.53,3.46-6.05,7.38-6.39,12.45l-.73,1.29-1,.82,1,.5Q61.47,118.08,61.48,125.07Zm-.84-23.6-2.32-.4,1.73,6.68.38,0,.22-1c.89-1,1.26-4.89.54-5.73Z"/><path class="ac016177-4aae-43bc-b3c0-0f280c7be5f7" d="M8.25,244c.41.64.77,1.31,1.24,1.91s.93,1.33,1.45,1.37,1-.77,1.54-1.2,1.3-1.15,2-1.66c.34-.25,1-.25,1.15-.55a14,14,0,0,1,3.57-4.53c.86-.74,1.37-1.85,2.7-2.06a1.25,1.25,0,0,0,.89-.55c.62-1.82,2-2.91,3.28-4.21,1-1,1.57-2.07,3-2.31a1,1,0,0,0,.7-.48c.59-1.83,2-2.9,3.27-4.21.95-1,1.58-2.05,3-2.32a1.22,1.22,0,0,0,.83-.64c.47-1.75,1.77-2.67,3-3.87,1.06-1,1.75-2.31,3.37-2.58.19,0,.49-.24.5-.38.14-2.61,2.58-3.74,4-5.12,1.67-1.59,3.59-2.85,4.76-5a9.38,9.38,0,0,1,2-2,6.07,6.07,0,0,1,1.28-1.06c1-.49,2-.87,3.3-1.39l1.4.81a16.61,16.61,0,0,0-.23-1.72c-.14-.55-.57-1.11-.51-1.62.25-2.2.62-4.39,1-6.56.05-.25.55-.41.84-.61l.78,5.14L61.84,202l3.48-.38.13,0,0,.14L65,202.9l.87.88h0a6.13,6.13,0,0,1,.36,1.79c-.21,2.4-.65,4.79-.76,7.2-.15,3.15-.57,3.66-3.72,3.69s-3.29,0-3.31,3.25-.54,3.72-3.64,3.74c-3.33,0-3.33,0-3.36,3.42,0,3-.58,3.55-3.58,3.58-3.38,0-3.38,0-3.41,3.37,0,3-.57,3.59-3.54,3.62-3.42,0-3.42,0-3.46,3.54,0,2.79-.61,3.41-3.26,3.46-3.67.07-3.67.07-3.74,3.7,0,2.67-.65,3.26-3.42,3.3-3.51,0-3.51,0-3.57,3.65,0,2.7-.65,3.3-3.38,3.34-.51,0-1,0-1.53,0-1.47-.09-2.33.61-2.05,2.06.54,2.82-2.13,5.41-.5,8.28a.89.89,0,0,1-.12.83c-1.71,1.14-.68,2.73-.73,4.14l-1.51-.65-.23,1.51h-.88l-3.42-7a35.39,35.39,0,0,1-.88-5.34C8.15,256.18,8.23,250.09,8.25,244Z"/><path class="e731dd20-4502-40df-9082-48391919c4ac" d="M15.17,273.74c.05-1.41-1-3,.73-4.14a.89.89,0,0,0,.12-.83c-1.63-2.87,1-5.46.5-8.28-.28-1.45.58-2.15,2.05-2.06.51,0,1,0,1.53,0,2.73,0,3.34-.64,3.38-3.34.06-3.61.06-3.61,3.57-3.65,2.77,0,3.38-.63,3.42-3.3.07-3.63.07-3.63,3.74-3.7,2.65-.05,3.23-.67,3.26-3.46,0-3.5,0-3.5,3.46-3.54,3,0,3.51-.58,3.54-3.62,0-3.34,0-3.34,3.41-3.37,3,0,3.55-.58,3.58-3.58,0-3.39,0-3.39,3.36-3.42,3.1,0,3.62-.55,3.64-3.74s0-3.23,3.31-3.25,3.57-.54,3.72-3.69c.11-2.41.55-4.8.76-7.2a6.13,6.13,0,0,0-.36-1.79l1-.08,6.17,5.56.4.57-.07-.09,3.87,4,.42.52.05,0c-.17.31-.33.62-.62,1.08A25.07,25.07,0,0,1,75,213.89a2.32,2.32,0,0,0-1.32-.14,1.37,1.37,0,0,0-.11.94c.43,1,2.52,1.34,3.59.61a20.36,20.36,0,0,1,3.09,1.57c-1,.87-2,1.74-2.94,2.62-.62.56-1.2,1.15-1.81,1.71a10,10,0,0,1-1.55,1.3c-.41.25-1.3.15-1.39.41-.75,2.16-2.48,3.48-4,5a20.32,20.32,0,0,1-1.92,1.67c-.27.2-.91.09-1,.3a12.53,12.53,0,0,1-4,4.93c-.72.55-1.34,1.23-2.06,1.78-.26.2-.89.13-1,.35a15.36,15.36,0,0,1-3.83,4.88c-.72.71-1.07,1.7-2.28,1.8-.28,0-.74.08-.81.25a12.36,12.36,0,0,1-4,4.94c-.72.55-1.35,1.22-2.07,1.77-.26.21-.93.17-1,.35-.59,2.33-2.73,3.43-4,5.19A5.6,5.6,0,0,1,39,257.46c-.4.26-1.32.13-1.41.38-.8,2.19-2.56,3.58-4.1,5.15-.51.52-1,1.35-1.59,1.45a2.54,2.54,0,0,0-2.44,2.31c-.12.66-1,1.17-1.54,1.75-.9,1-1.63,2.45-2.73,2.82-1.56.52-2.6.95-2.78,2.76-.05.51-.9.93-1.38,1.4s-1.38,1-1.41,1.53a3.43,3.43,0,0,0,.93,2.15,25,25,0,0,0,2.62,2.41l-.48.64c-.68-.32-1.73-.46-2-1-1.34-2.87-3-2.18-4.91-.71l0,0v-3.36l-1.24,1.92-1.15-1.56-.9-1.53,0-.06,0-1.29h.88l1.63,1.6Z"/><path class="a8755178-347e-493b-a6ea-87ef21858775" d="M283.63,52.5a7.42,7.42,0,0,0,.84-2.21c.08-3.62,0-7.24,0-10.86l.7,0V54.66l.76.06a8.67,8.67,0,0,0,.27-1.42c0-2.4-.1-4.81,0-7.2.2-3.54.58-7.06.88-10.59a25.71,25.71,0,0,1,.77,4.46c.05,14.23,0,28.46,0,42.69-1.19-.42-1.78-.1-1.69,1.26.07,1,0,2,0,3.06s-.15,1.79-.22,2.69l-.74-.06v-27h-.78v89.58h-.88V52.5Z"/><path class="ede21669-a690-4cd5-a5b2-6e7ef176e516" d="M284.51,132.07V62.58h.78v27l.74.06c.07-.9.18-1.79.22-2.69s.06-2,0-3.06c-.09-1.36.5-1.68,1.69-1.26q0,22.34.07,44.65c0,3.77-.05,7.55-.07,11.32a7.58,7.58,0,0,1-.76-2.25c-.09-3.46,0-6.92,0-10.38l-.78,0v12.66h-1c0-1.45.09-2.91,0-4.35A8.69,8.69,0,0,0,284.51,132.07Z"/><path class="b72a69a5-255a-42b8-9449-ac654db17046" d="M287.93,229.57c-1.6.36-1.68,1.57-1.68,2.88q0,8,0,15.93c0,.73-.09,1.46-.13,2.19l-.62,0c0-.73-.11-1.47-.11-2.21,0-10,0-19.93-.05-29.9a7.68,7.68,0,0,0-.84-2.42V154.84h.81v25.75l.8,0c.09-1.9.17-3.79.26-5.69l.58,0c.06.79.17,1.57.17,2.35,0,12.1,0,24.19,0,36.29a9.49,9.49,0,0,0,.76,2.49Q287.92,222.8,287.93,229.57Z"/><path class="a8755178-347e-493b-a6ea-87ef21858775" d="M23,286.56c3.17,1.27,6.82-.3,10,1.81.84.56,2.7-.39,4.09-.65h0a5.63,5.63,0,0,0,2,.84q11.56.09,23.13,0a5.75,5.75,0,0,0,2-.83H93a7.13,7.13,0,0,1-2.21.83c-5.3.07-10.6,0-15.9.05a17.32,17.32,0,0,0-2,.22l.06.53,4.77.25v.61c-.74,0-1.48.12-2.21.12-7.19,0-14.38,0-21.57,0a9.17,9.17,0,0,0-2.47.78c-6.68-.12-13.44.92-20-.9C28.52,289.44,25.8,287.82,23,286.56Zm4.73,1.24-.43.25a2,2,0,0,0,.36.4c.06,0,.33-.15.33-.18A3.67,3.67,0,0,0,27.71,287.8Z"/><path class="e21684de-12a1-4a47-bbda-f1b30ac0a452" d="M138.91,287.72h23.58l0,.75c-.8,0-1.6.12-2.4.12-9.74,0-19.48,0-29.22.05a16.47,16.47,0,0,0-3.53.79l.09.78c.75.05,1.49.13,2.24.13,7.63,0,15.26,0,22.9,0a9,9,0,0,1,2.47.77q-24.29,0-48.57.07c-4.07,0-8.13,0-12.2-.07.32-.25.6-.68,1-.74,2.17-.35,4.35-.75,6.55-.9,5.72-.37,11.46-.58,17.19-.94a9.55,9.55,0,0,0,2.42-.84Z"/><path class="e2d0d413-8585-4599-9518-f4dd5dabaebe" d="M121.42,287.73a9.55,9.55,0,0,1-2.42.84c-5.73.36-11.47.57-17.19.94-2.2.15-4.38.55-6.55.9-.35.06-.63.49-1,.74H51.46a9.17,9.17,0,0,1,2.47-.78c7.19-.06,14.38,0,21.57,0,.73,0,1.47-.08,2.21-.12v-.61l-4.77-.25-.06-.53a17.32,17.32,0,0,1,2-.22c5.3,0,10.6,0,15.9-.05a7.13,7.13,0,0,0,2.21-.83Z"/><path class="aac4a31b-71eb-4e0a-9fb7-bda5ff901693" d="M12.55,274.61l0,1.29-3.39-8.29Z"/><path class="a8755178-347e-493b-a6ea-87ef21858775" d="M19.34,284l3.41-.47c-.35.83-.67,1.57-1,2.31Z"/><path class="bc0a24b7-c88e-43fc-a086-a105b72d53ee" d="M223.73,11.47a3,3,0,0,1-4.37,0Z"/><path class="bc1a3261-2fe6-4810-a1d0-470aba0573bb" d="M14.59,279.05l1.24-1.92v3.36Z"/><path class="aac4a31b-71eb-4e0a-9fb7-bda5ff901693" d="M12.54,276l.9,1.53Z"/><path class="a8755178-347e-493b-a6ea-87ef21858775" d="M21.92,285.94l1,.57Z"/><path class="a8755178-347e-493b-a6ea-87ef21858775" d="M18.7,283.41l.64.61Z"/><path class="ede21669-a690-4cd5-a5b2-6e7ef176e516" d="M282.76,125.08v27.08l-.88,0c0-1.25,0-2.5,0-3.75,0-2.68-.14-2.8-2.88-2.79a9,9,0,0,0-2.6.2c-2,.59-2.08,2.28-1.93,3.92.21,2.19-.62,3-2.85,2.91-3.46-.12-4.22.67-4.13,4.25.06,2.13-.74,2.79-2.8,2.74-3.5-.1-4.29.69-4.19,4.19.05,2.07-.62,2.86-2.75,2.8-3.61-.09-4.32.64-4.25,4.36,0,2-.71,2.67-2.69,2.64-3.68-.07-4.4.62-4.3,4.29.06,2.19-.83,2.75-2.85,2.7-3.74-.09-3.26-.08-3.85-3.71-1.3-8-.49-15.92-.77-23.87a25.76,25.76,0,0,0,.83-4.18c.12-3.64,0-3.74,3.67-3.65,1.87,0,2.59-.48,2.53-2.45-.09-3.54,1-4.63,4.51-4.54,1.92,0,2.54-.58,2.49-2.5-.09-3.42,1-4.63,4.33-4.49,2.17.08,2.74-.71,2.66-2.76-.11-3.09,1.14-4.41,4.15-4.23,2.46.15,3.05-.86,2.83-3a3.26,3.26,0,0,1,2.28-3.78,8.24,8.24,0,0,1,2.81-.22c1.43.06,2-.55,1.89-1.94a10.23,10.23,0,0,1,0-1.75c.23-2.45,1.73-3.45,4.92-3.33,2.48.1,2.84.63,3,3.47a18.38,18.38,0,0,0,.84,3.52Z"/><path class="b32cf2fa-efa8-4009-bc70-4975d8dcdb26" d="M282.76,117.2a18.38,18.38,0,0,1-.84-3.52c-.13-2.84-.49-3.37-3-3.47-3.19-.12-4.69.88-4.92,3.33a10.23,10.23,0,0,0,0,1.75c.11,1.39-.46,2-1.89,1.94a8.24,8.24,0,0,0-2.81.22,3.26,3.26,0,0,0-2.28,3.78c.22,2.17-.37,3.18-2.83,3-3-.18-4.26,1.14-4.15,4.23.08,2-.49,2.84-2.66,2.76-3.29-.14-4.42,1.07-4.33,4.49.05,1.92-.57,2.55-2.49,2.5-3.51-.09-4.6,1-4.51,4.54.06,2-.66,2.49-2.53,2.45-3.62-.09-3.55,0-3.67,3.65a25.76,25.76,0,0,1-.83,4.18c0-3.91,0-7.81,0-11.72a13,13,0,0,0-.44-2.27q-.16-10.51-.34-21c0-1.15,0-2.29,0-3.44,0-.3,0-.6,0-.91,1.54-.58,3-1.55,4.62-1.66,3.63-.27,4.84-1.2,4.91-4.8,0-1.51.46-2.25,2.11-2.3,3.86-.12,4.71-1,4.88-5,.07-1.52.72-2,2.15-2,3.77-.12,4.77-1.1,4.84-4.78,0-1.57.6-2.19,2.2-2.22,3.7-.09,4.71-1.11,4.8-4.81,0-1.6.67-2.16,2.23-2.19,3.68-.07,4.66-1.07,4.76-4.85,0-1.63.74-2.13,2.28-2.15s3.16-.26,4.75-.41Z"/><path class="e0e37b8b-60d1-4482-9aec-637596f567c6" d="M238.23,113.7c0,.31,0,.61,0,.91,0,1.15,0,2.29,0,3.44q.17,10.52.34,21c0,17.34.06,34.67,0,52,0,11.24-5.57,19.25-15,24.89L191,235.47a3.22,3.22,0,0,0-.6.62l-14,8.31-4.81,3.06h0l-1.76.87-9.13,4.42a25,25,0,0,1-13.12.9l-3.48-.93h0L139.78,251l-6.19-3.83,1.45-.63h0l1.93.87c.7.2,1.4.38,2.09.61,4.37,1.43,8.8,3,13.4,1.64a49.06,49.06,0,0,0,10.66-4.4c19.29-11.38,38.47-22.94,57.66-34.49,9.21-5.54,13.65-13.9,13.65-24.51q0-33.54-.32-67.09c0-4.7.58-9.49-1.1-14.08a21.69,21.69,0,0,1-.65-2.7,7.94,7.94,0,0,1,1.86,1.24C236.68,106.53,237.61,110.06,238.23,113.7Z"/><path class="e21684de-12a1-4a47-bbda-f1b30ac0a452" d="M160.77,252.76l9.13-4.42,1.76-.87h0c1.78-.74,3.93-.91,4.81-3.06l14-8.31c2.14.76,3.45-.89,5.07-1.71a9.44,9.44,0,0,1,2.43-.48c-.24.76-.25,1.85-.77,2.2a9,9,0,0,1-3.37,1.25c-1.32.24-1.8,1.15-2.65,2-1.71,1.66-4.09,2.6-5.27,5-.08.18-1.68-.39-2.58-.62l-.36-.72-2.63,3.31c-.27.34-.5.79-.86,1-2.48,1.14-5,2.21-7.66,3.38a4.43,4.43,0,0,0,.65,1c1.48,1.3,1.05,2.13-.53,2.91a2.47,2.47,0,0,0-1.29,1.51c-.21,1.6-.81,2.47-2.55,2.62-.59.06-1.14.89-1.67,1.4s-.89.9-1.3,1.37c-.57.66-1.41,1.28-1.57,2a2.25,2.25,0,0,1-2,2.11c-.81.16-1.46,1.1-2.18,1.69a5.89,5.89,0,0,0-1.42,1.23,13.26,13.26,0,0,1-5.44,5.39,4,4,0,0,0-1.95,1.75,7.72,7.72,0,0,1-4.89,4.87c-.86.29-1.52,1.33-2.14,2.12-.4.52-1,1.58-.76,1.78a3.47,3.47,0,0,0,2.11,1.11c5.23.23,10.46.34,15.69.49.66,0,1.32.08,2,.12l0,.75h-35a11.79,11.79,0,0,0-2.22-.85c-2-.34-4.13-.51-6.18-.87a1.6,1.6,0,0,1-1.09-1.05c0-.36.6-.78.91-1.19.54-.69,1.38-1.34,1.51-2.1a2.41,2.41,0,0,1,2.38-2.32c.71-.1,1.36-.84,2-1.36a7.65,7.65,0,0,0,1.07-1.2c.57-.74,1.1-1.5,1.64-2.26s.85-1.82,1.4-1.91c1.57-.25,2.27-1.18,3.33-2.22,1.23-1.2,2.28-2.08,2.57-3.86.07-.46,1.25-.71,1.89-1.12a22.61,22.61,0,0,0,2.12-1.51c.37-.3.56-.93,1-1,1.39-.41,1.66-1.37,1.81-2.65,0-.48.76-1,1.3-1.29a5.36,5.36,0,0,1,1.73-.27c-.41-.5-.84-.5-1.18-.68a10.71,10.71,0,0,1-1.36-1c.47-.24,1-.77,1.39-.68a11.49,11.49,0,0,1,2.92,1.16c1.64.91,2.2.69,2.56-1.23,3.16-.3,6.34-.5,9.48-1C159.29,254.27,160,253.33,160.77,252.76Z"/><path class="aefb3583-6815-4eb3-b97b-70b04f7b0bd9" d="M127.54,286.85h11.37v.87H37a6.54,6.54,0,0,1,2-.83c2.24-.1,4.5,0,6.75,0h81.76Z"/><path class="aefb3583-6815-4eb3-b97b-70b04f7b0bd9" d="M282.76,117.2V41.58h.87v83.5h-.87Z"/><path class="e21684de-12a1-4a47-bbda-f1b30ac0a452" d="M190.57,243.79l-1.42.09,0-.53,1.43-.09Z"/><path class="e21684de-12a1-4a47-bbda-f1b30ac0a452" d="M176.38,251.54c-.3-.38-.58-.6-.55-.76s.31-.37.53-.46c.07,0,.38.24.38.36S176.57,251.11,176.38,251.54Z"/><path class="aea1f42c-5f4f-4768-b248-79e16136e2d5" d="M232.37,102.39a21.69,21.69,0,0,0,.65,2.7c1.68,4.59,1.06,9.38,1.1,14.08q.28,33.54.32,67.09c0,10.61-4.44,19-13.65,24.51-19.19,11.55-38.37,23.11-57.66,34.49a49.06,49.06,0,0,1-10.66,4.4c-4.6,1.41-9-.21-13.4-1.64-.69-.23-1.39-.41-2.09-.61l-1.93-.87h0a1.46,1.46,0,0,0-.28-.32L97,223.73q-11.77-7-23.57-14l.07.09-.4-.57-6.16-5.56c-.49-.64-1-1.29-1.45-1.93l0-.14-.13,0-.27-.44-.3-1-2.3-3.57-.78-5.14q.09-15.41.17-30.8.13-24.36.25-48.73c0-1.16.1-2.32.14-3.48.34-5.07,2.86-9,6.39-12.45a18.7,18.7,0,0,0,2.2-3.27L73.39,92c.86-.46,1.74-.88,2.58-1.38,2.65-1.56,5.29-3.15,7.92-4.73L87.76,84,90,82.47l3.43-2a20.23,20.23,0,0,1,2.93-2.18c1.24-.62,2.75-.73,4-1.4,8.29-4.61,16.5-9.34,24.78-14,5.6-3.12,11.26-6.13,16.92-9.14a17.16,17.16,0,0,1,2.59-.88c5.93-1.47,11,.79,16,3.57,2.56,1.43,5.23,2.65,7.86,4,3,1.81,5.87,3.68,8.87,5.41,7.69,4.44,15.41,8.81,23.12,13.2q4.38,2.49,8.77,4.94c2.25,1.42,4.53,2.79,6.74,4.26,4,2.64,7.94,5.33,11.9,8ZM128,228.18a.3.3,0,0,0,.34.14L131,230l14.44,7.09c2.62,1.84,3.79,1.85,5.23,0l8.76-3.76c3.34-2,6.7-4,10-6q22.56-13.59,45.1-27.21a16.62,16.62,0,0,0,6.94-7.26c1.61-3.57,1.69-7.33,1.68-11.11q-.14-31.34-.32-62.66c0-2.16-.25-4.32-.38-6.49-.08-3-.85-5.77-3.14-7.91l-.46-.69,0,0a34.84,34.84,0,0,0-4.07-3.55q-12-7.59-24-15c-5.75-3.54-11.57-7-17.35-10.43-6.7-3.93-13.31-8-20.14-11.71a10.61,10.61,0,0,0-9.72-.44c-3.55,1.67-7.15,3.28-10.51,5.28-15.54,9.27-31,18.66-46.52,28-1.42.86-2.81,1.8-4.3,2.54-6.6,3.28-9.42,8.68-9.4,15.91,0,14.57-.06,29.14-.07,43.71,0,9.55,0,19.09.1,28.63,0,3.66,1.07,7.05,4.25,9.37l3.54,3a5.84,5.84,0,0,0,.92.88c4.7,2.92,9.4,5.85,14.14,8.71,4,2.39,8,4.68,12,7h0l3.53,2.12,8.22,4.89,2.25,1.3Z"/><path class="fcca91fd-3883-4363-a653-7eb27caa4f8f" d="M71,91.13c-.21-1.53-3.54-1.2-2-3.66.26-.43,1.19-.45,1.81-.66l1.08,4.06Z"/><path class="b9249cba-c8f3-43c9-998f-a829682270d0" d="M232.37,102.39l-4.52-6.1c1.42-.06,1.92-.86,2.56-2.14a29,29,0,0,1,4.14-5.38c.93-1.09,2.1-2,3.08-3,2.84-3,5.61-6,8.47-9,1.24-1.28,2.69-2.36,4-3.6,2.88-2.77,5.77-5.54,8.56-8.4s5.61-6,8.47-9c1.29-1.34,2.79-2.46,4.12-3.76,2.5-2.44,4.91-5,7.45-7.37a2.41,2.41,0,0,1,2.06-.58,2.55,2.55,0,0,1,1.09,1.88c.17,1.51,0,3.06.1,4.57a7.17,7.17,0,0,0,.84,2v1.31c-.29.37-.8.73-.82,1.11q-.12,3,0,6.08c0,.38.53.75.82,1.12V76.54c-1.59.15-3.17.4-4.75.41s-2.23.52-2.28,2.15c-.1,3.78-1.08,4.78-4.76,4.85-1.56,0-2.19.59-2.23,2.19-.09,3.7-1.1,4.72-4.8,4.81-1.6,0-2.16.65-2.2,2.22-.07,3.68-1.07,4.66-4.84,4.78-1.43,0-2.08.52-2.15,2-.17,4-1,4.83-4.88,5-1.65,0-2.09.79-2.11,2.3-.07,3.6-1.28,4.53-4.91,4.8-1.58.11-3.08,1.08-4.62,1.66-.62-3.64-1.55-7.17-4-10.07A7.94,7.94,0,0,0,232.37,102.39Z"/><path class="b9249cba-c8f3-43c9-998f-a829682270d0" d="M226.68,91.77l2.15-1.53.91,1.79-2.57.79Z"/><path class="bafa3e65-172c-4056-b13b-5bd73441861d" d="M87.76,84l-3.87,1.92c.11-2.19.7-2.61,2.82-2A6.12,6.12,0,0,0,87.76,84Z"/><path class="adceb9de-ed0d-4d1b-870d-efb4e50ddb8d" d="M139.77,48.8h-3.88l0-.38h3.89Z"/><path class="bafa3e65-172c-4056-b13b-5bd73441861d" d="M93.41,80.48l-3.43,2Z"/><path class="fcca91fd-3883-4363-a653-7eb27caa4f8f" d="M61.08,147.37c0-4.32,0-8.64,0-13a15,15,0,0,1,.37-2.28l0,21.37h-.36Z"/><path class="adceb9de-ed0d-4d1b-870d-efb4e50ddb8d" d="M61.08,153.5h.36v5.81h-.36Z"/><path class="adceb9de-ed0d-4d1b-870d-efb4e50ddb8d" d="M61.49,111.09l-1-.5,1-.82C61.49,110.21,61.49,110.65,61.49,111.09Z"/><path class="b9249cba-c8f3-43c9-998f-a829682270d0" d="M92.12,286.85H45.78c0-.07,0-.16-.07-.2-2.8-2.34-3-3.11-1.55-6.6A2.29,2.29,0,0,1,45.8,279c3.22-.31,4.83-2,5.26-5.2a2.54,2.54,0,0,1,1.63-1.75c3.25-.42,5-2,5.39-5.35A2.5,2.5,0,0,1,59.79,265c3.22-.37,4.83-2.06,5.26-5.22a2.56,2.56,0,0,1,1.63-1.76c3.24-.43,5-2,5.39-5.35a2.5,2.5,0,0,1,1.71-1.66C77,250.69,78.6,249,79,245.83a2.56,2.56,0,0,1,1.63-1.76c3.23-.43,5-2,5.38-5.35a2.49,2.49,0,0,1,1.51-1.66c4.89-1.34,5-1.36,5.42-6.32.14-1.69,1.22-2.21,2.55-2.44,2.54-.46,2.55-.41,1.4-2.65l15.33,9.14a13.11,13.11,0,0,0,1.48,1.5c1,.75,2.41,1.22.67,2.72-.4.35-.24,1.34-.33,2l.49.16,2.57-2.39,2.32,1.72c-1,.7-1.68,1.18-2.36,1.68-1.86,1.39-3.72,2.66-3.75,5.45,0,2-1.69,2.77-3.51,2.86-2.11.11-3.12,1.09-3.32,3.23-.26,2.72-1,3.52-3.64,3.74-2.22.2-3.27,1.21-3.36,3.43a3.41,3.41,0,0,1-3.59,3.59c-2.22.09-3.31,1.12-3.4,3.36A3.39,3.39,0,0,1,89,271.5c-2.36.09-3.37,1.25-3.47,3.55-.08,1.88-1.08,3.32-3.05,3.36-2.92.06-3.84,1.58-4.09,4.24s.15,3.28,2.81,3.32c3,0,6,0,8.95,0A6.17,6.17,0,0,1,92.12,286.85Z"/><path class="b770b069-3299-4f71-81d9-1f0f6232c746" d="M112.26,234.79l-15.33-9.14c-3.12-2-6.22-3.94-9.38-5.83s-6.52-3.73-9.79-5.6l-.05,0-.42-.52-3.87-4q11.79,7,23.57,14l37.77,22.49a1.46,1.46,0,0,1,.28.32l-1.45.63c-1.21-.63-2.46-1.2-3.64-1.9Q121.09,240.05,112.26,234.79Z"/><path class="b9249cba-c8f3-43c9-998f-a829682270d0" d="M93.67,226.83c-.08.1-.16.27-.24.27s-.2-.14-.3-.22l.31-.38Z"/><path class="b7e284d1-a523-428a-a96e-3e298d4d6167" d="M60.65,106.71l-.22,1-.38,0-1.73-6.68,2.32.4C60.64,103.21,60.65,105,60.65,106.71Z"/><path class="bafa3e65-172c-4056-b13b-5bd73441861d" d="M60.65,106.71v-5.24l.55-.49C61.91,101.82,61.54,105.73,60.65,106.71Z"/><path class="b7f15c0f-fad7-4d80-99c3-a7365b413989" d="M62.45,196.63l2.3,3.57-.62.69.92.26.27.44-3.48.38Z"/><path class="aac4a31b-71eb-4e0a-9fb7-bda5ff901693" d="M15.17,273.74l-.11,2.46-1.63-1.6c.07-.47.14-.94.23-1.51Z"/><path class="b7f15c0f-fad7-4d80-99c3-a7365b413989" d="M65.48,201.77c.48.64,1,1.29,1.45,1.93l-1,.08h0L65,202.9Z"/><path class="e731dd20-4502-40df-9082-48391919c4ac" d="M65,202.9l.87.88Z"/><path class="bc1a3261-2fe6-4810-a1d0-470aba0573bb" d="M77,215.45c-1,.58-3,.23-3.47-.76a1.37,1.37,0,0,1,.11-.94,2.32,2.32,0,0,1,1.32.14A21.6,21.6,0,0,1,77,215.45Z"/><path class="b770b069-3299-4f71-81d9-1f0f6232c746" d="M73.09,209.26l.4.57Z"/><path class="bc1a3261-2fe6-4810-a1d0-470aba0573bb" d="M77.29,213.73l.42.52Z"/><path class="bc1a3261-2fe6-4810-a1d0-470aba0573bb" d="M37,287.72h27.1a5.75,5.75,0,0,1-2,.83q-11.57.09-23.13,0A5.63,5.63,0,0,1,37,287.72Z"/><path class="bc1a3261-2fe6-4810-a1d0-470aba0573bb" d="M27.71,287.8a3.67,3.67,0,0,1,.26.47s-.27.22-.33.18a2,2,0,0,1-.36-.4Z"/><path class="bf502a97-0b9c-49f9-9044-75625b7c4ab0" d="M238.23,118.05c0-1.15,0-2.29,0-3.44C238.22,115.76,238.23,116.9,238.23,118.05Z"/><path class="e2d0d413-8585-4599-9518-f4dd5dabaebe" d="M112.26,234.79Q121.1,240,130,245.27c1.18.7,2.43,1.27,3.64,1.9l6.19,3.83c.29,1.66.93,2.71,2.88,1.85a5,5,0,0,1,1.51-.12h0l3.49,1.76,1.31.87c-.36,1.92-.92,2.14-2.56,1.23a11.49,11.49,0,0,0-2.92-1.16c-.39-.09-.92.44-1.39.68a10.71,10.71,0,0,0,1.36,1c.34.18.77.18,1.18.68a5.36,5.36,0,0,0-1.73.27c-.54.27-1.25.81-1.3,1.29-.15,1.28-.42,2.24-1.81,2.65-.39.11-.58.74-1,1a22.61,22.61,0,0,1-2.12,1.51c-.64.41-1.82.66-1.89,1.12-.29,1.78-1.34,2.66-2.57,3.86-1.06,1-1.76,2-3.33,2.22-.55.09-.93,1.25-1.4,1.91s-1.07,1.52-1.64,2.26a7.65,7.65,0,0,1-1.07,1.2c-.62.52-1.27,1.26-2,1.36a2.41,2.41,0,0,0-2.38,2.32c-.13.76-1,1.41-1.51,2.1-.31.41-.94.83-.91,1.19a1.6,1.6,0,0,0,1.09,1.05c2,.36,4.13.53,6.18.87a11.79,11.79,0,0,1,2.22.85H92.12a6.17,6.17,0,0,0-2-.83c-3-.09-6,0-8.95,0-2.66,0-3-.76-2.81-3.32s1.17-4.18,4.09-4.24c2,0,3-1.48,3.05-3.36.1-2.3,1.11-3.46,3.47-3.55a3.39,3.39,0,0,0,3.55-3.62c.09-2.24,1.18-3.27,3.4-3.36a3.41,3.41,0,0,0,3.59-3.59c.09-2.22,1.14-3.23,3.36-3.43,2.63-.22,3.38-1,3.64-3.74.2-2.14,1.21-3.12,3.32-3.23,1.82-.09,3.48-.84,3.51-2.86,0-2.79,1.89-4.06,3.75-5.45.68-.5,1.37-1,2.36-1.68l-2.32-1.72-2.57,2.39-.49-.16c.09-.7-.07-1.69.33-2,1.74-1.5.29-2-.67-2.72A13.11,13.11,0,0,1,112.26,234.79Z"/><path class="b72a69a5-255a-42b8-9449-ac654db17046" d="M149,255.36l-1.31-.87v-.83a25,25,0,0,0,13.12-.9c-.77.57-1.48,1.51-2.32,1.64C155.31,254.86,152.13,255.06,149,255.36Z"/><path class="bf502a97-0b9c-49f9-9044-75625b7c4ab0" d="M144.17,252.73a5,5,0,0,0-1.51.12c-1.95.86-2.59-.19-2.88-1.85Z"/><path class="b72a69a5-255a-42b8-9449-ac654db17046" d="M176.48,244.4c-.88,2.15-3,2.32-4.81,3.06Z"/><path class="bf502a97-0b9c-49f9-9044-75625b7c4ab0" d="M147.65,253.66v.83l-3.49-1.76Z"/><path class="b72a69a5-255a-42b8-9449-ac654db17046" d="M171.66,247.47l-1.76.87Z"/><path class="b770b069-3299-4f71-81d9-1f0f6232c746" d="M135.05,246.54l1.93.87Z"/><path class="bc0a24b7-c88e-43fc-a086-a105b72d53ee" d="M282.76,62.12c-.29-.37-.8-.74-.82-1.12q-.12-3,0-6.08c0-.38.53-.74.82-1.11Z"/><path class="aefb3583-6815-4eb3-b97b-70b04f7b0bd9" d="M222.52,112.66c.13,2.17.37,4.33.38,6.49q.19,31.33.32,62.66c0,3.78-.07,7.54-1.68,11.11a16.62,16.62,0,0,1-6.94,7.26q-22.51,13.66-45.1,27.21c-3.34,2-6.7,4-10,6l-5.33-3.12c.14-.89.34-2.13.54-3.36,6.86,2,10.61-1.36,11.23-6.53a4,4,0,0,1,2.12-3.24c10.81-7,21.62-13.92,32.33-21a4.6,4.6,0,0,1,4.93-.66c3.57,1.44,7.88-.78,9.22-4.43a7.34,7.34,0,0,0-4-9.56l-.36-.79.09-6.61c1.51.13,2.06-.7,2.16-2.09a17.37,17.37,0,0,1,.4-2.57c.5-2.38,2.49-1.75,4-1.86,1.71-.12,1.65,1.2,1.71,2.41s.23,2.52.35,3.78l1-.09V146.07a5.68,5.68,0,0,0,.83-1.77c.12-1.44,0-2.9,0-4.35.29.44.82.88.82,1.33,0,1.81-.2,3.61-.2,5.42,0,1.27.19,2.53.3,3.79l.79-.07V118.05Zm-.29,40.43h-.44v5.2h.44Z"/><path class="e0e37b8b-60d1-4482-9aec-637596f567c6" d="M77.19,196.41C74,194.09,73,190.7,72.94,187c-.12-9.54-.11-19.08-.1-28.63,0-14.57.11-29.14.07-43.71,0-7.23,2.8-12.63,9.4-15.91,1.49-.74,2.88-1.68,4.3-2.54,15.5-9.34,31-18.73,46.52-28,3.36-2,7-3.61,10.51-5.28a10.61,10.61,0,0,1,9.72.44c6.83,3.69,13.44,7.78,20.14,11.71,0,.37-.05.74-.08,1.11l-6.85-3.67-1.38-.86-4.42-2.57-.9-.46-.39-.31c-5.37-2.76-10.62-2.48-15.81.54-6.48,3.77-13,7.37-19.48,11.23-12.91,7.75-25.67,15.75-38.64,23.4-5.69,3.35-8.34,8-8.32,14.48,0,6.91,0,13.83,0,20.75,0,6-.13,11.92-.19,17.89,0,7.17-.16,14.34-.13,21.51,0,4.42.23,8.83.33,13.24C77.24,193.07,77.19,194.74,77.19,196.41Z"/><path class="bc1a3261-2fe6-4810-a1d0-470aba0573bb" d="M222.52,112.66c-.05,1.8-.09,3.59-.14,5.39-.28-1.82-.51-3.65-.88-5.45-.1-.5-.6-.93-.92-1.39a4.81,4.81,0,0,0-.72,1.57c-.1,1.76-.05,3.53-.06,5.3-.59,1.48-1.14,3-1.76,4.42-.36.85-.83,1.65-1.25,2.46-.31-.92-1-1.92-.83-2.74.45-2.1.25-3.89-1.34-5.37-1-1-2.16-1.81-3.41-2.84-.06.67-.11,1.29-.17,1.9h-.42l-.31-.41c-2.87-3.89-4.71-5.83-10.85-3.57a2.11,2.11,0,0,1-1.66-.11c-3-1.93-5.84-4-8.75-5.94.19-.29.56-.83.54-.84-2.16-1.6-1.42-5.66-5.33-6,.79-.63,1.54-1.18,2.08-1,2.75.8,4,2.89,4.31,6,0-5.86,2.14-9.09,8.41-8.22-.27-.59-.54-1.21-.81-1.82l1.42-1.26c5.59,3.42,11.18,6.86,16.78,10.26a21.41,21.41,0,0,0,2.5,1.08l0,0c.16.23.31.46.46.69C221.67,106.89,222.44,109.64,222.52,112.66Z"/><path class="bc0a24b7-c88e-43fc-a086-a105b72d53ee" d="M107.84,216c-4-2.34-8.07-4.63-12-7-4.74-2.86-9.44-5.79-14.14-8.71a5.84,5.84,0,0,1-.92-.88l.09-.09c.28,0,.66,0,.82-.15,1.27-1.36,2.52-2.75,3.75-4.14a1.76,1.76,0,0,0,.54-.89c.07-1.77,1.92-3.5.12-5.32-.11-.12,0-.43,0-.64,0-2.3,0-4.6.07-6.9.53,1.78,1,3.57,1.6,5.34a2.43,2.43,0,0,0,.66,1.2c1.36,1,2.79,1.93,4.19,2.88a16.74,16.74,0,0,0,2.74,3c4.3,2.84,8.71,5.52,13.07,8.25.53.82.86,2,1.6,2.38,2.3,1.14,4.75,2,7.14,2.92a1.09,1.09,0,0,1,.4.07c-.44.28-.89.55-1.34.82-.9.54-2.29.87-2.59,1.64a4.7,4.7,0,0,1-3.46,2.89A2.77,2.77,0,0,0,107.84,216Zm-.87-4.46c-1.66-2.53-2.82-2-4.35,1.42Zm4.51-2.21.14-1-2.42-.14-.06.64Zm-4.73,4.48-.26-.22c0,.06-.12.14-.11.15a2.61,2.61,0,0,0,.25.23Z"/><path class="e2d0d413-8585-4599-9518-f4dd5dabaebe" d="M154.67,226.89l-.54,3.36,5.33,3.12-8.76,3.76-5.23,0L131,230c-.08-1.72.5-2.77,2.47-2.66.43,0,.89-.47,1.34-.73-.45-.32-.92-.62-1.35-1-.69-.57-1.35-1.16-2-1.75,1.43,0,3.07.33,3.49-1.75l3.74.23L135,218.08,139.4,220V202c.28,1,.58,2.07.81,3.12.59,2.72,1.11,5.45,1.75,8.15a1.4,1.4,0,0,0,1.13.76c.36-.05.73-.62.93-1,.66-1.3,1.23-2.64,1.84-4l.66.15a7.32,7.32,0,0,0,0,1.69,9.49,9.49,0,0,0,.79,1.68c-1.94,5.33.21,9,4.25,10.94ZM140,222.3a2.47,2.47,0,0,0,.07-.58c0-.06-.23-.1-.35-.15a2.87,2.87,0,0,0-.14.56S139.76,222.23,140,222.3Z"/><path class="aac4a31b-71eb-4e0a-9fb7-bda5ff901693" d="M135,218.08l3.68,4.29-3.74-.23h0c-.3-.56-.52-1.5-.94-1.61a3,3,0,0,0-2.21.41,16.83,16.83,0,0,1-8.21,2.95h-1.32l-2.69-.84-8.22-4.89a5.48,5.48,0,0,0,.1-1.23c-1.19-.35-2.41-.61-3.63-.89h0a2.77,2.77,0,0,1,2.25-3.36,4.7,4.7,0,0,0,3.46-2.89c.3-.77,1.69-1.1,2.59-1.64.45-.27.9-.54,1.34-.82.82.47,1.65.91,2.45,1.4Q127.49,213.4,135,218.08Z"/><path class="b770b069-3299-4f71-81d9-1f0f6232c746" d="M219,104.08a21.41,21.41,0,0,1-2.5-1.08c-5.6-3.4-11.19-6.84-16.78-10.26a.72.72,0,0,0-.33-.07l-4.87-3.09c-3.43-2.14-6.89-4.26-10.31-6.43-3.59-2.28-7.16-4.61-10.74-6.92l.08-1.11c5.78,3.47,11.6,6.89,17.35,10.43q12.06,7.41,24,15A34.84,34.84,0,0,1,219,104.08Z"/><path class="bc0a24b7-c88e-43fc-a086-a105b72d53ee" d="M77.19,196.41c0-1.67,0-3.34,0-5-.1-4.41-.32-8.82-.33-13.24,0-7.17.08-14.34.13-21.51.09,3.46.19,6.93.28,10.39,0,5.68-.07,11.36,0,17a36.82,36.82,0,0,0,.73,4.63c.22,1.6.46,3.2.54,4.8s.6,2.16,2.18,1.77a7.89,7.89,0,0,1,1.82,0c-2.4.76-1.5,2.69-1.75,4.08l-.09.09Z"/><path class="a8755178-347e-493b-a6ea-87ef21858775" d="M122.29,223.89h1.32c.56,1.22,1.69,2.55,2.71,1.35,1.58-1.86,3.39-1.14,5.15-1.35h0c.66.59,1.32,1.18,2,1.75.43.35.9.65,1.35,1-.45.26-.91.75-1.34.73-2-.11-2.55.94-2.47,2.66l-2.71-1.68a15.2,15.2,0,0,0,1.31-1.71c.05-.07-.59-.55-.91-.85-.25.67-.5,1.33-.74,2a1.48,1.48,0,0,0,0,.42l-6.13-3.83Z"/><path class="f1095c3f-c07a-417c-a676-d4286ab0c920" d="M145.47,237.09l5.23,0C149.26,238.94,148.09,238.93,145.47,237.09Z"/><path class="bc0a24b7-c88e-43fc-a086-a105b72d53ee" d="M107.85,216c1.22.28,2.44.54,3.63.89a5.48,5.48,0,0,1-.1,1.23Z"/><path class="e2d0d413-8585-4599-9518-f4dd5dabaebe" d="M128,228.18a1.48,1.48,0,0,1,0-.42c.24-.67.49-1.33.74-2,.32.3,1,.78.91.85a15.2,15.2,0,0,1-1.31,1.71A.3.3,0,0,1,128,228.18Z"/><path class="e2d0d413-8585-4599-9518-f4dd5dabaebe" d="M122.29,223.89l-.44.46-2.25-1.3Z"/><path class="ac016177-4aae-43bc-b3c0-0f280c7be5f7" d="M65.05,201.15l-.92-.26.62-.69Z"/><path class="b770b069-3299-4f71-81d9-1f0f6232c746" d="M219.38,104.75c-.15-.23-.3-.46-.46-.69C219.08,104.29,219.23,104.52,219.38,104.75Z"/><path class="a88a3fb5-aa96-438d-8170-c18ff26aa9f1" d="M151.59,223.51c-4-1.95-6.19-5.61-4.25-10.94,1.09-1,2.24-2,3.24-3.15a3.29,3.29,0,0,0,.9-1.95c.05-13.44,0-26.89,0-40.34l.16-.53-.07-1.3a.19.19,0,0,1-.06-.26l-2.91-2.86-1.91.51-.79-.58c-1.36-1.09-1.31-3.56-3.63-3.7h0l-.49-.92,0,.07-.58-1-1-7.82a15.59,15.59,0,0,1,7.36-9.81l3.62-1.59,0-.15.17-.7v-.91l.06-3.47,0-21v-3.86c0-3.36,0-6.72,0-10.09.23-1.91.14-3.3-1.94-4.63-4.43-2.84-3.65-10.26,1.05-12.54,4.09-2,8.1-.5,10.72,3.95-.22,3.53,1.15,6,4.68,7.07q9.9,6.54,19.81,13.08c1.05.69,2.19,1.25,3.29,1.87,2.91,2,5.8,4,8.75,5.94a2.11,2.11,0,0,0,1.66.11c6.14-2.26,8-.32,10.85,3.57l.31.41h-.07c.51,4-.07,7.41-4.09,9.44-.38.2-.56,1.11-.57,1.7,0,3.35,0,6.7,0,10.05,0,12.53,0,25.06,0,37.59a4.33,4.33,0,0,0,.68,2.54,37.06,37.06,0,0,0,3.55,3.42l.36.79c.74,6.72-1.8,9.88-8.17,10.15l-4.72-.88c-.6-.32-1.16-1.7-1.83-.07l-2.2-1.74-.9-.9h0l1.65-.31,0-.68-2.11-.26a.9.9,0,0,1-.36-.08c.43-.69.87-1.38,1.31-2.07L195,184c1.83-1,.74-1.74-.29-2.44l-11.14-7.59-1.69-2.63.21-.13L180.92,169c-.47.63-1,1.23-1.41,1.88a5.3,5.3,0,0,0-.4,1c-.12.66-.23,1.31-.35,2a.15.15,0,0,1-.07.23l-1.78-1.41.11-1.23.31,0,.84-.75-.88-.92-5.59-3.65.87-2.51h0c1.57,0,1-1,.87-1.75h.89l4.36,3,.85,0,0,0,.84-2,0-.1.09-.07,1.81,1.39a.3.3,0,0,1-.13.35c-.82.64-1.51,1.29-.27,2.18l.79.53c-.16,1.79,1,1.73,2.25,1.64l1,.47,11.58,7.86.39-.46c-1.59-2.94-3.15-5.89-4.77-8.8-1.15-2.06-2.39-4.06-3.58-6.09l-.24-.85c0-.05.06-.11,0-.15a1.32,1.32,0,0,0-.16-.25,27.72,27.72,0,0,0-1.78-3.21,1.94,1.94,0,0,0-1.6-.64c-.37.06-.62.83-.93,1.28-.62,1.29-1.24,2.58-1.87,3.87l-1.75-1a7.54,7.54,0,0,1,.37-1.89,4.56,4.56,0,0,0-.49-5.19,4.2,4.2,0,0,1,.29-5.57,3,3,0,0,0,.5-3.69c-.38-.92-.69-1.87-1-2.8-.53-1.48-1.07-3-1.7-4.68l-8,4.72-1.57.95h0c-1.61-.3-2.78.1-3,1.93l-.05.86.37.61v0a.75.75,0,0,0,.22.36l.26,1.28c-.21,2.29-.24,4.6-.66,6.84-.62,3.31.22,4.47,3.72,4.59l.46.32c0,.19,0,.38,0,.58h0l-.88.87h0l-.58.43.58.44-.44,1.75-2.64-.84h0c.48-1.61-.82-.64-1.28-.89h0c-.85-1.36-1.72-1.35-2.61,0l0,0-1.26.92h0l-2,.19,1.49.64a.35.35,0,0,1,.07.35l.29.51a.4.4,0,0,1,.15.38c.07.91-.47,2.12,1.13,2.27l.15.42.21.4.7,1.71.9,1.8.8,1.78-1.84.93-.41-.67-.48-1.1,0,.06-.72-1.39-.56-1.2-.41-.54h0v-.52l-1.77-3.6-.49-.68a.41.41,0,0,1-.34-.05l-.4-1.19-1.32,1.71a.48.48,0,0,1-.17.37l-.5.33.49.55,0,1.32s-.09.09-.09.13a2.29,2.29,0,0,0,.09.28V174l0,28-.66,8.35.4.11.82-1.08,1.74-1.28.87-1.28.3-.54a.69.69,0,0,0,.16-.29l0-.06.37-.48h0l3.49-1.72-.38.88a8.34,8.34,0,0,0-1.75,1.45c-.64.94-.8,1.93.85,2l.44.59.14-.14-.58-.45c.36-.25.87-.81,1-.72,1.29.65,2.5,1.43,3.71,2.15l-.79,1.22h0l-1.31.84a35.58,35.58,0,0,0-3,2.14,2.86,2.86,0,0,0-1,1.7C161.23,221.71,157.86,224.43,151.59,223.51ZM162.1,97.13l.39,0q3.36,4.86,6.73,9.74c.59.85,1.09,1.86,2.3.73,2.91.58,5.41,1.64,5.77,5.34L189,114.61l2.26.55.43-.9L165.06,96.8c0-.4.21-1.1.1-1.15-1.57-.66-3.17-1.23-4.77-1.82l-.49.58L162,96.2l.11.5c0,.13,0,.25,0,.37l-.09.15Zm18.35,69.92-.44-.59-.44.59-1.43.28.27.58,1.16-.86h.87l.45.59.14-.14ZM190,130.27l-1.38.86c-2.07,1.17-4.21,2.25-6.19,3.56a2.36,2.36,0,0,0-.63,2.12c.86,2.77,1.89,5.48,2.94,8.19.57,1.48,1.65,1.44,2.72,0q2.53-4.76,5.08-9.49l4.78-8.75.73-1.37-.4-.39-7.68,5.3Zm-15.58-6.12a46.31,46.31,0,0,0-1.56-4.66c-.2-.43-1.17-.53-1.79-.78-.52.94-1.1,1.86-1.56,2.83-2.57,5.42-5.14,10.84-7.64,16.3-.25.54-.27,1.69,0,1.86a3.61,3.61,0,0,0,2.16.2c.36,0,.68-.49,1-.76l3.57-2.35c2.61-1.55,5.24-3.07,7.78-4.71a1.84,1.84,0,0,0,.41-1.66C176.15,128.3,175.28,126.24,174.46,124.15Zm26.09,6.16V127l-.4-.08-2.6,5.17c-2,3.53-3.8,7.12-5.88,10.58-1.52,2.55-2.74,5-.71,7.8-.3,1.24-.68,2.47-.88,3.72a7.54,7.54,0,0,0,0,2.72,8.65,8.65,0,0,0,1.06,2.13q4.23,7.78,8.47,15.58l.65,0c.07-.75.15-1.49.22-2.24l0-33.33.06-5.54Zm-8.19-8.2a20,20,0,0,0,2.26-1.29,7,7,0,0,0,1.13-1.38,6.57,6.57,0,0,0-1.65-1.19,22.45,22.45,0,0,0-3.19-.6c-4.21-.74-8.41-1.5-12.63-2.18-1.38-.22-3.4,1.65-3,2.85,1.28,3.9,2.72,7.75,4.22,11.93l2.33-1.6ZM162,100.29c.13-1.29,0-2.37-1.72-2.3l-3.26-4.57a5.68,5.68,0,0,0-.21.85q0,21-.06,42c0,1.59.87,1.73,2.22,1.74l1.86-4.15c2.28-4.76,4.54-9.52,6.85-14.26a3.94,3.94,0,0,0-.05-3.64,6.68,6.68,0,0,1-.37-4.71c.73-1.77.23-2.81-.68-4.1C165,104.87,163.55,102.57,162,100.29Zm1.56,45.31-.1-.16a2.65,2.65,0,0,0-.26.21s.06.1.1.15Z"/><path class="b32cf2fa-efa8-4009-bc70-4975d8dcdb26" d="M211,115.91c.06-.61.11-1.23.17-1.9,1.25,1,2.39,1.87,3.41,2.84,1.59,1.48,1.79,3.27,1.34,5.37-.18.82.52,1.82.83,2.74.42-.81.89-1.61,1.25-2.46.62-1.45,1.17-2.94,1.76-4.42h0q0,14,0,28v27.56l-1,.09c-.12-1.26-.3-2.52-.35-3.78s0-2.53-1.71-2.41c-1.53.11-3.52-.52-4,1.86a17.37,17.37,0,0,0-.4,2.57c-.1,1.39-.65,2.22-2.16,2.09,0-14.2-.05-28.41,0-42.61a4.38,4.38,0,0,1,1.2-2.24,32.62,32.62,0,0,0,2.74-3.06C216.15,122.79,215,119.18,211,115.91Z"/><path class="e0e37b8b-60d1-4482-9aec-637596f567c6" d="M151.59,223.51c6.27.92,9.64-1.8,10-8a2.86,2.86,0,0,1,1-1.7,35.58,35.58,0,0,1,3-2.14l1.31-.84h0l13-8.17,9.47-6,2.43-1.6.07,0,1.57-1,0,0,1-.73.07,0,1.21-.9,0-.05a30.33,30.33,0,0,0,3.69.06,17,17,0,0,0,2.9-.77c6.37-.27,8.91-3.43,8.17-10.15a7.34,7.34,0,0,1,4,9.56c-1.34,3.65-5.65,5.87-9.22,4.43a4.6,4.6,0,0,0-4.93.66c-10.71,7.1-21.52,14.07-32.33,21a4,4,0,0,0-2.12,3.24c-.62,5.17-4.37,8.51-11.23,6.53C153.64,225.76,152.61,224.64,151.59,223.51Z"/><path class="e0e37b8b-60d1-4482-9aec-637596f567c6" d="M211,115.91c3.94,3.27,5.11,6.88,3.11,10.23a32.62,32.62,0,0,1-2.74,3.06,4.38,4.38,0,0,0-1.2,2.24c-.05,14.2,0,28.41,0,42.61l-.09,6.61a37.06,37.06,0,0,1-3.55-3.42,4.33,4.33,0,0,1-.68-2.54c0-12.53,0-25.06,0-37.59,0-3.35,0-6.7,0-10.05,0-.59.19-1.5.57-1.7,4-2,4.6-5.48,4.09-9.44Z"/><path class="b9249cba-c8f3-43c9-998f-a829682270d0" d="M219.8,118.08c0-1.77,0-3.54.06-5.3a4.81,4.81,0,0,1,.72-1.57c.32.46.82.89.92,1.39.37,1.8.6,3.63.88,5.45v32.37l-.79.07c-.11-1.26-.3-2.52-.3-3.79,0-1.81.22-3.61.2-5.42,0-.45-.53-.89-.82-1.33,0-6.48,0-13,0-19.44a8.08,8.08,0,0,0-.84-2.43Z"/><path class="bc1a3261-2fe6-4810-a1d0-470aba0573bb" d="M219.79,118.08a8.08,8.08,0,0,1,.84,2.43c.07,6.48,0,13,0,19.44,0,1.45.08,2.91,0,4.35a5.68,5.68,0,0,1-.83,1.77Q219.8,132.08,219.79,118.08Z"/><path class="b9249cba-c8f3-43c9-998f-a829682270d0" d="M222.23,153.09v5.2h-.44v-5.2Z"/><path class="bafa3e65-172c-4056-b13b-5bd73441861d" d="M161.27,83.88c-2.62-4.45-6.63-5.93-10.72-3.95-4.7,2.28-5.48,9.7-1.05,12.54,2.08,1.33,2.17,2.72,1.94,4.63-.31-.36-.76-.66-.92-1.08-.6-1.59-4-2.77-5.26-1.9a17.14,17.14,0,0,1-2.85,1.3l-.23-.44-.58,2-2.16-.76c-.08-1.67-.15-3.34-.24-5.34-2,1.36-3.94,1.85-3.93,4.62q.14,58.71.06,117.42c0,.94-.07,1.89-.1,2.83,0-.65-.11-1.3-.11-2V87.17a11.23,11.23,0,0,0-1.93.66c-2.42,1.43-4.8,2.9-7.2,4.37-10.36,6.33-20.68,12.73-31.09,19-5.65,3.39-9.12,7.73-8.74,14.79.31,5.8-.09,11.64-.18,17.47-1.53-.19-2.64.13-3.1,1.88-.14.52-1.13,1.05-1.79,1.13a2.06,2.06,0,0,0-2.1,2.42c.05,5.2,0,10.39,0,15.58,0,1.29-.27,2.32-1.73,2.59-.09-3.46-.19-6.93-.28-10.39.06-6,.15-11.93.19-17.89,0-6.92.07-13.84,0-20.75,0-6.46,2.63-11.13,8.32-14.48,13-7.65,25.73-15.65,38.64-23.4,6.43-3.86,13-7.46,19.48-11.23,5.19-3,10.44-3.3,15.81-.55l.39.32.9.46c.35,2.79,2.51,2.47,4.42,2.57l1.38.86c-2.23.93-4.45,1.85-6.67,2.79a1.88,1.88,0,0,0-.49,3.34c.28-.42.58-.8.81-1.22s.4-.84.63-1.34c2.26,2.76,2.26,2.76.16,4.07.48,2.62,2.87,2.72,4.9,3.28l-.19.51h-3.67Zm-16.22,6.85.17-.1a2.65,2.65,0,0,0-.21-.26s-.1.06-.16.1Zm-.74,1.68,0-.19c-.11,0-.22,0-.33,0s0,.12,0,.18Z"/><path class="ac016177-4aae-43bc-b3c0-0f280c7be5f7" d="M162.05,84h3.67l.19-.51c-2-.56-4.42-.66-4.9-3.28,2.1-1.31,2.1-1.31-.16-4.07-.23.5-.4.94-.63,1.34s-.53.8-.81,1.22a1.88,1.88,0,0,1,.49-3.34c2.22-.94,4.44-1.86,6.67-2.79l6.85,3.67c3.58,2.31,7.15,4.64,10.74,6.92,3.42,2.17,6.88,4.29,10.31,6.43.75,3,1.05,3.23,4.87,3.09a.72.72,0,0,1,.33.07L198.25,94c.27.61.54,1.23.81,1.82-6.27-.87-8.42,2.36-8.41,8.22-.31-3.1-1.56-5.19-4.31-6-.54-.16-1.29.39-2.08,1,3.91.33,3.17,4.39,5.33,6,0,0-.35.55-.54.84-1.1-.62-2.24-1.18-3.29-1.87Q175.85,97.51,166,91A9.6,9.6,0,0,0,162.05,84ZM190.7,97.51l-.1-.17a3,3,0,0,0-.26.21s.06.1.09.16Z"/><path class="aac4a31b-71eb-4e0a-9fb7-bda5ff901693" d="M165.19,71.7c-1.91-.1-4.07.22-4.42-2.57Z"/><path class="aac4a31b-71eb-4e0a-9fb7-bda5ff901693" d="M159.87,68.67l-.39-.32Z"/><path class="e0e37b8b-60d1-4482-9aec-637596f567c6" d="M210.62,115.93l-.31-.41Z"/><path class="bf2000ba-28d9-4e33-9d38-2720afb28086" d="M86,143.44c.09-5.83.49-11.67.18-17.47-.38-7.06,3.09-11.4,8.74-14.79,10.41-6.25,20.73-12.65,31.09-19,2.4-1.47,4.78-2.94,7.2-4.37a11.23,11.23,0,0,1,1.93-.66V213.79c0,.65.07,1.3.11,2a11.3,11.3,0,0,1-2.12-.74c-5.9-3.45-11.76-6.94-17.64-10.41Q104,197.65,92.53,190.72c-1.4-.95-2.83-1.87-4.19-2.88a2.43,2.43,0,0,1-.66-1.2c-.56-1.77-1.07-3.56-1.6-5.34,0-2.53-.07-5.07-.07-7.61Q86,158.57,86,143.44Z"/><path class="e0e37b8b-60d1-4482-9aec-637596f567c6" d="M115.47,204.59c5.88,3.47,11.74,7,17.64,10.41a11.3,11.3,0,0,0,2.12.74c0-.94.1-1.89.1-2.83q0-58.71-.06-117.42c0-2.77,1.88-3.26,3.93-4.62.09,2,.16,3.67.24,5.34q0,23.17,0,46.35v3.54q0,28,0,55.93v18L135,218.08q-7.55-4.68-15.1-9.35c-.8-.49-1.63-.93-2.45-1.4a1.09,1.09,0,0,0-.4-.07L114,205Z"/><path class="a9f70375-daa4-4ee1-ba5a-e9e364753777" d="M86,143.44q0,15.12,0,30.25c0,2.54,0,5.08.07,7.61,0,2.3,0,4.6-.07,6.9,0,.21-.07.52,0,.64,1.8,1.82,0,3.55-.12,5.32a1.76,1.76,0,0,1-.54.89c-1.23,1.39-2.48,2.78-3.75,4.14-.16.16-.54.11-.82.15.25-1.39-.65-3.32,1.75-4.08a7.89,7.89,0,0,0-1.82,0c-1.58.39-2.12-.25-2.18-1.77s-.32-3.2-.54-4.8a36.82,36.82,0,0,1-.73-4.63c-.09-5.68,0-11.36,0-17,1.46-.27,1.73-1.3,1.73-2.59,0-5.19,0-10.38,0-15.58a2.06,2.06,0,0,1,2.1-2.42c.66-.08,1.65-.61,1.79-1.13C83.34,143.57,84.45,143.25,86,143.44Z"/><path class="b770b069-3299-4f71-81d9-1f0f6232c746" d="M115.47,204.59,114,205,108.34,202c-4.36-2.73-8.77-5.41-13.07-8.25a16.74,16.74,0,0,1-2.74-3Q104,197.65,115.47,204.59Z"/><path class="aac4a31b-71eb-4e0a-9fb7-bda5ff901693" d="M108.34,202,114,205l3.11,2.24c-2.39-.95-4.84-1.78-7.14-2.92C109.2,204,108.87,202.78,108.34,202Z"/><path class="aac4a31b-71eb-4e0a-9fb7-bda5ff901693" d="M107,211.58,102.62,213C104.15,209.62,105.31,209.05,107,211.58Z"/><path class="aac4a31b-71eb-4e0a-9fb7-bda5ff901693" d="M111.48,209.37l-2.34-.47.06-.64,2.42.14Z"/><path class="aac4a31b-71eb-4e0a-9fb7-bda5ff901693" d="M106.75,213.85l-.12.16a2.61,2.61,0,0,1-.25-.23s.07-.09.11-.15Z"/><path class="aac4a31b-71eb-4e0a-9fb7-bda5ff901693" d="M139.4,202q0-28,0-55.93l.87,2.63,1,7.82.58,1,0-.07.49.92h0l3.63,3.7.79.58.47.84,4.32,3.6c0,13.45,0,26.9,0,40.34a3.29,3.29,0,0,1-.9,1.95c-1,1.12-2.15,2.11-3.24,3.15a9.49,9.49,0,0,1-.79-1.68,7.32,7.32,0,0,1,0-1.69l-.66-.15c-.61,1.33-1.18,2.67-1.84,4-.2.42-.57,1-.93,1a1.4,1.4,0,0,1-1.13-.76c-.64-2.7-1.16-5.43-1.75-8.15C140,204.1,139.68,203.07,139.4,202Zm3.5,6.79c-.38.5-.8.82-.77,1.09s.46.61.79.71c.15,0,.65-.41.64-.62S143.23,209.36,142.9,208.82Z"/><path class="b9249cba-c8f3-43c9-998f-a829682270d0" d="M135,222.14c-.42,2.08-2.06,1.71-3.49,1.75h0c.57-1.79,2-1.82,3.5-1.75Z"/><path class="aac4a31b-71eb-4e0a-9fb7-bda5ff901693" d="M140,222.3c-.2-.07-.42-.13-.42-.17a2.87,2.87,0,0,1,.14-.56c.12.05.34.09.35.15A2.47,2.47,0,0,1,140,222.3Z"/><path class="e2d0d413-8585-4599-9518-f4dd5dabaebe" d="M135,222.14c-1.49-.07-2.93,0-3.5,1.75-1.76.21-3.57-.51-5.15,1.35-1,1.2-2.15-.13-2.71-1.35a16.83,16.83,0,0,0,8.21-2.95,3,3,0,0,1,2.21-.41C134.45,220.64,134.67,221.58,135,222.14Z"/><path class="aac4a31b-71eb-4e0a-9fb7-bda5ff901693" d="M199.34,92.67c-3.82.14-4.12,0-4.87-3.09Z"/><path class="ac016177-4aae-43bc-b3c0-0f280c7be5f7" d="M140.29,148.73l-.87-2.63c0-.89,0-1.77,0-2.66l.54-.54-.53-.34q0-23.18,0-46.35l2.16.76.58-2,.23.44a17.14,17.14,0,0,0,2.85-1.3c1.28-.87,4.66.31,5.26,1.9.16.42.61.72.92,1.08,0,3.37,0,6.73,0,10.09v3.86l0,21-.06,3.47v.91l-.17.7,0,.15c-1.42,0-3.05-.39-3.62,1.59A15.59,15.59,0,0,0,140.29,148.73Z"/><path class="f1095c3f-c07a-417c-a676-d4286ab0c920" d="M189.37,196.67l-9.47,6-13,8.17.79-1.22c-1.21-.72-2.42-1.5-3.71-2.15-.18-.09-.69.47-1,.72h0c-1.65-.11-1.49-1.1-.85-2a8.34,8.34,0,0,1,1.75-1.45l-.5,2.12,6-3.89L188.3,190.6l4.36-2.59.9.9-1.43,1.6,2.51,2.07-.17.68-.07,0-1,.73,0,0-1.57,1-.07,0Z"/><path class="aac4a31b-71eb-4e0a-9fb7-bda5ff901693" d="M180.9,141.68c.34.93.65,1.88,1,2.8a3,3,0,0,1-.5,3.69,4.2,4.2,0,0,0-.29,5.57,4.56,4.56,0,0,1,.49,5.19,7.54,7.54,0,0,0-.37,1.89c-.27.62-.55,1.24-.83,1.86l-.09.07,0,.11-.84,2,0,0-.85,0-4.36-3-.91-.76a.3.3,0,0,0-.34-.14l-.52-.35,0-.05-.39-.33-.43-.12a.55.55,0,0,1,0-.4,73.64,73.64,0,0,0-.43-8.94c-.22-1.43-.09-2.1,1.05-2.8,2.29-1.38,4.57-2.78,6.78-4.27A11.75,11.75,0,0,0,180.9,141.68Z"/><path class="e0e37b8b-60d1-4482-9aec-637596f567c6" d="M159,208.15l-1.74,1.28a11,11,0,0,1-.47-2c-.09-1.8-.07-3.59-.09-5.39l0-28v-6.12a.43.43,0,0,0,0-.41l0-1.32v-.88a.48.48,0,0,0,.17-.37l1.72-.52a.41.41,0,0,0,.34.05l.49.68,1.77,3.6-.29.55c0,5-.09,10-.08,15.06,0,6.76.07,13.52.11,20.28-.06.3-.11.58-.17.87h0l-.37.48,0,.06a.21.21,0,0,0-.16.29l-.3.54Z"/><path class="aefb3583-6815-4eb3-b97b-70b04f7b0bd9" d="M160.92,204.63c0-6.76-.1-13.52-.11-20.28,0-5,.05-10,.08-15.06l.29,0h0l.41.54.56,1.2.72,1.39,0-.06.48,1.1.41.67q2.25,4.77,4.49,9.56l.26.87-.63,2.67a.17.17,0,0,0-.13.23c-.29.79-.57,1.58-.85,2.37l.18.89.28.8,0,0,.77,1.43-1.41,2.91Z"/><path class="e0e37b8b-60d1-4482-9aec-637596f567c6" d="M160.86,133.82,159,138c-1.35,0-2.23-.15-2.22-1.74q.06-21,.06-42a5.68,5.68,0,0,1,.21-.85L160.31,98l.55,1.05Z"/><path class="aac4a31b-71eb-4e0a-9fb7-bda5ff901693" d="M160.86,133.82V99l1.17,1.25c1.52,2.28,3,4.58,4.58,6.82.91,1.29,1.41,2.33.68,4.1a6.68,6.68,0,0,0,.37,4.71,3.94,3.94,0,0,1,.05,3.64C165.4,124.3,163.14,129.06,160.86,133.82Z"/><path class="b32cf2fa-efa8-4009-bc70-4975d8dcdb26" d="M200.5,139l0,33.33c-2.16-3.94-4.37-7.86-6.43-11.85a2.66,2.66,0,0,1,.31-2.15,5.23,5.23,0,0,0,0-5.58c-.31-.58-.67-1.51-.43-2C196,146.79,198.29,142.89,200.5,139Z"/><path class="e0e37b8b-60d1-4482-9aec-637596f567c6" d="M180.9,141.68a11.75,11.75,0,0,1-1.82,2c-2.21,1.49-4.49,2.89-6.78,4.27-1.14.7-1.27,1.37-1.05,2.8a73.64,73.64,0,0,1,.43,8.94l-.8-.17-.46-.32a6.32,6.32,0,0,0-1.15-.94c-1.69-.85-2.19-1.84-1.7-3.93s-.1-4.36-.21-6.56c-.09-.43-.18-.86-.26-1.28l-.22-.36v0l-.37-.61c0-.29,0-.58.05-.86,1-.65,2-1.29,3-1.93h0l1.57-.95,8-4.72C179.83,138.73,180.37,140.2,180.9,141.68Z"/><path class="e0e37b8b-60d1-4482-9aec-637596f567c6" d="M200.5,139c-2.21,3.92-4.46,7.82-6.58,11.79-.24.45.12,1.38.43,2a5.23,5.23,0,0,1,0,5.58,2.66,2.66,0,0,0-.31,2.15c2.06,4,4.27,7.91,6.43,11.85-.07.75-.15,1.49-.22,2.24l-.65,0q-4.24-7.79-8.47-15.58a8.65,8.65,0,0,1-1.06-2.13,7.54,7.54,0,0,1,0-2.72c.2-1.25.58-2.48.88-3.72,1.08-1.88,2.18-3.76,3.24-5.65,2.13-3.77,4.24-7.56,6.36-11.35Z"/><path class="b770b069-3299-4f71-81d9-1f0f6232c746" d="M181.82,128.65l-2.33,1.6c-1.5-4.18-2.94-8-4.22-11.93-.39-1.2,1.63-3.07,3-2.85,4.22.68,8.42,1.44,12.63,2.18a22.45,22.45,0,0,1,3.19.6,6.57,6.57,0,0,1,1.65,1.19,7,7,0,0,1-1.13,1.38,20,20,0,0,1-2.26,1.29c-.27-.23-.52-.61-.83-.67-3.06-.57-6.12-1.23-9.21-1.58a2.61,2.61,0,0,0-2.54,3.5C180.4,125.14,181.14,126.89,181.82,128.65Z"/><path class="e0e37b8b-60d1-4482-9aec-637596f567c6" d="M187.5,145c-1.07,1.45-2.15,1.49-2.72,0-1.05-2.71-2.08-5.42-2.94-8.19a2.36,2.36,0,0,1,.63-2.12c2-1.31,4.12-2.39,6.19-3.56l1.38-.86,0,0c.9-.39,1.81-.75,2.68-1.18,1.57-.76,3.11-1.57,4.67-2.36l-4.78,8.75a27.63,27.63,0,0,0-2.66,1.35C185.28,139.87,185.29,139.88,187.5,145Z"/><path class="a8755178-347e-493b-a6ea-87ef21858775" d="M177,171.41c0,.41-.07.82-.11,1.23q-1.95,5-3.91,9.89c-.18-.11-.47-.17-.54-.34-2.24-4.61-4.5-9.22-6.58-13.91-.19-.44.7-1.54,1.31-2.09a2,2,0,0,1,1.8-.3C171.71,167.65,174.35,169.55,177,171.41Z"/><path class="aac4a31b-71eb-4e0a-9fb7-bda5ff901693" d="M189,114.61l-11.72-1.69c-.36-3.7-2.86-4.76-5.77-5.34l-6.05-8.1c.71-.28,1-.23,1.22-.08q11.19,7.27,22.37,14.58C189.15,114,189,114.4,189,114.61Z"/><path class="aefb3583-6815-4eb3-b97b-70b04f7b0bd9" d="M195,184l-1.83.64-12.6,1.83,3.24-10.79c4,2.65,7.49,5,11,7.38C195,183.16,194.9,183.65,195,184Z"/><path class="b770b069-3299-4f71-81d9-1f0f6232c746" d="M177,171.41c-2.67-1.86-5.31-3.76-8-5.52a2,2,0,0,0-1.8.3c-.61.55-1.5,1.65-1.31,2.09,2.08,4.69,4.34,9.3,6.58,13.91.07.17.36.23.54.33l-.42,1.58h0l-2.18-.85,0,0-4.8-10-.8-1.78-.9-1.8c-.23-.57-.46-1.14-.7-1.71l-.21-.4-.15-.42c-.38-.76-.76-1.51-1.13-2.27a.4.4,0,0,0-.15-.38l-.29-.51a.35.35,0,0,0-.07-.35l.52-.83h0l1.26-.92,0,0,2.61,0h0l1.28.89h0l2.62,1.73h0l2.18,1.63,5.59,3.65c0,.55,0,1.11,0,1.67Z"/><path class="aac4a31b-71eb-4e0a-9fb7-bda5ff901693" d="M165.11,139.14c-.34.27-.66.72-1,.76a3.61,3.61,0,0,1-2.16-.2c-.29-.17-.27-1.32,0-1.86,2.5-5.46,5.07-10.88,7.64-16.3.46-1,1-1.89,1.57-2.83,1.64,2.25,1.43,4.35,0,6.77-1.9,3.33-3.41,6.88-5,10.37A26.21,26.21,0,0,0,165.11,139.14Z"/><path class="aefb3583-6815-4eb3-b97b-70b04f7b0bd9" d="M189.54,161.75c1.19,2,2.43,4,3.58,6.09,1.62,2.91,3.18,5.86,4.77,8.8l-.39.46-11.58-7.86c.39-.73.8-1.44,1.15-2.19C187.91,165.3,188.72,163.52,189.54,161.75Z"/><path class="aac4a31b-71eb-4e0a-9fb7-bda5ff901693" d="M200.56,133.43c-2.12,3.79-4.23,7.58-6.36,11.35-1.06,1.89-2.16,3.77-3.24,5.65-2-2.81-.81-5.25.71-7.8,2.08-3.46,3.93-7,5.88-10.58l3-1.74Z"/><path class="aac4a31b-71eb-4e0a-9fb7-bda5ff901693" d="M181.82,128.65c-.68-1.76-1.42-3.51-2-5.29a2.61,2.61,0,0,1,2.54-3.5c3.09.35,6.15,1,9.21,1.58.31.06.56.44.83.67Z"/><path class="b770b069-3299-4f71-81d9-1f0f6232c746" d="M189,114.61c0-.21.14-.58.05-.63q-11.16-7.32-22.37-14.58c-.23-.15-.51-.2-1.22.08l6.05,8.1c-1.21,1.13-1.71.12-2.3-.73q-3.36-4.89-6.73-9.74l-.42-.41-.11-.5,3.1.6,26.64,17.46-.43.9Z"/><path class="e0e37b8b-60d1-4482-9aec-637596f567c6" d="M195,184c-.06-.32,0-.81-.2-.94-3.5-2.39-7-4.73-11-7.38-1.16,3.84-2.2,7.31-3.24,10.79l-3.15.67c1.24-3.62,2.4-7.27,3.76-10.83.75-2,.13-2.84-1.78-3.15l.17-1,0,0,4,1.78,11.14,7.59C195.7,182.23,196.79,182.93,195,184Z"/><path class="e0e37b8b-60d1-4482-9aec-637596f567c6" d="M165.11,139.14a26.21,26.21,0,0,1,1-3.29c1.61-3.49,3.12-7,5-10.37,1.38-2.42,1.59-4.52,0-6.77.61.25,1.58.35,1.78.78a46.31,46.31,0,0,1,1.56,4.66q-2.9,6.33-5.78,12.64Z"/><path class="aac4a31b-71eb-4e0a-9fb7-bda5ff901693" d="M168.68,136.79q2.9-6.31,5.78-12.64c.82,2.09,1.69,4.15,2.41,6.27a1.84,1.84,0,0,1-.41,1.66C173.92,133.72,171.29,135.24,168.68,136.79Z"/><path class="f1095c3f-c07a-417c-a676-d4286ab0c920" d="M177.38,187.11l3.15-.67,12.6-1.83c-.44.69-.88,1.38-1.31,2.07-1.9.51-3.64,2.36-5.38.9-1.45.52-2.59.94-3.75,1.32-.73.25-1.48.45-2.22.67l-3.07.25-1.27-3.58Z"/><path class="aefb3583-6815-4eb3-b97b-70b04f7b0bd9" d="M177.38,187.11l-1.25-.87v0l-.46-.48-.34-.42a12.6,12.6,0,0,1,.32-2.31c1-3,2-6,3.05-9a.16.16,0,0,0,.07-.24l.6-.68c1.91.31,2.53,1.18,1.78,3.15C179.78,179.84,178.62,183.49,177.38,187.11Z"/><path class="aefb3583-6815-4eb3-b97b-70b04f7b0bd9" d="M169.41,202.89l-6,3.89.5-2.12.38-.88a8.24,8.24,0,0,1,.67-1.58c1.63-2.41,3.31-4.79,5-7.18l.05-.05.54.05c1.72,1.06,2,2.41.93,4.12C170.67,200.35,170.07,201.64,169.41,202.89Z"/><path class="e0e37b8b-60d1-4482-9aec-637596f567c6" d="M189.54,161.75c-.82,1.77-1.63,3.55-2.47,5.3-.35.75-.76,1.46-1.15,2.19l-1-.47-.87-.9a37.55,37.55,0,0,1,1.8-4.67c1.14-2.1,1-3.8-.93-5.27.31-.45.56-1.22.93-1.28a1.94,1.94,0,0,1,1.6.64,27.72,27.72,0,0,1,1.78,3.21.58.58,0,0,0,.11.4Z"/><path class="f1095c3f-c07a-417c-a676-d4286ab0c920" d="M178.69,174.05c-1,3-2.08,6-3.05,9a12.6,12.6,0,0,0-.32,2.31l-2.93,2.56a9.33,9.33,0,0,0,.64-2.14,6.17,6.17,0,0,0-.45-1.68l.42-1.58q2-4.94,3.91-9.88Z"/><path class="aefb3583-6815-4eb3-b97b-70b04f7b0bd9" d="M180.47,189.57c.74-.22,1.49-.42,2.22-.67,1.16-.38,2.3-.8,3.75-1.32,1.74,1.46,3.48-.39,5.38-.9a.9.9,0,0,0,.36.08l.48,1.25h0l-4.36,2.59c-1.89.21-3.81.27-5.66.66C181,191.6,180.52,191,180.47,189.57Z"/><path class="f1095c3f-c07a-417c-a676-d4286ab0c920" d="M165.57,173.17l4.8,10-2.15.45q-2.24-4.78-4.49-9.56Z"/><path class="aac4a31b-71eb-4e0a-9fb7-bda5ff901693" d="M187.5,145c-2.21-5.11-2.22-5.12,2.42-8.14a27.63,27.63,0,0,1,2.66-1.35Q190,140.24,187.5,145Z"/><path class="aefb3583-6815-4eb3-b97b-70b04f7b0bd9" d="M184.88,157.93c1.93,1.47,2.07,3.17.93,5.27a37.55,37.55,0,0,0-1.8,4.67l-1.38-.74-.79-.53.27-2.18a.3.3,0,0,0,.13-.35c.26-.76.52-1.51.77-2.27C183.64,160.51,184.26,159.22,184.88,157.93Z"/><path class="f1095c3f-c07a-417c-a676-d4286ab0c920" d="M169.88,195c-1.66,2.39-3.34,4.77-5,7.18a8.24,8.24,0,0,0-.67,1.58l-3.49,1.72c.06-.29.11-.57.17-.87q2.91-4.38,5.81-8.76Z"/><path class="b770b069-3299-4f71-81d9-1f0f6232c746" d="M162.05,84a9.6,9.6,0,0,1,3.9,7c-3.53-1-4.9-3.54-4.68-7.07Z"/><path class="f1095c3f-c07a-417c-a676-d4286ab0c920" d="M167.36,147.73c.11,2.2.7,4.51.21,6.56s0,3.08,1.7,3.93a6.32,6.32,0,0,1,1.15.94c-3.5-.12-4.34-1.28-3.72-4.59C167.12,152.33,167.15,150,167.36,147.73Z"/><path class="aefb3583-6815-4eb3-b97b-70b04f7b0bd9" d="M197.36,126.75c-1.56.79-3.1,1.6-4.67,2.36-.87.43-1.78.79-2.68,1.18l7.68-5.3.4.39Z"/><path class="f1095c3f-c07a-417c-a676-d4286ab0c920" d="M183.53,173.94l-4-1.78a.62.62,0,0,0-.28-.23l-.11-.08a5.3,5.3,0,0,1,.4-1c.44-.65.94-1.25,1.41-1.88l1.13,2.19-.21.13Z"/><path class="b770b069-3299-4f71-81d9-1f0f6232c746" d="M202.31,191.6a17,17,0,0,1-2.9.77,30.33,30.33,0,0,1-3.69-.06l.9-.81,1-.78Z"/><path class="bf2000ba-28d9-4e33-9d38-2720afb28086" d="M171.72,160.05l.43.12.39.33,0,.05.52.35a.3.3,0,0,1,.34.14l0,.76h0l-1.52.24.65,1.51h0l-3,.88h0c0-.3,0-.59,0-.89.15-.58.29-1.17.44-1.75v-.87h0l.88-.87h.89Z"/><path class="bf2000ba-28d9-4e33-9d38-2720afb28086" d="M196.62,191.5l-.9.81,0,.05-1,.22-2.51-2.07,1.43-1.6,2.2,1.74Z"/><path class="f1095c3f-c07a-417c-a676-d4286ab0c920" d="M165.06,96.8l-3.1-.6-2.06-1.79.49-.58c1.6.59,3.2,1.16,4.77,1.82C165.27,95.7,165.1,96.4,165.06,96.8Z"/><path class="b770b069-3299-4f71-81d9-1f0f6232c746" d="M151.49,167.13l-4.32-3.6,4.35,1.51a.19.19,0,0,0,.06.26l.07,1.3Z"/><path class="b770b069-3299-4f71-81d9-1f0f6232c746" d="M200.55,130.31l-3,1.74,2.6-5.17.4.08Z"/><path class="f1095c3f-c07a-417c-a676-d4286ab0c920" d="M151.52,165l-4.35-1.51-.47-.84,1.91-.51Z"/><path class="f1095c3f-c07a-417c-a676-d4286ab0c920" d="M145.91,162.11l-3.63-3.7C144.6,158.55,144.55,161,145.91,162.11Z"/><path class="f1095c3f-c07a-417c-a676-d4286ab0c920" d="M156.73,202.05c0,1.8,0,3.59.09,5.39a11,11,0,0,0,.47,2l-.82,1.08-.4-.11Z"/><path class="f1095c3f-c07a-417c-a676-d4286ab0c920" d="M169.52,164.44l3-.88-.87,2.51Z"/><path class="f1095c3f-c07a-417c-a676-d4286ab0c920" d="M183,161.8c-.25.76-.51,1.51-.77,2.27l-1.81-1.39c.28-.62.56-1.24.83-1.86C181.85,161.14,182.43,161.47,183,161.8Z"/><path class="bafa3e65-172c-4056-b13b-5bd73441861d" d="M147.65,138.92c.57-2,2.2-1.55,3.62-1.59Z"/><path class="f1095c3f-c07a-417c-a676-d4286ab0c920" d="M169.6,142.67c-1,.64-2,1.28-3,1.93C166.82,142.77,168,142.37,169.6,142.67Z"/><path class="f1095c3f-c07a-417c-a676-d4286ab0c920" d="M172.58,163.55l-.65-1.51,1.52-.24C173.55,162.58,174.15,163.6,172.58,163.55Z"/><path class="f1095c3f-c07a-417c-a676-d4286ab0c920" d="M169.51,163.55c0,.3,0,.59,0,.89l-2.62-1.73Z"/><path class="f1095c3f-c07a-417c-a676-d4286ab0c920" d="M182.63,167.13l1.38.74.87.9C183.67,168.86,182.47,168.92,182.63,167.13Z"/><path class="f1095c3f-c07a-417c-a676-d4286ab0c920" d="M162,100.29,160.86,99,160.31,98C162,97.92,162.16,99,162,100.29Z"/><path class="f1095c3f-c07a-417c-a676-d4286ab0c920" d="M192.66,188l-.48-1.25,2.11.26,0,.68Z"/><path class="bafa3e65-172c-4056-b13b-5bd73441861d" d="M151.4,135.57l.06-3.47Z"/><path class="f1095c3f-c07a-417c-a676-d4286ab0c920" d="M161.68,164.79c.37.76.75,1.51,1.13,2.27C161.21,166.91,161.75,165.7,161.68,164.79Z"/><path class="f1095c3f-c07a-417c-a676-d4286ab0c920" d="M158.58,164.41l-1.72.52,1.32-1.71Z"/><path class="f1095c3f-c07a-417c-a676-d4286ab0c920" d="M165.57,161.82l-2.61,0C163.85,160.47,164.72,160.46,165.57,161.82Z"/><path class="bafa3e65-172c-4056-b13b-5bd73441861d" d="M151.43,111.05v0Z"/><path class="f1095c3f-c07a-417c-a676-d4286ab0c920" d="M196.62,191.5l-.86-.85c.67-1.63,1.23-.25,1.83.07Z"/><path class="f1095c3f-c07a-417c-a676-d4286ab0c920" d="M177.33,171.39c0-.56,0-1.12,0-1.67l.88.92Z"/><path class="f1095c3f-c07a-417c-a676-d4286ab0c920" d="M179.57,167.05l-1.16.86-.27-.58,1.43-.28Z"/><path class="f1095c3f-c07a-417c-a676-d4286ab0c920" d="M182.11,164.42l-.27,2.18C180.6,165.71,181.29,165.06,182.11,164.42Z"/><path class="f1095c3f-c07a-417c-a676-d4286ab0c920" d="M166.84,162.71l-1.28-.89C166,162.07,167.32,161.1,166.84,162.71Z"/><path class="f1095c3f-c07a-417c-a676-d4286ab0c920" d="M163.87,169.59l.9,1.8Z"/><path class="f1095c3f-c07a-417c-a676-d4286ab0c920" d="M179.53,164.85l.84-2Z"/><path class="f1095c3f-c07a-417c-a676-d4286ab0c920" d="M171.18,141.72l-1.57.95Z"/><path class="f1095c3f-c07a-417c-a676-d4286ab0c920" d="M161.69,162.72l-.52.83-1.49-.64Z"/><path class="f1095c3f-c07a-417c-a676-d4286ab0c920" d="M159,208.15l.87-1.28Z"/><path class="f1095c3f-c07a-417c-a676-d4286ab0c920" d="M166.9,210.81l-1.31.84Z"/><path class="aefb3583-6815-4eb3-b97b-70b04f7b0bd9" d="M190,130.27l-1.38.86Z"/><path class="f1095c3f-c07a-417c-a676-d4286ab0c920" d="M162.94,161.81l-1.26.92Z"/><path class="f1095c3f-c07a-417c-a676-d4286ab0c920" d="M163.59,145.6l-.26.2c0-.05-.11-.14-.1-.15a2.65,2.65,0,0,1,.26-.21Z"/><path class="f1095c3f-c07a-417c-a676-d4286ab0c920" d="M162.88,172.39l-.72-1.39Z"/><path class="f1095c3f-c07a-417c-a676-d4286ab0c920" d="M170.83,160.06l-.88.87Z"/><path class="f1095c3f-c07a-417c-a676-d4286ab0c920" d="M180.45,167.05l.58.45-.14.14-.45-.59Z"/><path class="f1095c3f-c07a-417c-a676-d4286ab0c920" d="M156.71,170.57v0Z"/><path class="f1095c3f-c07a-417c-a676-d4286ab0c920" d="M180.44,167.05h-.87c.14-.2.29-.39.44-.59l.44.59Z"/><path class="f1095c3f-c07a-417c-a676-d4286ab0c920" d="M156.69,165.3v.88l-.49-.55Z"/><path class="f1095c3f-c07a-417c-a676-d4286ab0c920" d="M170,160.93v.87l-.58-.44Z"/><path class="f1095c3f-c07a-417c-a676-d4286ab0c920" d="M163,208.15l.58.45-.14.14-.44-.59Z"/><path class="f1095c3f-c07a-417c-a676-d4286ab0c920" d="M179.36,173.13l-.6.68c.12-.65.23-1.3.35-2l.11.08a.67.67,0,0,0,.31.2Z"/><path class="f1095c3f-c07a-417c-a676-d4286ab0c920" d="M141.86,157.56l-.58-1Z"/><path class="f1095c3f-c07a-417c-a676-d4286ab0c920" d="M151.65,166.6l-.07-1.3Z"/><path class="f1095c3f-c07a-417c-a676-d4286ab0c920" d="M173.45,161.8l0-.76.91.76Z"/><path class="f1095c3f-c07a-417c-a676-d4286ab0c920" d="M178.7,164.85l.85,0Z"/><path class="f1095c3f-c07a-417c-a676-d4286ab0c920" d="M171.72,160.05h-.89l0-.58.8.17A.55.55,0,0,0,171.72,160.05Z"/><path class="f1095c3f-c07a-417c-a676-d4286ab0c920" d="M142.31,158.41l-.49-.92Z"/><path class="f1095c3f-c07a-417c-a676-d4286ab0c920" d="M156.7,173.19v0Z"/><path class="f1095c3f-c07a-417c-a676-d4286ab0c920" d="M163.32,173.43l-.48-1.1Z"/><path class="f1095c3f-c07a-417c-a676-d4286ab0c920" d="M160.38,206l.37-.48Z"/><path class="f1095c3f-c07a-417c-a676-d4286ab0c920" d="M163,167.48l.21.4Z"/><path class="f1095c3f-c07a-417c-a676-d4286ab0c920" d="M156.71,167.5a.43.43,0,0,1,0,.41,2.29,2.29,0,0,1-.09-.28S156.68,167.54,156.71,167.5Z"/><path class="f1095c3f-c07a-417c-a676-d4286ab0c920" d="M160.2,206.33a.21.21,0,0,1,.16-.29A.69.69,0,0,1,160.2,206.33Z"/><path class="f1095c3f-c07a-417c-a676-d4286ab0c920" d="M159.41,165.14l-.49-.68Z"/><path class="f1095c3f-c07a-417c-a676-d4286ab0c920" d="M166.88,146.09l.22.36A.75.75,0,0,1,166.88,146.09Z"/><path class="f1095c3f-c07a-417c-a676-d4286ab0c920" d="M166.5,145.46l.37.61Z"/><path class="aefb3583-6815-4eb3-b97b-70b04f7b0bd9" d="M189.3,160.9a.58.58,0,0,1-.11-.4,1.32,1.32,0,0,1,.16.25S189.32,160.85,189.3,160.9Z"/><path class="f1095c3f-c07a-417c-a676-d4286ab0c920" d="M161.24,163.9l.29.51Z"/><path class="f1095c3f-c07a-417c-a676-d4286ab0c920" d="M162.07,96.7l.42.41-.39,0,0-.06C162.05,97,162.06,96.83,162.07,96.7Z"/><path class="f1095c3f-c07a-417c-a676-d4286ab0c920" d="M161.6,169.8l-.41-.54Z"/><path class="bafa3e65-172c-4056-b13b-5bd73441861d" d="M151.24,137.18l.17-.7Z"/><polygon class="f1095c3f-c07a-417c-a676-d4286ab0c920" points="162.1 97.13 161.96 97.22 162.04 97.07 162.1 97.13"/><path class="f1095c3f-c07a-417c-a676-d4286ab0c920" d="M161.18,169.26l-.29,0,.29-.55Z"/><path class="b770b069-3299-4f71-81d9-1f0f6232c746" d="M189.37,196.67l2.43-1.6Z"/><path class="b770b069-3299-4f71-81d9-1f0f6232c746" d="M191.87,195l1.57-1Z"/><path class="b770b069-3299-4f71-81d9-1f0f6232c746" d="M194.64,192.58l1-.22-1.21.9C194.53,193,194.58,192.81,194.64,192.58Z"/><path class="b770b069-3299-4f71-81d9-1f0f6232c746" d="M193.42,194l1-.73Z"/><path class="ac016177-4aae-43bc-b3c0-0f280c7be5f7" d="M145.05,90.74l-.2-.27c.06,0,.15-.11.16-.1a2.65,2.65,0,0,1,.21.26Z"/><path class="ac016177-4aae-43bc-b3c0-0f280c7be5f7" d="M144.31,92.41l-.33,0c0-.06,0-.18,0-.18s.22,0,.33,0Z"/><path class="bc1a3261-2fe6-4810-a1d0-470aba0573bb" d="M190.7,97.51l-.27.2c0-.06-.1-.15-.09-.16a3,3,0,0,1,.26-.21Z"/><path class="aac4a31b-71eb-4e0a-9fb7-bda5ff901693" d="M139.42,142.56l.53.34-.54.54C139.41,143.15,139.41,142.85,139.42,142.56Z"/><path class="e2d0d413-8585-4599-9518-f4dd5dabaebe" d="M142.9,208.82c.33.54.64.86.66,1.18s-.49.67-.64.62c-.33-.1-.76-.44-.79-.71S142.52,209.32,142.9,208.82Z"/><path class="e0e37b8b-60d1-4482-9aec-637596f567c6" d="M180.47,189.57c.05,1.43.57,2,2.17,1.69,1.85-.39,3.77-.45,5.66-.66l-18.89,12.29c.66-1.25,1.26-2.54,2-3.75,1-1.71.79-3.06-.93-4.12,2.28-.49,4.86-.32,6.12-2.94v0l.27-.49c.18-.58.36-1.15.53-1.73Z"/><path class="f1095c3f-c07a-417c-a676-d4286ab0c920" d="M173.09,160.9l-.52-.35Z"/><path class="f1095c3f-c07a-417c-a676-d4286ab0c920" d="M172.54,160.5l-.39-.33Z"/><path class="bf2000ba-28d9-4e33-9d38-2720afb28086" d="M177.4,189.82l-.53,1.72-.27.5v0c-2,.43-4,.8-5.88,1.36-.38.11-.53,1-.78,1.53l-.05.05-3.15.85,1.41-2.91c.49-.88.39-1.45-.77-1.43l0,0c-.1-.26-.19-.53-.29-.8l-.18-.89.85-2.37a.17.17,0,0,1,.13-.23c.24.5.47,1,.84,1.79.55-1.06,2.89-.51,1.57-2.54a14.58,14.58,0,0,0-1.78-1.92l-.26-.87,2.15-.45,0,0c.28.67.56,1.33.85,2l1.33-1.15h0a6.17,6.17,0,0,1,.45,1.68,9.33,9.33,0,0,1-.64,2.14l2.93-2.56.34.42.46.48v0C176.55,187.44,177,188.63,177.4,189.82Zm-2.48-2.09,0-.19a1.86,1.86,0,0,0-.33,0,.82.82,0,0,0,0,.18Zm-5.21,2.47-.1-.16a1.71,1.71,0,0,0-.26.21s.06.1.1.15Z"/><path class="f1095c3f-c07a-417c-a676-d4286ab0c920" d="M168.48,184.53a14.58,14.58,0,0,1,1.78,1.92c1.32,2-1,1.48-1.57,2.54-.37-.79-.6-1.29-.84-1.79Z"/><path class="f1095c3f-c07a-417c-a676-d4286ab0c920" d="M167.72,187.43l-.85,2.37C167.15,189,167.43,188.22,167.72,187.43Z"/><path class="f1095c3f-c07a-417c-a676-d4286ab0c920" d="M167.37,191.53c1.16,0,1.26.55.77,1.43C167.88,192.48,167.62,192,167.37,191.53Z"/><path class="f1095c3f-c07a-417c-a676-d4286ab0c920" d="M167.05,190.69c.1.27.19.54.29.8C167.24,191.23,167.15,191,167.05,190.69Z"/><path class="f1095c3f-c07a-417c-a676-d4286ab0c920" d="M172.57,184.11l-1.33,1.15c-.29-.67-.57-1.33-.85-2Z"/><path class="aefb3583-6815-4eb3-b97b-70b04f7b0bd9" d="M179.53,172.13a.67.67,0,0,1-.31-.2.62.62,0,0,1,.28.23Z"/><path class="f1095c3f-c07a-417c-a676-d4286ab0c920" d="M176.12,186.26l-.46-.48Z"/><path class="f1095c3f-c07a-417c-a676-d4286ab0c920" d="M169.93,195c.25-.53.4-1.42.78-1.53,1.93-.56,3.91-.93,5.88-1.36-1.26,2.62-3.84,2.45-6.12,2.94Z"/><path class="f1095c3f-c07a-417c-a676-d4286ab0c920" d="M176.6,192l.27-.5Z"/><path class="f1095c3f-c07a-417c-a676-d4286ab0c920" d="M174.92,187.73l-.33,0a.82.82,0,0,1,0-.18,1.86,1.86,0,0,1,.33,0Z"/><path class="f1095c3f-c07a-417c-a676-d4286ab0c920" d="M169.72,190.2l-.27.2c0-.05-.11-.14-.1-.15a1.71,1.71,0,0,1,.26-.21Z"/></svg>