<svg id="b4f3f0f7-d0a0-474c-af84-63e7be7b43af" data-name="图层 1" xmlns="http://www.w3.org/2000/svg" viewBox="0 0 300 300"><defs><style>.ae258fcb-bdff-4d77-83e1-91e0afdab9fe{fill:#02579e;}.e4906d4a-dc2a-4a2a-8237-22905d168bd5{fill:#004384;}.a5c06501-b2d0-4d16-90c9-37809619cf8b{fill:#fbfcfc;}.a4a4268f-d568-4e69-943a-9e50f2098e12{fill:#f2f5f8;}.f2813560-9daf-4a4c-8444-d29756ad0607{fill:#8ba6c9;}</style></defs><title>TechIcons</title><path class="ae258fcb-bdff-4d77-83e1-91e0afdab9fe" d="M11.66,269V38q4.89-21.2,26.08-26.08H267.5c4.52,2.59,10.13,4.27,13.29,8,4.4,5.21,7,12,10.31,18.07V81.46l-15.85,1.61.2.48-11.4-1.36c.29-1.08.59-2.16.88-3.24a.43.43,0,0,0,.29-.65l1-3,.57-2.58-5.4-2.19-1.17.22-4,2-3.64,1.51-7.47,5-2.46,1.33-9,8.21-1.44.31-9.41-8.52c2.45-2.43,1.41-4.55-.94-6-7.29-4.51-14.28-9.91-22.16-13a109.77,109.77,0,0,0-49-7.2h-47.2l-13.32,1-.51,2.41L91.14,59l1.41.08,12.21,2.26,1.27.29,1.29.85.15.27.32-.05-.21.56c-2.32,1.1-4.66,2.14-6.94,3.32-1.44.74-2.78,1.69-4.17,2.54,1.21.82,2.32,2,3.65,2.38,3.55,1,7.18,1.75,10.78,2.59-.2,2.25-.05,4.59-.65,6.73-7.32,26.32-14.78,52.61-22.16,78.91-3.21,11.47-6.32,23-9.48,34.46l-1.19,4-1.31,4.64-1,2.8a10.8,10.8,0,0,0-.94,1.6c-4.11,10.91-10.19,19.25-23.29,20-2,.11-6.84-.64-6.63,4.36,1.8.86,3.64,2.53,5.4,2.46,6.46-.26,12.9-1.1,19.35-1.72l2.16.44c-3.79,5.6-9.76,5.81-15.63,6.48-1.34.16-2.55,1.42-3.81,2.18,1.31.92,2.56,2.53,3.94,2.65,7.55.64,15.14.78,22.7,1.36,5.21.4,8.29-1.48,10.46-6.47,1.39-3.2,4.64-5.61,7-8.37q-1.09,3.74-2.21,7.45c-.38,2.44-.77,4.88-1.15,7.32-.08,1.16-.15,2.32-.22,3.48,0,1.31.07,2.61.1,3.92l.26,3.79.94,3.68.25,1.26-.91.85c.1.28.19.57.28.85a2.1,2.1,0,0,0,0-.43,3.68,3.68,0,0,0-.21-.45l2.91-.82a1.26,1.26,0,0,0,.32-1.06,4.41,4.41,0,0,1,1-.17c4.32,7,.66,16.68-8.59,19.6-6.48,2-7.53,6-7.34,11.45H36.5c-6.21-4-12.79-7.57-18.49-12.22C15.09,276.75,13.73,272.44,11.66,269Z"/><path class="e4906d4a-dc2a-4a2a-8237-22905d168bd5" d="M264.05,82.19l11.4,1.36-.2-.48,15.85-1.61V265.27c-3.77,13.62-11.8,23-26.08,26.08H81.21c-.19-5.5.86-9.41,7.34-11.45,9.25-2.92,12.91-12.59,8.59-19.6.21-.77.41-1.53.62-2.29l-.09.11,5.93-5.56.09,0,1.53-2c5.27-2.09,10.63-4,15.78-6.31,8.82-4,15.4-9.68,14.88-20.61-.06-1.39,1.18-3.2,2.33-4.24,5.74-5.13,11.65-10.06,17.49-15.06l1.22-1.12,0,0,1.32-1.17,1.15-.11,7.66,10c-.37,1.3-.87,3-1.37,4.76l-19.84,9.82-.82-1.46v11.07c29.26-1.88,53.86-12.52,74-33.35,25.8-26.7,33.13-54,29.45-72.82-2.23,2-4.68,4.13-7,6.37-8.18,7.87-16.82,15.35-24.33,23.81-8.72,9.82-20.73,16.3-27.12,28.59-3.73,7.15-9.71,13.13-14.67,19.63a1.27,1.27,0,0,0-.82.78l-1.23,1.13-12.55-12L153.2,192c0-.74-.09-1.49-.13-2.24l1.48-2.88,11.37,8.52c8.49-8.21,16.6-15.88,24.53-23.75,10.12-10.05,20.57-19.84,30-30.52,9.12-10.31,17.12-21.6,25.62-32.46l2.72-3.85c.45-.75.91-1.49,1.37-2.23L252,100.9l.22-.3,1.71-2.95h0l5-7.45,2.9-4.84Zm13.68,7.37c-1.12-.69-1.66-1.22-2.28-1.31-.33-.06-1.17.74-1.11,1,.17.61.62,1.47,1.11,1.58S276.6,90.22,277.73,89.56Z"/><path class="a5c06501-b2d0-4d16-90c9-37809619cf8b" d="M150.75,54.36a109.77,109.77,0,0,1,49,7.2c7.88,3.08,14.87,8.48,22.16,13,2.35,1.45,3.39,3.57.93,6l-22.39,23.37c-1.14-.91-2.8-1.58-3.34-2.77C194.9,96.3,193,91.29,191,86.34c-6.2-12.15-15.31-20.06-29.57-21.19-5-.4-7,1.07-8.45,6q-17.9,63.31-36.49,126.42A7.55,7.55,0,0,1,112,202a44.93,44.93,0,0,0-25.53,17.38c-3,4.16-5.76,8.55-8.62,12.83l-3.93.1-2.7.54L69,232.36l-24.75-.74c-.21-5,4.58-4.25,6.63-4.36,13.1-.77,19.18-9.11,23.29-20a10.8,10.8,0,0,1,.94-1.6l1-2.8,1.31-4.64h1.31l.39,2.09.77-.29-1.17-1.8-.11-4c3.16-11.49,6.27-23,9.48-34.46,7.38-26.3,14.84-52.59,22.16-78.91.6-2.14.45-4.48.65-6.73l.21-6.58-1.79-3.17.16.15-1.69-1.79-.32.05-.15-.27L106,61.62l-1.27-.29-3.67-3.46.9-.71-.91.69-8.53,1.22L91.14,59,89.72,57.8l.51-2.41,13.32-1h7.5a7.71,7.71,0,0,0,2.27.86c10.87.5,21.74,1,32.62,1.26C147.53,56.5,149.15,55.1,150.75,54.36Zm-32.92,3.23-.28-1-4.44.35.08.64ZM78.19,210.37l.46-.32c-.13-.13-.34-.39-.37-.37a5.3,5.3,0,0,0-.63.54Z"/><path class="a5c06501-b2d0-4d16-90c9-37809619cf8b" d="M246.07,108.67c-8.5,10.86-16.5,22.15-25.62,32.46-9.43,10.68-19.88,20.47-30,30.52-7.93,7.87-16,15.54-24.53,23.75l-11.37-8.52-7.5-9.11c4.57-5.47,9.28-11.52,14.41-17.18C175.61,145,189.93,129.5,204.19,114l28.06-24.91,1.44-.31,4.81,2c1.48-3.59,2.83-6.88,4.18-10.17l2.46-1.33c.55,1.23,1.11,2.46,1.66,3.7,1.07-.63,2.62-1,3.13-1.93a51.67,51.67,0,0,0,2.68-6.76l3.64-1.51,4-2,1.17-.22,5.4,2.19-.57,2.58-1,3a.43.43,0,0,1-.29.65c-.74-1.32-1.48-2.65-2.51-4.47-3.19,4-3.21,7.34-.67,10.88l-2.9,4.84-7,.7c.69,2.24,1.39,4.49,2.08,6.75h0l-1.71,2.95-.22.3-1.81,1.69c-.46.74-.92,1.48-1.37,2.23C243.9,103.29,245.61,106.42,246.07,108.67Z"/><path class="e4906d4a-dc2a-4a2a-8237-22905d168bd5" d="M77.8,232.16c2.86-4.28,5.59-8.67,8.62-12.83A44.93,44.93,0,0,1,112,202a7.55,7.55,0,0,0,4.58-4.33Q135,134.49,153,71.2c1.41-5,3.41-6.45,8.45-6,14.26,1.13,23.37,9,29.57,21.19a56.47,56.47,0,0,0-7.14-3.26c-6.2-1.92-12.45-3.76-18.79-5.11-1.17-.25-3.77,1.67-4.19,3.06-3.73,12.33-7,24.79-10.65,37.16-7.84,26.81-15.83,53.57-23.64,80.38-.4,1.36.34,3,.56,4.58-1.88,1.79-3.57,4.87-5.66,5.17-12.43,1.79-21.86,9.67-25.65,22.31-2.41,2.76-5.66,5.17-7,8.37-2.17,5-5.25,6.87-10.46,6.47-7.56-.58-15.15-.72-22.7-1.36-1.38-.12-2.63-1.73-3.94-2.65,1.26-.76,2.47-2,3.81-2.18,5.87-.67,11.84-.88,15.63-6.48l2.7-.54Z"/><path class="a5c06501-b2d0-4d16-90c9-37809619cf8b" d="M95.88,230.63c3.79-12.64,13.22-20.52,25.65-22.31,2.09-.3,3.78-3.38,5.66-5.17,5.18-6.92,10.37-13.83,16.38-21.84L147,186.1l6.19,5.9,7.57,6.2c-.45,1.21-.89,2.43-1.34,3.64l-1.15.11L157,203.12l0,0-1.22,1.12c-5.84,5-11.75,9.93-17.49,15.06-1.15,1-2.39,2.85-2.33,4.24.52,10.93-6.06,16.63-14.88,20.61-5.15,2.34-10.51,4.22-15.78,6.31l-1.53,2-.09,0-9.23-4.39c1.27,3.81,2.28,6.88,3.3,10l.09-.11-1.57,2.46a1.26,1.26,0,0,1-.32,1.06h-2c-.08-.42-.17-.84-.25-1.26-.31-1.23-.62-2.45-.94-3.68-.08-1.26-.17-2.52-.26-3.79l-.1-3.92c.07-1.16.14-2.32.22-3.48,4.55-1.78,3.27-4.48,1.15-7.32Q94.78,234.36,95.88,230.63Zm11.36,16.46c-1.22-.83-1.71-1.39-2-1.31a1.57,1.57,0,0,0-1,1.13,1.5,1.5,0,0,0,1,1.06C105.77,248,106.31,247.54,107.24,247.09Zm44-50.32c.16,0,.42,0,.47-.11a1.46,1.46,0,0,0,0-.56l-.71.15Z"/><path class="e4906d4a-dc2a-4a2a-8237-22905d168bd5" d="M232.25,89.07,204.19,114l-3.75-10.06,22.39-23.37Z"/><path class="e4906d4a-dc2a-4a2a-8237-22905d168bd5" d="M111.11,67.5l-.21,6.58c-3.6-.84-7.23-1.55-10.78-2.59-1.33-.4-2.44-1.56-3.65-2.38,1.39-.85,2.73-1.8,4.17-2.54,2.28-1.18,4.62-2.22,6.94-3.32l1.9,1.23-.16-.15Z"/><path class="a4a4268f-d568-4e69-943a-9e50f2098e12" d="M150.75,54.36c-1.6.74-3.22,2.14-4.81,2.11-10.88-.24-21.75-.76-32.62-1.26a7.71,7.71,0,0,1-2.27-.86Z"/><path class="f2813560-9daf-4a4c-8444-d29756ad0607" d="M44.26,231.62l24.75.74c-6.45.62-12.89,1.46-19.35,1.72C47.9,234.15,46.06,232.48,44.26,231.62Z"/><path class="a4a4268f-d568-4e69-943a-9e50f2098e12" d="M252.61,74.23A51.67,51.67,0,0,1,249.93,81c-.51.94-2.06,1.3-3.13,1.93-.55-1.24-1.11-2.47-1.66-3.7Z"/><path class="a4a4268f-d568-4e69-943a-9e50f2098e12" d="M261.75,85.36c-2.54-3.54-2.52-6.93.67-10.88,1,1.82,1.77,3.15,2.51,4.47-.29,1.08-.59,2.16-.88,3.24C263.28,83.25,262.51,84.3,261.75,85.36Z"/><path class="a4a4268f-d568-4e69-943a-9e50f2098e12" d="M242.68,80.55c-1.35,3.29-2.7,6.58-4.18,10.17l-4.81-2Z"/><path class="a4a4268f-d568-4e69-943a-9e50f2098e12" d="M101.09,57.87l3.67,3.46L92.55,59.07l8.53-1.22Z"/><path class="a4a4268f-d568-4e69-943a-9e50f2098e12" d="M93.67,238.08c2.12,2.84,3.4,5.54-1.15,7.32C92.9,243,93.29,240.52,93.67,238.08Z"/><path class="a4a4268f-d568-4e69-943a-9e50f2098e12" d="M103.55,54.35l-13.32,1Z"/><path class="a4a4268f-d568-4e69-943a-9e50f2098e12" d="M266.81,72.67l-5.4-2.19Z"/><path class="a4a4268f-d568-4e69-943a-9e50f2098e12" d="M260.24,70.7l-4,2Z"/><path class="a4a4268f-d568-4e69-943a-9e50f2098e12" d="M78.61,194.18l.11,4h-1.3C77.82,196.86,78.21,195.52,78.61,194.18Z"/><path class="a4a4268f-d568-4e69-943a-9e50f2098e12" d="M92.3,248.88c0,1.31.07,2.62.1,3.92C92.37,251.49,92.33,250.19,92.3,248.88Z"/><path class="a4a4268f-d568-4e69-943a-9e50f2098e12" d="M92.66,256.59c.32,1.23.63,2.45.94,3.68C93.29,259,93,257.82,92.66,256.59Z"/><path class="a4a4268f-d568-4e69-943a-9e50f2098e12" d="M265.22,78.3l1-3Z"/><path class="a4a4268f-d568-4e69-943a-9e50f2098e12" d="M76.11,202.84l-1,2.8Z"/><path class="a4a4268f-d568-4e69-943a-9e50f2098e12" d="M109.48,64.48l-1.9-1.23.21-.56Z"/><path class="a4a4268f-d568-4e69-943a-9e50f2098e12" d="M89.72,57.8,91.14,59Z"/><path class="a4a4268f-d568-4e69-943a-9e50f2098e12" d="M96.19,260.47,97.76,258c-.21.76-.41,1.52-.62,2.29A4.41,4.41,0,0,0,96.19,260.47Z"/><path class="a4a4268f-d568-4e69-943a-9e50f2098e12" d="M93.85,261.53h2l-2.91.82,0,0Z"/><path class="a4a4268f-d568-4e69-943a-9e50f2098e12" d="M106,61.62l1.29.85Z"/><path class="a4a4268f-d568-4e69-943a-9e50f2098e12" d="M93,262.35a3.68,3.68,0,0,1,.21.45,2.1,2.1,0,0,1,0,.43c-.09-.28-.18-.57-.28-.85Z"/><path class="ae258fcb-bdff-4d77-83e1-91e0afdab9fe" d="M200.44,103.92,204.19,114c-14.26,15.52-28.58,31-42.73,46.61-5.13,5.66-9.84,11.71-14.41,17.18l7.5,9.11-1.48,2.88L147,186.1l-3.44-4.79c-6,8-11.2,14.92-16.38,21.84-.22-1.54-1-3.22-.56-4.58,7.81-26.81,15.8-53.57,23.64-80.38,3.62-12.37,6.92-24.83,10.65-37.16.42-1.39,3-3.31,4.19-3.06,6.34,1.35,12.59,3.19,18.79,5.11A56.47,56.47,0,0,1,191,86.34c2,5,3.86,10,6.06,14.81C197.64,102.34,199.3,103,200.44,103.92Z"/><path class="a4a4268f-d568-4e69-943a-9e50f2098e12" d="M173.32,210.22l1.23-1.12.82-.79c5-6.5,10.94-12.48,14.67-19.63,6.39-12.29,18.4-18.77,27.12-28.59,7.51-8.46,16.15-15.94,24.33-23.81,2.33-2.24,4.78-4.35,7-6.37,3.68,18.77-3.65,46.12-29.45,72.82-20.13,20.83-44.73,31.47-74,33.35V225l.82,1.46,19.84-9.82Z"/><path class="ae258fcb-bdff-4d77-83e1-91e0afdab9fe" d="M173.32,210.22l-7.6,6.43c.5-1.73,1-3.46,1.37-4.76l-7.66-10c.45-1.21.89-2.43,1.34-3.64Z"/><path class="a4a4268f-d568-4e69-943a-9e50f2098e12" d="M97.67,258.12c-1-3.07-2-6.14-3.3-10l9.23,4.39Z"/><path class="a4a4268f-d568-4e69-943a-9e50f2098e12" d="M253.9,97.65c-.69-2.26-1.39-4.51-2.08-6.75l7-.7Z"/><path class="a4a4268f-d568-4e69-943a-9e50f2098e12" d="M147,186.1l6.06,3.66c0,.75.08,1.5.13,2.24Z"/><path class="ae258fcb-bdff-4d77-83e1-91e0afdab9fe" d="M277.73,89.56c-1.13.66-1.8,1.35-2.28,1.24s-.94-1-1.11-1.58c-.06-.23.78-1,1.11-1C276.07,88.34,276.61,88.87,277.73,89.56Z"/><path class="a4a4268f-d568-4e69-943a-9e50f2098e12" d="M246.07,108.67c-.46-2.25-2.17-5.38,2.72-3.85Q247.43,106.74,246.07,108.67Z"/><path class="a4a4268f-d568-4e69-943a-9e50f2098e12" d="M252.19,100.6l1.71-2.95Z"/><path class="a4a4268f-d568-4e69-943a-9e50f2098e12" d="M250.16,102.59,252,100.9Z"/><path class="a4a4268f-d568-4e69-943a-9e50f2098e12" d="M157,203.12l1.32-1.17Z"/><path class="a4a4268f-d568-4e69-943a-9e50f2098e12" d="M155.7,204.28l1.22-1.12Z"/><path class="ae258fcb-bdff-4d77-83e1-91e0afdab9fe" d="M175.37,208.31l-.82.79A1.27,1.27,0,0,1,175.37,208.31Z"/><path class="a4a4268f-d568-4e69-943a-9e50f2098e12" d="M103.69,252.52l1.53-2Z"/><path class="a4a4268f-d568-4e69-943a-9e50f2098e12" d="M117.83,57.59h-4.64l-.08-.64,4.44-.35Z"/><path class="f2813560-9daf-4a4c-8444-d29756ad0607" d="M77.8,232.16l-3.93.1Z"/><path class="a4a4268f-d568-4e69-943a-9e50f2098e12" d="M78.72,198.2l1.17,1.8-.77.29-.39-2.09Z"/><path class="a4a4268f-d568-4e69-943a-9e50f2098e12" d="M111.11,67.5l-1.79-3.17C109.91,65.39,110.51,66.44,111.11,67.5Z"/><path class="a4a4268f-d568-4e69-943a-9e50f2098e12" d="M78.19,210.37l-.54-.15a5.3,5.3,0,0,1,.63-.54s.24.24.37.37Z"/><path class="a4a4268f-d568-4e69-943a-9e50f2098e12" d="M101.08,57.85l.91-.69-.9.71Z"/><path class="a4a4268f-d568-4e69-943a-9e50f2098e12" d="M107.24,247.09c-.93.45-1.47.92-2,.88a1.5,1.5,0,0,1-1-1.06,1.57,1.57,0,0,1,1-1.13C105.53,245.7,106,246.26,107.24,247.09Z"/><path class="a4a4268f-d568-4e69-943a-9e50f2098e12" d="M151.21,196.77l-.2-.52.71-.15a1.46,1.46,0,0,1,0,.56C151.63,196.75,151.37,196.74,151.21,196.77Z"/></svg>