<svg id="b5e19e00-f8de-4a01-8660-6b9b2ae7ac4d" data-name="图层 1" xmlns="http://www.w3.org/2000/svg" viewBox="0 0 300 300"><defs><style>.e067bafd-0f03-41aa-ac09-5800e7992c2c{fill:#4264fb;}.abc7eab0-a67e-46ea-8c52-b0e80f9dfd80{fill:#fff;}</style></defs><title>TechIcons</title><path class="e067bafd-0f03-41aa-ac09-5800e7992c2c" d="M14.27,248.44c10.81-6.87,15-6.42,23.7,2.21.91-1,1.8-1.92,2.71-2.87a12.44,12.44,0,0,1,14.19-3.16c5.26,2,8.38,6.24,8.46,11.81.09,7.32-.06,14.63.09,21.94.06,3-1,4-4,4-3.23,0-3.8-1.48-3.74-4.21q.16-8.91,0-17.83c-.1-5.87-3.69-10-8.51-10-4.41,0-8.27,4.2-8.46,9.69-.21,6.09-.16,12.19,0,18.28.07,2.92-.88,4-3.93,4S31,281,31,278.19c.12-5.94.09-11.88,0-17.82s-3.63-10-8.46-10c-4.39,0-8.3,4.16-8.53,9.66-.26,6.08-.19,12.19-.06,18.28.07,2.88-.8,4.06-3.89,4.07s-3.83-1.38-3.8-4.17c.11-9.6,0-19.2.08-28.79,0-1.9-1-4.67,2.48-4.8C11.39,244.53,14.4,243.8,14.27,248.44Z"/><path class="e067bafd-0f03-41aa-ac09-5800e7992c2c" d="M130.4,278c0,5.53-.05,10.61,0,15.69,0,2.62-.39,4.3-3.7,4.31s-4.17-1.22-4.15-4.33c.12-14.78,0-29.57.15-44.35,0-1.56,1.12-4.13,2.23-4.45,2.56-.75,5.75-1,5.84,4.06,11.36-7.58,21.56-7.81,29.35,4.08,4.93,7.54,3.66,17.58-2.31,24.15C151.51,284.08,144.52,284.43,130.4,278Zm.47-14.89c-.12,7.24,5,12.92,11.75,13a12.8,12.8,0,0,0,12.75-12.77c0-6.77-5.77-12.8-12.27-12.9S131,256,130.87,263.07Z"/><path class="e067bafd-0f03-41aa-ac09-5800e7992c2c" d="M179.61,278c.56,5.12-2.84,4.83-5.37,4.07-1.21-.36-2.39-3.09-2.41-4.76-.19-14.48-.09-28.95-.13-43.43,0-2.83.06-5,4-5s3.9,2.27,3.86,5c-.08,4.7,0,9.4,0,15.11,6.73-4.5,13.34-7.64,20.42-3.89a25.45,25.45,0,0,1,9,8.05c5,7.52,3.43,18.06-2.83,24.41C199.2,284.55,192.08,284.78,179.61,278ZM204,263.26c0-6.84-5.7-12.81-12.21-12.85-6.8,0-12.33,5.88-12.26,13.15.06,6.87,5.37,12.49,11.84,12.53A12.7,12.7,0,0,0,204,263.26Z"/><path class="e067bafd-0f03-41aa-ac09-5800e7992c2c" d="M101.79,248c1.78-1.29,3.1-2.86,4.72-3.29,3.17-.83,4.61.59,4.53,4.14-.21,9.28,0,18.57-.14,27.86,0,2,1.43,4.95-2.16,5.53-3,.5-5.91.35-5.87-4-14.58,6.45-21.49,5.79-27.85-2.49a21.07,21.07,0,0,1,.47-25.45C81.74,242.66,89.22,242.1,101.79,248ZM78.85,263.09C78.77,270.46,84,276.14,91,276.23c6.43.09,12.25-6,12.26-12.8s-5.7-12.85-12.18-13C84.48,250.34,78.93,256.06,78.85,263.09Z"/><path class="e067bafd-0f03-41aa-ac09-5800e7992c2c" d="M217.59,263.24a19.5,19.5,0,0,1,19.78-19.58c11.37,0,20.07,8.6,20.05,19.83a19.88,19.88,0,0,1-19.85,19.72A19.67,19.67,0,0,1,217.59,263.24Zm7.71.1c0,7.15,5.32,12.78,12.12,12.83,6.61,0,12.35-5.92,12.35-12.8s-5.86-12.92-12.33-12.91C230.76,250.48,225.31,256.26,225.3,263.34Z"/><path class="e067bafd-0f03-41aa-ac09-5800e7992c2c" d="M294.29,281.63c-6.16,1.72-9.87.43-12-4.78-1-2.33-2.61-4.37-4.47-7.4-1.94,3.06-3.73,5.27-4.85,7.79-2.23,5-5.91,6-11.84,4.35,2.34-3.63,4.12-7.31,6.74-10.23,5-5.6,5-10.61,0-16.17-2.49-2.77-4.2-6.24-6.32-9.48,6-2.33,8.08-1.7,10.91,3,1.34,2.21,2.7,4.41,4.1,6.6a5.81,5.81,0,0,0,1.17,1c5-4,5.08-15.21,16.26-10.8-2.93,4.51-5.61,9.06-8.75,13.28-2.34,3.15-2.55,5.68-.12,8.93C288.32,272,291.06,276.68,294.29,281.63Z"/><path class="e067bafd-0f03-41aa-ac09-5800e7992c2c" d="M34.28,113.28C32.93,54.68,83.74,3.7,143.68,4.42c61.35.73,109.38,48.93,109,111.1-.37,60.4-51.19,108-110,107.71C83.12,222.92,32.53,172.44,34.28,113.28Z"/><path class="abc7eab0-a67e-46ea-8c52-b0e80f9dfd80" d="M88.16,147c0,5.53.2,11.07,0,16.59-.37,8.12,3.77,11.51,11.41,11.55,9.68.06,19.41.76,29,0,22.63-1.79,44.17-7.32,62.18-22.15,18.36-15.1,25.72-34.51,19.56-57.61C204.07,72,188.48,57.24,164.71,52.25c-22.47-4.72-40.9,3-54.91,20.77C92.76,94.68,87.6,120,88.16,147Z"/><path class="e067bafd-0f03-41aa-ac09-5800e7992c2c" d="M185.39,106.82c-14.71,5.47-25,14.15-29,30-5.14-15.27-14.53-24.85-29.77-29.69,14.57-5.25,24.79-13.9,29.44-29.45C161.24,92.25,170,102.3,185.39,106.82Z"/></svg>