<svg id="eebe398c-e472-42ef-ae07-0be421a2c011" data-name="图层 1" xmlns="http://www.w3.org/2000/svg" viewBox="0 0 300 300"><defs><style>.a0e6f39e-cfe8-42a2-9859-7b6f551b1699{fill:#fcfdfd;}.b00f2314-6a25-4576-83a6-cbd4cafe2023{fill:#6dabe3;}.a3ebe064-8ef3-4129-972a-05ed14c8ddae{fill:#709c49;}.a426badf-3fea-41ec-8d86-f055362bb62b{fill:#fcfdfe;}</style></defs><title>TechIcons</title><path class="a0e6f39e-cfe8-42a2-9859-7b6f551b1699" d="M289,136.13v33.31c-.44.62-1.18,1.21-1.27,1.88a134.69,134.69,0,0,1-30.25,69.42c-23.15,27.86-52.74,44.51-88.73,49.56-.67.09-1.26.83-1.88,1.27H133.56c-.74-.45-1.44-1.19-2.23-1.3-28.81-4.08-54-15.88-75.31-35.68Q19.48,220.6,12.66,171c-.08-.56-.81-1-1.23-1.56V136.13c.44-.75,1.19-1.46,1.29-2.25a127.9,127.9,0,0,1,13-42.41c22.56-43.3,57.93-68.9,106.34-76.24.53-.08,1-.81,1.46-1.23h33.31c.75.44,1.47,1.17,2.27,1.27a132,132,0,0,1,53.28,19c36.91,23.34,58.86,56.61,65.3,100C287.82,134.93,288.56,135.51,289,136.13Zm-22.22-19.69c-5.4-17-13.59-32.11-25.48-44.86-30.53-32.76-68.11-46.19-112.42-38.83C96.62,38.12,70.65,54.61,51.56,81.07,30,111,23.32,144.22,31.36,180.36c.76,3.4,2.5,5,5.51,5.75,6.71,1.68,11-2,14.67-6.8,13-17.11,25.81-34.37,39-51.33,6.23-8,14.77-12.29,25.06-11.66,9.68.59,17.21,5.53,23,13.17,12.88,16.92,25.63,33.94,38.65,50.74,6.82,8.79,15.32,8.59,22.16-.33q18.56-24.19,36.84-48.62C243.83,121.19,253.25,115.19,266.78,116.44ZM40.14,205.05c.68,1.48,1.15,2.63,1.72,3.73A121.92,121.92,0,0,0,271.77,143c-.44-5.18-3.32-8-8.55-8.26-5.46-.3-9.1,2.71-12.16,6.75-13,17.13-25.85,34.37-39,51.35-6.46,8.33-15.15,12.75-25.95,12-9.94-.68-17.27-6-23.15-13.63-5.22-6.77-10.32-13.64-15.48-20.47-7.53-10-14.94-20-22.63-29.83-6.69-8.55-15.32-8.36-22,.18-.29.37-.55.75-.83,1.11-11.5,15.22-23.14,30.34-34.46,45.69C60.68,197.17,52.72,204.34,40.14,205.05Z"/><path class="b00f2314-6a25-4576-83a6-cbd4cafe2023" d="M266.78,116.44c-13.53-1.25-22.95,4.75-30.51,14.84Q218,155.7,199.43,179.9c-6.84,8.92-15.34,9.12-22.16.33-13-16.8-25.77-33.82-38.65-50.74-5.81-7.64-13.34-12.58-23-13.17C105.31,115.69,96.77,120,90.54,128c-13.19,17-26,34.22-39,51.33-3.67,4.84-8,8.48-14.67,6.8-3-.76-4.75-2.35-5.51-5.75-8-36.14-1.37-69.4,20.2-99.29,19.09-26.46,45.06-42.95,77.32-48.32,44.31-7.36,81.89,6.07,112.42,38.83C253.19,84.33,261.38,99.42,266.78,116.44ZM203.69,95.27A12.6,12.6,0,0,0,190.82,82.7a13.06,13.06,0,0,0-12.69,12.93,13.22,13.22,0,0,0,12.7,12.66A12.77,12.77,0,0,0,203.69,95.27Z"/><path class="a3ebe064-8ef3-4129-972a-05ed14c8ddae" d="M40.14,205.05c12.58-.71,20.54-7.88,27.38-17.16,11.32-15.35,23-30.47,34.46-45.69.28-.36.54-.74.83-1.11,6.69-8.54,15.32-8.73,22-.18,7.69,9.83,15.1,19.88,22.63,29.83,5.16,6.83,10.26,13.7,15.48,20.47,5.88,7.62,13.21,12.95,23.15,13.63,10.8.73,19.49-3.69,25.95-12,13.18-17,26-34.22,39-51.35,3.06-4,6.7-7.05,12.16-6.75,5.23.29,8.11,3.08,8.55,8.26a121.92,121.92,0,0,1-229.91,65.8C41.29,207.68,40.82,206.53,40.14,205.05Z"/><path class="a426badf-3fea-41ec-8d86-f055362bb62b" d="M203.69,95.27a12.77,12.77,0,0,1-12.86,13,13.22,13.22,0,0,1-12.7-12.66A13.06,13.06,0,0,1,190.82,82.7,12.6,12.6,0,0,1,203.69,95.27Z"/></svg>