<svg id="a136b3e2-918a-4d1e-a764-b9bd047dd546" data-name="图层 1" xmlns="http://www.w3.org/2000/svg" viewBox="0 0 300 300"><defs><style>.ea47eb24-7660-4ddd-a60d-4d78523b01eb{fill:#61dafc;}.a23b4bdb-8317-4de0-ab03-494efc466e5d{fill:#fff;}</style></defs><title>TechIcons</title><path class="ea47eb24-7660-4ddd-a60d-4d78523b01eb" d="M224.1,46.45c-.94,6.41-1.78,14.53-3.43,22.48-.87,4.16-.17,5.74,4.06,6.94,12.07,3.4,23.49,8.43,33.16,16.65,14.44,12.26,15.49,28.16,1.93,40.83a66.4,66.4,0,0,1-14.91,10.38c-6.73,3.46-14,6-21.1,8.59-3.1,1.11-4,2.38-3.26,5.71,2.79,13.15,5,26.38,1.92,39.84-4.56,20.24-20.41,26.37-38.82,18.95-11.31-4.56-21-11.72-29.72-20.18-2.71-2.63-4.29-2.66-7.06-.06-8.94,8.36-18.66,15.67-30.26,20-21.25,8-37.27-2.39-39.24-26.28a94.49,94.49,0,0,1,2.88-32.53c1-3.66-.13-5.14-3.64-6.2-10.24-3.08-20.25-6.87-28.94-13.27a56.91,56.91,0,0,1-10.33-9.51c-8.4-10.2-7.5-23.09,1.55-32.78,8.78-9.41,20-14.71,31.7-19.11,3.23-1.21,7.82-1.55,9.29-3.87s-.37-6.49-.92-9.83c-1.83-11.09-3.11-22.17-.77-33.36C81.38,14.67,91.27,6.2,105.47,7.77a44,44,0,0,1,17.24,5.43c8.26,4.9,15.83,11,23.35,17.09,3,2.43,4.78,3,7.92.1,9.34-8.74,19.48-16.42,31.79-20.65,18.93-6.51,33.09,1.61,36.86,21.33C223.48,35.52,223.52,40.13,224.1,46.45Z"/><path class="ea47eb24-7660-4ddd-a60d-4d78523b01eb" d="M78.07,297.45c-3.75,0-5.37-1.91-8.17-6.26L69,289.76c-3-4.68-6.12-9.51-9.26-14.21-1-1.54-6-3.12-9.85-3.12a5.32,5.32,0,0,0-3.07.65,4.73,4.73,0,0,0-.84,3c-.14,5.06-.1,10.14-.05,14.91a5.34,5.34,0,0,1-1.16,3.85,4.28,4.28,0,0,1-3.19,1.11h-.17c-4.18-.08-4.18-3.5-4.18-4.79v-4.4c0-15.85.07-32.23,0-48.35a5.08,5.08,0,0,1,1.22-3.8,5.2,5.2,0,0,1,3.91-1.24h.17q2.9,0,5.79,0h5.32l5.33,0c3.15,0,5.72,0,8.08.07,9.6.19,16.36,7,17.63,17.86,1,8.26-4.9,17.31-12.83,19.76-.74.23-1.46.49-2.33.8l-.31.12,16.14,24.43-1.46.29A32.43,32.43,0,0,1,78.07,297.45ZM45.93,252.91c0,.81,0,1.62,0,2.43a29.53,29.53,0,0,0,.18,5.68,3.7,3.7,0,0,0,2,2.15c3.59.16,6.5.24,9.18.24,2.93,0,5.58-.09,8.1-.28,4.86-.36,8.5-4.79,8.47-10.31s-3.4-9.37-8.4-9.88c-3.84-.39-7.78-.53-11.6-.66l-4.87-.19h-.32a2.75,2.75,0,0,0-2.05.64A3.1,3.1,0,0,0,45.9,245c0,1.84,0,3.7,0,5.5,0,.49,0,1,0,1.48Z"/><path class="ea47eb24-7660-4ddd-a60d-4d78523b01eb" d="M42.35,234.34h.16c1.93,0,3.87,0,5.8,0,3.55,0,7.09,0,10.64,0q4,0,8.07.07c9.12.18,15.46,6.77,16.66,17,.93,7.84-4.61,16.36-12.14,18.69-1.13.35-2.25.78-3.88,1.36l16,24.25a31.75,31.75,0,0,1-5.62.76c-3.24,0-4.57-1.51-7.33-5.8C67.37,285.41,64,280.17,60.54,275c-1.33-2-6.75-3.56-10.68-3.56a6,6,0,0,0-3.72.89c-.85.73-1.15,2.44-1.19,3.71-.14,5-.1,10-.05,15,0,2.41-.63,3.95-3.35,3.95H41.4c-2.65-.05-3.2-1.56-3.2-3.79,0-17.59.08-35.17,0-52.75,0-3.07,1.32-4,4.13-4M57.2,264.41c2.74,0,5.46-.08,8.18-.28,5.54-.41,9.43-5.49,9.4-11.31s-3.69-10.31-9.3-10.87-11-.6-16.52-.86h-.37c-2.5,0-3.74,1.27-3.69,4s0,5.25,0,7.87h0c0,2.77-.3,5.58.14,8.27.19,1.17,1.86,2.94,2.92,3,3.06.14,6.14.24,9.21.24M42.35,232.34a6.34,6.34,0,0,0-4.62,1.53,6.07,6.07,0,0,0-1.51,4.52c.06,16.11,0,32.51,0,48.36v4.37c0,3.79,1.73,5.74,5.16,5.8h.19a5.26,5.26,0,0,0,3.9-1.41A6.25,6.25,0,0,0,46.9,291c0-4.76-.09-9.84.05-14.87a4.49,4.49,0,0,1,.5-2.26,4.82,4.82,0,0,1,2.41-.4c3.92,0,8.33,1.64,9,2.68,3.12,4.66,6.21,9.47,9.21,14.12l1,1.5c2.68,4.17,4.55,6.72,9,6.72a33.23,33.23,0,0,0,6-.8l2.93-.57-1.64-2.5-7.62-11.52-7-10.6c.5-.18,1-.33,1.4-.47,8.51-2.63,14.58-12,13.54-20.83-1.34-11.36-8.47-18.55-18.61-18.75-2.37,0-5-.07-8.11-.07l-5.33,0H48.31c-2.2,0-4,0-5.77,0Zm4.57,18.58v-.41c0-1.8,0-3.67,0-5.52a2.32,2.32,0,0,1,.35-1.57,2,2,0,0,1,1.34-.34h.27l4.87.19c3.81.13,7.74.27,11.55.66,4.46.45,7.48,4,7.5,8.89s-3.22,9-7.55,9.3c-2.5.19-5.12.28-8,.28-2.63,0-5.49-.07-9-.23A3.25,3.25,0,0,1,47,260.84a28.76,28.76,0,0,1-.16-5.46c0-.81,0-1.64,0-2.47v-2Z"/><path class="ea47eb24-7660-4ddd-a60d-4d78523b01eb" d="M115.7,298.68c-7.22,0-13.76-2.65-18-7.28-8.07-8.91-8.53-24.12-1-33.9,4-5.18,10.67-8.27,17.91-8.27a24.84,24.84,0,0,1,8.47,1.48c8,2.89,14.46,12.79,14.21,21.61-.12,4.14-2.81,4.67-5.13,4.67-3.86,0-7.62,0-11.39,0l-15.24,0c-1.08,0-2.19.08-3.26.15l-.6,0c-.17,6,3.76,11.06,10.22,13a12.19,12.19,0,0,0,3.49.62h0c2.59,0,5.8-1.21,14.12-4.84l.61-.27.48.47c2.06,2,3.15,3.33,3,4.82s-1.44,2.48-3.6,3.8a27.42,27.42,0,0,1-14.3,3.92Zm2-28.63,3,0c1.27,0,2.54,0,3.81-.05,1.61,0,2.6-.33,3-.82s.25-1.55-.27-3.12c-1.75-5.16-6.36-8.24-12.35-8.24h-.6c-5.49.19-11,4.4-12.41,9.39a2.85,2.85,0,0,0,0,2.16,2.65,2.65,0,0,0,2,.58h11.72V270Z"/><path class="ea47eb24-7660-4ddd-a60d-4d78523b01eb" d="M114.63,250.23a23.88,23.88,0,0,1,8.13,1.42c7.57,2.75,13.78,12.39,13.55,20.64-.09,3-1.58,3.7-4.13,3.7h-.09c-3.79,0-7.59,0-11.38,0q-7.58,0-15.16,0c-1.62,0-3.25.16-4.81.25-.63,6.95,3.73,12.75,10.89,14.88a13,13,0,0,0,3.77.66c2.84,0,6.22-1.3,14.52-4.92,3.69,3.54,3.63,4.56-.45,7.05a26.54,26.54,0,0,1-13.77,3.77c-6.63,0-13.08-2.39-17.21-6.95-7.81-8.61-8.24-23.16-1-32.62,3.88-5.05,10.37-7.88,17.12-7.88M108.24,271h6.45V271l6.1,0c1.28,0,2.56,0,3.84-.05,4-.12,4.86-1.52,3.59-5.26-1.88-5.57-6.9-8.92-13.29-8.92h-.64c-5.9.2-11.87,4.76-13.33,10.12-.72,2.65.18,4,3,4h4.32m6.39-22.75c-7.55,0-14.54,3.24-18.71,8.66C88.13,267,88.62,282.82,97,292.08c4.38,4.83,11.2,7.6,18.7,7.6a28.4,28.4,0,0,0,14.82-4.07c2-1.23,3.85-2.51,4.07-4.54s-1.35-3.8-3.28-5.65l-1-.93-1.22.53c-8.18,3.57-11.31,4.76-13.72,4.76a11.07,11.07,0,0,1-3.2-.58c-5.68-1.69-9.26-5.94-9.5-11.09,1-.06,1.92-.12,2.86-.12l15.15,0c4.15,0,7.87,0,11.37,0h.1c1.47,0,6,0,6.12-5.64.27-9.21-6.53-19.55-14.86-22.58a25.81,25.81,0,0,0-8.81-1.54Zm-11.89,20.55a2.6,2.6,0,0,1,.15-1.28c1.23-4.52,6.48-8.48,11.47-8.65h.57c5.54,0,9.8,2.82,11.4,7.56.59,1.75.4,2.22.39,2.23h0s-.38.34-2.15.39c-1.12,0-2.32.05-3.78.05l-3,0h-1.06V269H103.93a2.18,2.18,0,0,1-1.19-.2Z"/><path class="ea47eb24-7660-4ddd-a60d-4d78523b01eb" d="M159.55,298.52a14.92,14.92,0,0,1-12-5.66,16.37,16.37,0,0,1-.58-19.75,14.38,14.38,0,0,1,12.4-6.28c3.92,0,8.68,1.13,14.53,3.43,1.1-4.08.23-9.06-1.95-10.34a16.26,16.26,0,0,0-8.25-2.43c-4.05,0-8.13,1.78-12.13,5.28l-.66.57-.66-.57c-2.39-2.07-3.75-3.6-3.63-5.27s1.56-2.84,4-4.42a24.24,24.24,0,0,1,13.5-4,36.36,36.36,0,0,1,11.7,2.15c4.7,1.58,7.49,5.53,7.66,10.85.3,9.59.27,18.83.19,29.92,0,1.3-1.45,3.7-2.79,3.7a20.37,20.37,0,0,1-4.68-.9l-1.94-.5C168.58,297.14,163.76,298.52,159.55,298.52Zm5-24.88a14.26,14.26,0,0,0-1.82.12c-5.62.71-8.53,3.14-8.9,7.42-.25,2.91.37,5.21,1.84,6.83,1.68,1.84,4.41,2.78,8.12,2.81H164c4.51,0,10-1.22,10.34-7a9.41,9.41,0,0,0-2.35-7.23A10,10,0,0,0,164.55,273.64Z"/><path class="ea47eb24-7660-4ddd-a60d-4d78523b01eb" d="M164.14,250.1a36,36,0,0,1,11.38,2.08c4.55,1.54,6.83,5.36,7,9.94.31,9.95.26,19.92.19,29.89,0,.95-1.19,2.7-1.79,2.7h0c-2-.07-3.89-.78-6.73-1.46-5.61,2.83-10.46,4.27-14.61,4.27a13.84,13.84,0,0,1-11.21-5.3,15.45,15.45,0,0,1-.54-18.53,13.32,13.32,0,0,1,11.59-5.86c4.08,0,9,1.26,15.15,3.76,1.61-4.4,1-10.76-2.06-12.53a17.09,17.09,0,0,0-8.76-2.57c-4.53,0-8.82,2.05-12.79,5.53-4.51-3.91-4.35-5.13.25-8.1a23.37,23.37,0,0,1,13-3.82M164,291.82c7,0,11-2.83,11.34-8,.42-6.63-4.12-11.2-10.76-11.2a16.45,16.45,0,0,0-2,.12q-9.15,1.17-9.76,8.33c-.59,6.83,3.33,10.67,10.94,10.73H164m.17-43.72a25.15,25.15,0,0,0-14,4.14c-2.26,1.45-4.3,2.94-4.45,5.19-.15,2.09,1.34,3.82,4,6.1l1.31,1.14,1.32-1.15c3.81-3.34,7.67-5,11.47-5a15.23,15.23,0,0,1,7.74,2.29c1.48.87,2.35,4.6,1.73,8.13-5.47-2.07-10-3.08-13.8-3.08a15.3,15.3,0,0,0-13.21,6.69,17.39,17.39,0,0,0,.62,21,15.86,15.86,0,0,0,12.75,6c4.29,0,9.15-1.36,14.84-4.15l1.57.41a21.28,21.28,0,0,0,4.86.93h.08c2.13,0,3.78-3.13,3.79-4.69.08-11.1.11-20.35-.19-30-.19-5.76-3.22-10.05-8.34-11.77a37.47,37.47,0,0,0-12-2.19ZM164,289.82h-.17c-3.38,0-5.93-.88-7.39-2.48-1.28-1.41-1.81-3.45-1.58-6.08.2-2.38,1.26-5.65,8-6.51a12.43,12.43,0,0,1,1.7-.11,9,9,0,0,1,6.68,2.59,8.4,8.4,0,0,1,2.08,6.49c-.32,5-5.26,6.1-9.34,6.1Z"/><path class="ea47eb24-7660-4ddd-a60d-4d78523b01eb" d="M218.32,297.79c-.51,0-1,0-1.55-.07s-.94,0-1.4,0h0a20.86,20.86,0,0,1-18-10.4,28.1,28.1,0,0,1-.91-26.91c3.67-7.19,11.19-11.48,20.12-11.48a22.64,22.64,0,0,1,14.14,4.54l.12.09c1.17,1,2.39,1.94,2.52,3.44a4,4,0,0,1-1.17,2.95,4.85,4.85,0,0,1-3.53,2.06,5.51,5.51,0,0,1-3.35-1.46,14,14,0,0,0-8.7-3.18c-6.22,0-11.44,4.39-13,10.93-1.62,6.84-.64,12,3.08,16.36a13.22,13.22,0,0,0,10.13,5,14.78,14.78,0,0,0,8.6-3,7.31,7.31,0,0,1,3.89-1.23,3.45,3.45,0,0,1,1.61.35c1.41.74,2.88,1.7,3,3.19s-1.25,2.85-2.63,3.93A20.7,20.7,0,0,1,218.32,297.79Z"/><path class="ea47eb24-7660-4ddd-a60d-4d78523b01eb" d="M216.56,250c5.17,0,10.14,1.56,13.51,4.31,1.7,1.39,3.39,2.67,1.34,5.06-.95,1.1-1.8,1.71-2.77,1.71a4.6,4.6,0,0,1-2.73-1.25,14.93,14.93,0,0,0-9.32-3.39c-6.34,0-12.22,4.37-14,11.7-1.47,6.22-1.07,12.17,3.3,17.24a14.27,14.27,0,0,0,10.89,5.36,15.75,15.75,0,0,0,9.18-3.19,6.3,6.3,0,0,1,3.31-1,2.47,2.47,0,0,1,1.14.23c3.32,1.75,3.25,3.08.24,5.46a19.8,19.8,0,0,1-12.37,4.62c-.51,0-1,0-1.54-.07s-.95,0-1.41,0c-17.08,0-25.91-20.46-18-35.86,3.92-7.66,11.77-10.93,19.23-10.93m0-2c-9.31,0-17.17,4.5-21,12a29.1,29.1,0,0,0,.95,27.89,21.85,21.85,0,0,0,18.87,10.88c.45,0,.92,0,1.39,0s1,.06,1.56.06a21.68,21.68,0,0,0,13.61-5.05c1.59-1.26,3.19-2.81,3-4.81s-2-3.17-3.55-4a4.48,4.48,0,0,0-2.07-.46,8.29,8.29,0,0,0-4.48,1.42,13.8,13.8,0,0,1-8,2.82,12.24,12.24,0,0,1-9.37-4.66c-3.5-4.06-4.41-9-2.87-15.48,1.44-6.08,6.26-10.16,12-10.16a12.91,12.91,0,0,1,8.07,3,6.46,6.46,0,0,0,4,1.68,5.86,5.86,0,0,0,4.29-2.41,5,5,0,0,0,1.41-3.68c-.18-1.93-1.68-3.15-2.89-4.13l-.11-.1A23.71,23.71,0,0,0,216.56,248Z"/><path class="ea47eb24-7660-4ddd-a60d-4d78523b01eb" d="M254.56,298.57a12.74,12.74,0,0,1-4.68-.92,9.35,9.35,0,0,1-6.42-8.77c-.12-3.4-.09-6.85-.06-10.19,0-1.13,0-2.25,0-3.37h-.12s0-3.55,0-4.82c0-3,0-6,0-9.07a3.2,3.2,0,0,0-.59-2.29,2.47,2.47,0,0,0-1.83-.55h-.51a4.71,4.71,0,0,1-3.45-1.13,4.1,4.1,0,0,1-1-3.09c0-2,.85-4.29,4.45-4.29H241a2.36,2.36,0,0,0,1.78-.54,3.63,3.63,0,0,0,.57-2.66c0-1,0-2,0-2.93,0-.69,0-1.38,0-2.07a4.3,4.3,0,0,1,1.06-3.24,4.23,4.23,0,0,1,3.16-1.1,4.43,4.43,0,0,1,3.32,1.12,4.14,4.14,0,0,1,1,3.08q0,.5,0,1a12.42,12.42,0,0,1,0,2c-.22,1.78,0,3,.58,3.72a3.19,3.19,0,0,0,2.49.82,10.82,10.82,0,0,0,1.09-.07,6.48,6.48,0,0,1,.86-.05c1.53,0,4.11.59,4.18,4.52.08,4.17-2.64,4.8-5,4.88-1.88.06-2.94.33-3.44.86s-.66,1.6-.59,3.66c.14,3.55.09,7.16,0,10.65,0,1.55,0,3.11,0,4.66,0,.6,0,1.21,0,1.81a33.64,33.64,0,0,0,0,3.9c.42,4.54,1.38,5.3,4.06,5.3a19.11,19.11,0,0,0,2.54-.2l.29,0c1.17,0,3.21,1,3.5,2.26s.38,4-1,4.93A12.46,12.46,0,0,1,254.56,298.57Z"/><path class="ea47eb24-7660-4ddd-a60d-4d78523b01eb" d="M247.59,238.56c2.21,0,3.38.92,3.36,3.19a25.52,25.52,0,0,1,0,2.9c-.44,3.62.66,5.66,4.07,5.66a10.5,10.5,0,0,0,1.2-.08,6.51,6.51,0,0,1,.75,0c2,0,3.14,1.05,3.18,3.54.06,3-1.36,3.77-4.05,3.86-4.41.15-5.16,1.36-5,5.56.2,5.08,0,10.18,0,15.27,0,1.93-.16,3.88,0,5.8.42,4.65,1.55,6.21,5,6.21a19.86,19.86,0,0,0,2.68-.21H259c.89,0,2.37.83,2.52,1.49.29,1.22.17,3.36-.6,3.86a11.42,11.42,0,0,1-6.37,2,11.65,11.65,0,0,1-4.32-.85,8.39,8.39,0,0,1-5.78-7.87c-.17-4.84,0-9.69,0-14.53h-.12c0-4.29-.06-8.58,0-12.87.05-2.48-.88-3.86-3.42-3.86h-.5c-2,0-3.52-.59-3.46-3.2.06-2.45,1.39-3.31,3.45-3.31H241c2.81,0,3.45-1.74,3.35-4.23-.06-1.66,0-3.33,0-5,0-2.19.92-3.31,3.22-3.32h0m0-2h0a4.79,4.79,0,0,0-5.22,5.35c0,.68,0,1.36,0,2,0,1,0,2,0,3,.05,1.45-.22,1.84-.3,1.93a1.68,1.68,0,0,1-1.06.23h-.61c-3.39,0-5.37,1.92-5.45,5.26a5,5,0,0,0,1.29,3.82,5.77,5.77,0,0,0,4.17,1.43h.5a1.79,1.79,0,0,1,1.12.26c.08.07.32.42.31,1.57,0,3,0,6.12,0,9.1,0,1.26,0,2.53,0,3.8v2h.11c0,.79,0,1.57,0,2.36,0,3.35-.06,6.82.07,10.24a10.39,10.39,0,0,0,7,9.66,13.71,13.71,0,0,0,5.05,1,13.35,13.35,0,0,0,7.47-2.34c2-1.32,1.71-4.85,1.45-6-.42-1.82-3-3-4.47-3a2.77,2.77,0,0,0-.42,0,18.74,18.74,0,0,1-2.42.19c-1.82,0-2.65,0-3.05-4.39a31.53,31.53,0,0,1,0-3.78c0-.61,0-1.22,0-1.83,0-1.55,0-3.09,0-4.64,0-3.5.09-7.13,0-10.72-.06-1.65,0-2.64.33-2.94s.73-.47,2.74-.54c1.5,0,6.09-.21,6-5.9-.06-3.44-2-5.5-5.18-5.5a8.44,8.44,0,0,0-1,.06,8.54,8.54,0,0,1-1,.06,2.5,2.5,0,0,1-1.74-.49c-.23-.26-.58-1-.34-2.93a13.38,13.38,0,0,0,0-2.18c0-.32,0-.63,0-1a5.14,5.14,0,0,0-1.34-3.79,5.46,5.46,0,0,0-4-1.41Z"/><path class="a23b4bdb-8317-4de0-ab03-494efc466e5d" d="M150.34,151.22c5.4,0,10.83.31,16.19-.14,2.34-.2,5.53-1.32,6.65-3.09,6.43-10.16,12.47-20.58,18.33-31.08a7.49,7.49,0,0,0,0-6.15q-8.62-15.84-18-31.29a7.42,7.42,0,0,0-5.28-3c-11.59-.26-23.19,0-34.79-.16-3.51,0-5.64,1.44-7.29,4.36q-8.16,14.46-16.53,28.79a7.62,7.62,0,0,0,0,8.53q8.63,14.41,17,29c1.81,3.15,4.45,4.32,7.89,4.3C139.82,151.2,145.08,151.23,150.34,151.22Z"/><path class="a23b4bdb-8317-4de0-ab03-494efc466e5d" d="M213.32,182.3c-.93-6.52-2.08-14.16-3.08-21.82-.48-3.69-2.21-4.27-5.71-3.56-7.17,1.46-14.42,2.57-21.69,3.39a10.72,10.72,0,0,0-8,4.4c-4.54,5.92-9.23,11.75-14.15,17.36-2.54,2.89-2.39,4.87.67,7,1.57,1.11,2.91,2.54,4.38,3.8,7.73,6.6,15.77,12.73,25.88,15.19,11.2,2.71,18-1.69,20.2-13C212.57,191.28,212.75,187.4,213.32,182.3Z"/><path class="a23b4bdb-8317-4de0-ab03-494efc466e5d" d="M87.38,44c1.06,7.32,2.18,15.1,3.3,22.89.42,2.87,1.72,3.85,4.84,3.3,8.3-1.46,16.69-2.41,25-3.83a7.9,7.9,0,0,0,4.29-2.74c4.06-4.91,7.89-10,11.8-15,1.91-2.45,5.49-5.09,5.25-7.33-.26-2.43-3.93-4.64-6.34-6.69-8.16-6.94-16.63-13.44-27.41-15.82-9.76-2.16-16.34,1.86-18.63,11.55C88.46,34.58,88.12,39,87.38,44Z"/><path class="a23b4bdb-8317-4de0-ab03-494efc466e5d" d="M87.24,182.87l.85.13c0,2.63-.15,5.27,0,7.89.81,12.72,7.7,19.16,19,17.63a29.76,29.76,0,0,0,6.74-2c10.52-4.14,18.77-11.56,27.11-18.86,2-1.77.93-3.06-.26-4.53-5.48-6.77-10.86-13.63-16.49-20.28a8.18,8.18,0,0,0-4.65-2.28c-7.9-1.36-15.88-2.3-23.76-3.77-3.1-.58-4.43.28-4.89,3.18Q89.07,171.43,87.24,182.87Z"/><path class="a23b4bdb-8317-4de0-ab03-494efc466e5d" d="M196.73,18.23c-.43,0-1.41,0-2.36.17a21.09,21.09,0,0,0-3.24.73c-12.2,3.92-21.76,11.82-30.87,20.41-1.85,1.74-.82,3.13.4,4.64,5.38,6.67,10.67,13.42,16.1,20a6.11,6.11,0,0,0,3.37,2.11c8.59,1.41,17.2,2.74,25.85,3.76,1.2.15,3.52-1.25,3.8-2.33,3.19-12.13,4.82-24.42,2.07-36.88C210,22.33,205,18.17,196.73,18.23Z"/><path class="a23b4bdb-8317-4de0-ab03-494efc466e5d" d="M42.35,113.63c.37,5.17,3.08,9.1,6.84,12.35,9.3,8,20.44,12.48,32,16.09,2.07.65,3.17.19,4-2.07,2.93-7.9,6.19-15.67,9.16-23.56a7.45,7.45,0,0,0,.39-4.7q-4.56-12.67-9.66-25.15a3.82,3.82,0,0,0-3.29-1.69C70.14,88.23,59,92.73,49.59,100.58,45.55,103.94,42.66,108.09,42.35,113.63Z"/><path class="a23b4bdb-8317-4de0-ab03-494efc466e5d" d="M258.57,115.32c-.35-7.13-3.32-11.06-7.16-14.42-9.18-8-20.3-12.22-31.68-15.9-2.16-.7-3.24-.12-4.06,2-3,8-6.35,15.95-9.36,24a7.28,7.28,0,0,0-.08,4.7q4.46,12.28,9.4,24.41c.4,1,2.32,2.29,3.14,2.05,12.88-3.66,25.39-8.28,34.84-18.31C256.13,121.2,257.42,117.36,258.57,115.32Z"/><path class="a23b4bdb-8317-4de0-ab03-494efc466e5d" d="M114.36,79.31l-.79-1.24c-5.49,1-11,2-16.46,3.14-.7.15-1.8,1.71-1.62,2.26,1.8,5.51,3.82,10.94,6.17,17.47C106.39,92.89,110.38,86.1,114.36,79.31Z"/><path class="a23b4bdb-8317-4de0-ab03-494efc466e5d" d="M186.14,77.74c4.63,8.24,8.54,15.18,13,23.14,2.34-6.36,4.39-11.59,6.12-16.91.27-.83-.7-2.92-1.38-3.06C198.44,79.74,192.91,78.9,186.14,77.74Z"/><path class="a23b4bdb-8317-4de0-ab03-494efc466e5d" d="M186.73,147.66l.71,1.41c5.6-1.09,11.21-2.11,16.77-3.37.56-.13,1.33-1.89,1.09-2.59-1.75-5.31-3.72-10.54-6-16.82Z"/><path class="a23b4bdb-8317-4de0-ab03-494efc466e5d" d="M101.83,126.47c-2.45,6.68-4.49,12.16-6.4,17.69a2.21,2.21,0,0,0,1,1.89c5.83,1.13,11.69,2.1,18.56,3.29C110.36,141.33,106.44,134.51,101.83,126.47Z"/><path class="a23b4bdb-8317-4de0-ab03-494efc466e5d" d="M163.36,162.42H139l-.73,1c3.6,4.22,7.14,8.49,10.87,12.59.4.43,2.3.25,2.8-.29C155.6,171.67,159.06,167.47,163.36,162.42Z"/><path class="a23b4bdb-8317-4de0-ab03-494efc466e5d" d="M137.72,64.45h25.35c-4.12-5-7.48-9.11-11-13.11-.5-.56-2.4-.84-2.76-.44C145.56,55,142,59.35,137.72,64.45Z"/><path class="ea47eb24-7660-4ddd-a60d-4d78523b01eb" d="M172,113.5a21.83,21.83,0,0,1-21.9,21.88c-11.71-.1-21.4-10.1-21.31-22a21.61,21.61,0,1,1,43.21.1Z"/></svg>