<svg id="bcffb477-796b-4ed0-862a-9b7cdae305fe" data-name="图层 1" xmlns="http://www.w3.org/2000/svg" viewBox="0 0 300 300"><defs><style>.b2f520d2-9972-4fc0-8c8c-5d6bdccd9a6a{fill:#3d3d3d;stroke:#fff;stroke-miterlimit:10;stroke-width:5px;}.f3a7328c-7e67-4932-9706-b95bf054bdff{fill:#fff;}</style></defs><title>TechIcons</title><path class="b2f520d2-9972-4fc0-8c8c-5d6bdccd9a6a" d="M291.6,253.61c0,4.77-1.85,7-6,7.64q-31.36,5-62.75,10-32.85,5.22-65.7,10.42c-18.56,2.93-37.13,5.79-55.69,8.73-14.35,2.28-28.68,4.65-43,7-1.34.21-2.69.35-4,.45-4.12.3-6.72-1.65-7.36-5.71-3.22-20.38-6.35-40.77-9.56-61.14q-5.78-36.54-11.61-73.06C23,139.43,20.1,121,17.18,102.5Q13,76,8.72,49.43C8,45,10,41.79,14.37,41.09q27.35-4.37,54.7-8.68L171.8,16.13q36.52-5.77,73-11.55c4.5-.7,7.36,1.42,8.1,6,3.76,23,7.56,46,11.25,69q6.92,43.2,13.69,86.41,6.71,42.38,13.41,84.75C291.48,251.94,291.56,253.18,291.6,253.61Z"/><path class="f3a7328c-7e67-4932-9706-b95bf054bdff" d="M146.86,238.94a66.52,66.52,0,0,1,0-6.87c.56-4.9,4-7.07,8.37-4.87a20,20,0,0,1,6.71,5.46c4.75,6.21,3.42,13.39-2.93,16.75,1.19-4.21,1.09-8-2.81-10.65-2.53-1.7-4-.91-4.2,2.11-.22,3.82,2.32,6.09,4.57,8.64,2.09,2.37,4,2.3,6.46.7,5.11-3.33,7.9-8.22,9.65-13.85,2.36-7.6,5.06-15.09,11.4-20.36,6.15-5.09,12.31-10.28,19-14.56,14-9,27.11-18.9,36.81-32.57,4.3-6.05,7.7-12.74,11.51-19.14l-1.18-1.14c-5.08,2.56-10.41,4.74-15.19,7.77-8.09,5.13-15.86,10.77-23.73,16.24-10.27,7.14-20.88,13.52-33.66,14.93-3.9.43-7.95,1-11.34-1.83-1.82-1.51-2.93-3.2-.38-5.18,2.32-1.79,4.52-3.73,6.79-5.59,4.92-4,7.75-9.06,7.64-16.05-11.44,5.8-22.61,6.78-33.51,0-10.74-6.67-15.43-17.16-17.43-30.28-4,2-7.74,3.31-10.69,5.64a56.79,56.79,0,0,1-20.33,10.38c-2.61.73-5.22,1.49-7.75,2.45-4.27,1.63-8.44,3.66-10.47,8-3.12,6.7-3.11,10.49,5.3,11.66,1.45.21,2.93.3,4.35.63,3,.69,5.92,1.51,9.6,2.47l-2.32,2c-3.46,3-3.49,4.77-.15,7.94,1.89,1.78,3.59,3.85,5.7,5.31a59.3,59.3,0,0,0,9.84,5.71c2.32,1,4.48.26,4.64-3,.08-1.55.41-3.09.59-4.39,5.47-1,10.77-2,16.07-3,5.94-1.1,10.73.21,13.36,3.62-12.56-4.9-17.23.07-22.72,7.51-2.88,3.89-5.26,8.16-8.16,12-4.43,5.93-8.88,7.09-15.24,3.35-4.92-2.9-9.19-6.88-14-10.06-2.53-1.69-2.9-3.69-2.46-6.36.67-4.11,1.24-8.24,1.76-12.38.55-4.45-1.05-7.37-3.69-8.19-1.16,6.73-2.07,13.61-3.58,20.36s-1.53,12.41,5.55,15.9a4.19,4.19,0,0,1,.54.4c16.65,12.41,34,23.83,48.9,38.55,4.32,4.28,9.73,7.45,14.77,11.22,2-3.69,1.76-6.58.11-9.2s-3.71-5.09-5.59-7.63l-3.37-4.57.69-.59ZM69.51,201.57c3-7.33,3.48-14.95,2.73-22.41S69.35,164.37,67.85,157c-.31-1.53-1.45-3.17,1.33-3.9,19.28-5.08,36.08-14.89,51.73-27,2.89-2.24,4.41-4,4-8.13-1.39-14.26-5.16-27.65-12.64-39.91a62.59,62.59,0,0,0-23-22.71c-3.89,32.33-14.2,61.26-39.65,82.78-3-2.17-5.67-4-8.2-6-2.27-1.85-2.89-3.7-.6-6.46A135.06,135.06,0,0,0,60.07,95.06C67,79.66,69.76,63.72,66.77,47c-.86-4.85-1.45-5.28-6.17-4.51q-16.66,2.7-33.34,5.37c-6.61,1.06-8.23,3.63-7.12,10.3,2.55,15.2,4.93,30.42,7.37,45.64,2.82,17.53,5.6,35.08,8.5,52.6a7.8,7.8,0,0,0,2,3.58c5.72,6.52,12,12.63,17.2,19.52S64.65,194,69.51,201.57ZM83,152.25c7.07.51,10.71,3.44,11.36,8.94C88.49,162.05,84.21,158.76,83,152.25Z"/></svg>