<svg id="bd081461-61c5-41a8-9496-e6d7aef813ea" data-name="图层 1" xmlns="http://www.w3.org/2000/svg" viewBox="0 0 300 300"><defs><style>.b01fb2f7-00d7-4fc5-96fe-4269226ab979{fill:#4a4a4a;}</style></defs><title>TechIcons</title><path class="b01fb2f7-00d7-4fc5-96fe-4269226ab979" d="M108,70.52c4.62,0,9.23-.06,13.84,0a5.27,5.27,0,0,0,5.18-3c4.36-7.64,8.73-15.28,13.39-22.75a9.4,9.4,0,0,1,5-3.91c35.47-9.36,71-18.52,106.5-27.82,2.8-.73,3.83.16,4.53,2.74q14.1,51.89,28.35,103.72a8.49,8.49,0,0,1-1,7.31c-4.46,7.08-8.71,14.3-13.18,21.37a4.77,4.77,0,0,0,0,5.86c4.54,7.15,8.86,14.46,13.35,21.64a7.82,7.82,0,0,1,1,6.71q-14.32,52.16-28.51,104.34c-.7,2.57-1.89,3.12-4.42,2.46q-53.07-14-106.18-27.79a8.43,8.43,0,0,1-5.63-4.29c-4.17-7.38-8.59-14.62-12.73-22a6.16,6.16,0,0,0-6.2-3.52c-8.69.16-17.38,0-26.07.15a8.53,8.53,0,0,1-6.58-2.64Q61.84,202.83,35,176.69C27.2,169.12,19.49,161.5,11.64,154c-2.22-2.11-2.26-3.56,0-5.74q38.79-37.9,77.52-75.87a9.17,9.17,0,0,1,5.37-2.22c4.48-.31,9-.1,13.5-.1ZM213.86,54.14c-2,.32-3.22.43-4.4.72-25.9,6.47-51.8,12.92-77.67,19.52a13.84,13.84,0,0,0-6,3.29q-28.59,28-57,56.3c-.79.78-1.44,1.67-2.7,3.15,2.07.16,3.31.33,4.54.33,29.91,0,59.82,0,89.74.07,3.13,0,5.09-1,6.73-3.76q22.33-38,44.89-75.86C212.55,56.94,213,55.89,213.86,54.14ZM66.52,165.31c1.47,1.64,2.2,2.54,3,3.34Q97.58,196.37,125.7,224a13.84,13.84,0,0,0,6,3.36c26.2,6.68,52.45,13.19,78.68,19.74,1.08.27,2.19.4,4,.73-.83-1.58-1.26-2.53-1.8-3.43Q190,206.55,167.41,168.64a6.9,6.9,0,0,0-6.7-3.87c-29.83.1-59.66,0-89.49.07C70,164.85,68.77,165.08,66.52,165.31ZM238.91,234c.64-1.76,1.09-2.8,1.4-3.88,7.24-25.16,14.51-50.31,21.61-75.51a13.27,13.27,0,0,0,0-6.88c-7.16-25.41-14.47-50.77-21.76-76.14-.3-1-.75-2-1.31-3.51-.83,1.2-1.29,1.77-1.66,2.4q-23,38.76-46,77.5c-1.52,2.55-1.13,4.45.26,6.78q22.62,37.86,45.12,75.79C237.15,231.49,237.84,232.4,238.91,234Z"/></svg>