<svg id="b55ca943-1428-4c90-8e88-772983bf3389" data-name="图层 1" xmlns="http://www.w3.org/2000/svg" xmlns:xlink="http://www.w3.org/1999/xlink" viewBox="0 0 800 800"><defs><style>.a02b4ff2-3ffe-4c82-b3ad-dbd1008fa933,.a0d6dc89-2342-48c0-b6ec-052a8f3bbdc0,.a10fc7e0-73f7-4077-a961-13e2f671f537,.a812e9cc-9bab-4400-b0cc-4722139207b7,.a97d557b-8b96-4b33-84ea-b4122639d76d,.ab70158e-8881-499c-8f83-24e9ec426580,.ba71f96d-61c4-4e9e-92be-5b1dbeabf63d,.be709478-b810-43bb-9a47-892564cb78f4,.bec2d5cf-9af5-40f7-a3ae-59c9aed3e406,.bf3b652f-ebcc-4970-8b26-2fe10e04e6a9,.f3b411da-a25f-4611-a622-7182a8c3b518,.f5ee5ca2-85da-45e2-b015-ee11802a14cc{fill:none;stroke-linecap:round;stroke-linejoin:round;stroke-width:6px;}.a02b4ff2-3ffe-4c82-b3ad-dbd1008fa933{stroke:url(#a7708246-a873-405d-a8ab-125bd0cadb4d);}.a0d6dc89-2342-48c0-b6ec-052a8f3bbdc0,.a97d557b-8b96-4b33-84ea-b4122639d76d{stroke-dasharray:38.22 25.48;}.a97d557b-8b96-4b33-84ea-b4122639d76d{stroke:url(#b86856c7-0fab-4700-ac48-319c3bfd7ab3);}.a10fc7e0-73f7-4077-a961-13e2f671f537{stroke:url(#f3586773-988b-496f-8c53-d8cbc9db914d);}.ba71f96d-61c4-4e9e-92be-5b1dbeabf63d,.bf3b652f-ebcc-4970-8b26-2fe10e04e6a9{stroke-dasharray:38.22 25.48;}.bf3b652f-ebcc-4970-8b26-2fe10e04e6a9{stroke:url(#fd8eb317-d575-48e8-8f5a-bd3393cfc491);}.be709478-b810-43bb-9a47-892564cb78f4{stroke:url(#e740a012-7294-4f4b-a659-bd7325e69d2f);}.f3b411da-a25f-4611-a622-7182a8c3b518,.f5ee5ca2-85da-45e2-b015-ee11802a14cc{stroke-dasharray:38.22 25.48;}.f5ee5ca2-85da-45e2-b015-ee11802a14cc{stroke:url(#ba57e4b0-3eb0-4da4-a47c-d728dfdbd2db);}.bec2d5cf-9af5-40f7-a3ae-59c9aed3e406{stroke:url(#e9a45d13-f631-4e14-ab4d-9e50db67b0b4);}.ba71f96d-61c4-4e9e-92be-5b1dbeabf63d{stroke:url(#a9275060-b517-414a-b9c9-00967c57a712);}.ab70158e-8881-499c-8f83-24e9ec426580{stroke:url(#edbbb4fe-f49d-4655-a688-6e729ca6bf8a);}.a0d6dc89-2342-48c0-b6ec-052a8f3bbdc0{stroke:url(#ef6cf6e5-f116-4271-9c77-0b9909294d63);}.a812e9cc-9bab-4400-b0cc-4722139207b7{stroke:url(#a20663d8-4015-41f5-bb6c-a2c742e1aa1d);}.f3b411da-a25f-4611-a622-7182a8c3b518{stroke:url(#b50fd4d7-8ab2-45ec-841c-9d7d2181f445);}.b3443ae8-96ca-4905-a5b1-dd89ef4525fd{fill:url(#a3d430b8-acab-4a11-9574-048529b4f4e0);}.f826b082-217d-4a63-8bfa-13905667e317{fill:url(#a9561a1f-3913-49b2-bed6-b7119e6ef785);}.b87af08d-c5f0-41a3-8675-0d1675b18818{fill:url(#ae1dd736-002e-4c9e-a301-b8964a837f1a);}.a2dd20d7-7ce2-4211-af87-ad64eed5fff8{fill:url(#b0ed6f3d-373b-4595-af21-a6a03d386022);}</style><linearGradient id="a7708246-a873-405d-a8ab-125bd0cadb4d" x1="559" y1="875.35" x2="891.1" y2="300.13" gradientUnits="userSpaceOnUse"><stop offset="0" stop-color="#212121"/><stop offset="1" stop-color="#878787"/></linearGradient><linearGradient id="b86856c7-0fab-4700-ac48-319c3bfd7ab3" x1="477.86" y1="828.51" x2="809.96" y2="253.29" xlink:href="#a7708246-a873-405d-a8ab-125bd0cadb4d"/><linearGradient id="f3586773-988b-496f-8c53-d8cbc9db914d" x1="394.44" y1="780.35" x2="726.55" y2="205.13" xlink:href="#a7708246-a873-405d-a8ab-125bd0cadb4d"/><linearGradient id="fd8eb317-d575-48e8-8f5a-bd3393cfc491" x1="228.27" y1="684.41" x2="560.38" y2="109.19" xlink:href="#a7708246-a873-405d-a8ab-125bd0cadb4d"/><linearGradient id="e740a012-7294-4f4b-a659-bd7325e69d2f" x1="73.14" y1="594.84" x2="405.24" y2="19.62" xlink:href="#a7708246-a873-405d-a8ab-125bd0cadb4d"/><linearGradient id="ba57e4b0-3eb0-4da4-a47c-d728dfdbd2db" x1="-15.8" y1="543.49" x2="316.31" y2="-31.73" xlink:href="#a7708246-a873-405d-a8ab-125bd0cadb4d"/><linearGradient id="e9a45d13-f631-4e14-ab4d-9e50db67b0b4" x1="-91.42" y1="499.84" x2="240.69" y2="-75.38" xlink:href="#a7708246-a873-405d-a8ab-125bd0cadb4d"/><linearGradient id="a9275060-b517-414a-b9c9-00967c57a712" x1="-10.28" y1="546.68" x2="321.82" y2="-28.54" xlink:href="#a7708246-a873-405d-a8ab-125bd0cadb4d"/><linearGradient id="edbbb4fe-f49d-4655-a688-6e729ca6bf8a" x1="73.14" y1="594.84" x2="405.24" y2="19.62" xlink:href="#a7708246-a873-405d-a8ab-125bd0cadb4d"/><linearGradient id="ef6cf6e5-f116-4271-9c77-0b9909294d63" x1="239.31" y1="690.78" x2="571.41" y2="115.56" xlink:href="#a7708246-a873-405d-a8ab-125bd0cadb4d"/><linearGradient id="a20663d8-4015-41f5-bb6c-a2c742e1aa1d" x1="394.44" y1="780.35" x2="726.55" y2="205.13" xlink:href="#a7708246-a873-405d-a8ab-125bd0cadb4d"/><linearGradient id="b50fd4d7-8ab2-45ec-841c-9d7d2181f445" x1="483.38" y1="831.69" x2="815.48" y2="256.47" xlink:href="#a7708246-a873-405d-a8ab-125bd0cadb4d"/><linearGradient id="a3d430b8-acab-4a11-9574-048529b4f4e0" x1="411.6" y1="732.5" x2="670.18" y2="284.62" xlink:href="#a7708246-a873-405d-a8ab-125bd0cadb4d"/><linearGradient id="a9561a1f-3913-49b2-bed6-b7119e6ef785" x1="146.96" y1="341.13" x2="206.19" y2="238.54" xlink:href="#a7708246-a873-405d-a8ab-125bd0cadb4d"/><linearGradient id="ae1dd736-002e-4c9e-a301-b8964a837f1a" x1="239.05" y1="388.15" x2="350.96" y2="194.32" xlink:href="#a7708246-a873-405d-a8ab-125bd0cadb4d"/><linearGradient id="b0ed6f3d-373b-4595-af21-a6a03d386022" x1="389.26" y1="357.14" x2="448.49" y2="254.55" xlink:href="#a7708246-a873-405d-a8ab-125bd0cadb4d"/></defs><title>IconAPI</title><polyline class="a02b4ff2-3ffe-4c82-b3ad-dbd1008fa933" points="728.95 571.99 728.95 589.99 713.36 598.99"/><line class="a97d557b-8b96-4b33-84ea-b4122639d76d" x1="691.29" y1="611.73" x2="426.46" y2="764.63"/><polyline class="a10fc7e0-73f7-4077-a961-13e2f671f537" points="415.43 771 399.84 780 384.25 771"/><line class="bf3b652f-ebcc-4970-8b26-2fe10e04e6a9" x1="362.18" y1="758.26" x2="97.36" y2="605.36"/><polyline class="be709478-b810-43bb-9a47-892564cb78f4" points="86.33 598.99 70.74 589.99 70.74 571.99"/><line class="f5ee5ca2-85da-45e2-b015-ee11802a14cc" x1="70.74" y1="546.51" x2="70.74" y2="240.72"/><polyline class="bec2d5cf-9af5-40f7-a3ae-59c9aed3e406" points="70.74 227.97 70.74 209.97 86.33 200.97"/><line class="ba71f96d-61c4-4e9e-92be-5b1dbeabf63d" x1="108.4" y1="188.23" x2="373.22" y2="35.34"/><polyline class="ab70158e-8881-499c-8f83-24e9ec426580" points="384.25 28.97 399.84 19.97 415.43 28.97"/><line class="a0d6dc89-2342-48c0-b6ec-052a8f3bbdc0" x1="437.5" y1="41.71" x2="702.32" y2="194.6"/><polyline class="a812e9cc-9bab-4400-b0cc-4722139207b7" points="713.36 200.97 728.95 209.97 728.95 227.97"/><line class="f3b411da-a25f-4611-a622-7182a8c3b518" x1="728.95" y1="253.46" x2="728.95" y2="559.25"/><polygon class="b3443ae8-96ca-4905-a5b1-dd89ef4525fd" points="446.86 481.42 681.93 345.69 681.93 291.41 399.84 454.27 399.84 725.71 681.93 562.85 681.93 508.56 446.86 644.28 446.86 589.99 681.93 454.27 681.93 399.98 446.86 535.7 446.86 481.42"/><path class="f826b082-217d-4a63-8bfa-13905667e317" d="M203.7,352.8l-13.29,13.41-81.93-68.39,81.93-68.39L203.7,243l-66.45,54.61Z"/><path class="b87af08d-c5f0-41a3-8675-0d1675b18818" d="M346.94,192,263.31,390.47H243.07L326.7,192Z"/><path class="a2dd20d7-7ce2-4211-af87-ad64eed5fff8" d="M391.81,243,405,229.43l81.93,68.39L405,366.21,391.81,352.8l66.44-54.74Z"/></svg>